{"glyphs":{"0":{"ha":704,"x_min":58,"x_max":695,"o":"m 695 627 q 692 558 695 600 q 680 467 688 516 q 659 363 672 417 q 625 258 645 310 q 578 159 606 206 q 515 77 551 112 q 420 13 475 37 q 293 -12 366 -12 q 187 5 231 -12 q 114 56 142 22 q 71 138 85 89 q 58 250 58 186 q 61 320 58 278 q 73 411 64 361 q 94 514 81 460 q 128 620 108 568 q 175 718 148 671 q 237 801 202 765 q 283 839 258 822 q 336 866 308 855 q 395 883 364 878 q 460 889 427 889 q 567 872 522 889 q 640 822 611 855 q 682 740 668 789 q 695 627 695 691 m 608 626 q 571 771 608 724 q 452 819 533 819 q 368 803 406 819 q 299 755 330 787 q 245 683 269 725 q 205 593 222 641 q 176 496 188 546 q 158 400 165 446 q 148 315 151 354 q 144 252 144 277 q 182 106 144 154 q 300 59 220 59 q 386 75 348 59 q 454 122 423 92 q 507 194 484 152 q 548 284 530 237 q 576 381 565 332 q 595 477 588 431 q 605 562 602 524 q 608 626 608 601 z "},"1":{"ha":704,"x_min":74,"x_max":567,"o":"m 567 47 q 566 38 567 43 q 564 28 566 33 q 561 18 563 22 q 555 9 558 13 q 547 2 551 5 q 537 0 543 0 l 92 0 q 79 6 84 0 q 74 22 74 12 q 75 30 74 25 q 77 40 75 35 q 81 50 79 45 q 87 60 83 56 q 95 66 90 64 q 106 69 100 69 l 300 69 l 443 783 l 234 670 q 219 664 225 665 q 209 664 213 663 q 204 671 205 666 q 202 683 202 675 q 203 698 202 690 q 208 714 205 706 q 217 730 212 722 q 230 742 222 737 l 467 876 q 473 879 469 878 q 481 881 477 880 q 491 883 486 882 q 504 883 497 883 q 524 882 516 883 q 536 878 532 880 q 542 873 541 876 q 542 865 543 869 l 383 69 l 551 69 q 563 63 559 69 q 567 47 567 57 z "},"2":{"ha":704,"x_min":30,"x_max":644,"o":"m 561 50 q 560 40 561 46 q 557 29 559 35 q 553 18 555 24 q 546 9 550 13 q 538 2 543 5 q 527 0 533 0 l 53 0 q 42 2 47 0 q 35 7 38 3 q 31 14 33 10 q 30 24 30 18 q 31 37 30 29 q 34 53 31 44 q 43 70 37 61 q 59 88 49 79 l 296 294 q 397 391 355 346 q 469 475 440 437 q 515 547 498 514 q 542 607 532 580 q 554 656 551 634 q 557 695 557 678 q 551 734 557 713 q 532 774 546 755 q 492 805 517 792 q 427 817 467 817 q 350 805 387 817 q 284 778 313 793 q 234 751 254 764 q 208 739 214 739 q 198 745 202 739 q 194 763 194 751 q 195 773 194 768 q 196 783 195 778 q 199 793 197 788 q 204 802 201 798 q 209 810 206 806 q 216 819 212 814 q 244 838 223 825 q 295 861 265 850 q 361 881 325 872 q 437 889 398 889 q 539 870 499 889 q 602 824 579 852 q 634 765 625 797 q 644 707 644 733 q 640 651 644 680 q 625 590 636 622 q 593 521 614 557 q 538 442 572 485 q 455 350 504 399 q 338 241 406 300 l 144 74 l 541 74 q 556 66 552 74 q 561 50 561 59 z "},"3":{"ha":704,"x_min":30,"x_max":640,"o":"m 593 277 q 585 208 593 243 q 558 141 576 173 q 512 81 540 109 q 447 33 485 54 q 362 0 410 12 q 255 -12 314 -12 q 190 -7 220 -12 q 134 5 160 -3 q 86 22 108 12 q 47 44 64 33 q 34 58 38 50 q 30 74 30 66 q 30 83 30 77 q 32 95 31 88 q 34 108 33 101 q 39 120 36 115 q 45 129 41 125 q 54 132 49 132 q 76 121 59 132 q 119 96 92 110 q 182 72 146 83 q 265 60 219 60 q 373 80 328 60 q 447 130 418 100 q 491 198 477 161 q 505 271 505 235 q 494 328 505 302 q 460 373 484 354 q 401 404 437 393 q 315 415 366 415 l 215 415 q 200 421 206 415 q 195 439 195 427 q 196 449 195 444 q 198 460 197 455 q 203 470 200 465 q 209 478 205 475 q 218 484 213 482 q 229 486 222 486 l 306 486 q 404 503 359 486 q 483 550 450 520 q 535 618 516 579 q 553 702 553 657 q 524 786 553 755 q 425 817 494 817 q 348 805 385 817 q 282 778 311 792 q 233 750 253 763 q 205 738 212 738 q 196 743 199 738 q 193 757 193 747 q 194 769 193 762 q 198 786 195 777 q 204 803 200 794 q 215 817 209 811 q 243 836 222 824 q 294 860 264 848 q 362 881 325 872 q 440 889 400 889 q 527 877 490 889 q 590 842 565 865 q 628 785 615 819 q 640 711 640 752 q 624 620 640 662 q 579 545 608 577 q 511 490 550 512 q 425 458 471 467 l 425 456 q 503 435 471 452 q 555 394 535 418 q 584 339 575 370 q 593 277 593 309 z "},"4":{"ha":704,"x_min":22,"x_max":645,"o":"m 645 260 q 644 251 645 256 q 641 240 643 245 q 637 230 640 235 q 630 221 634 224 q 622 215 627 217 q 611 212 617 212 l 500 212 l 461 14 q 458 6 460 9 q 450 1 455 3 q 436 -3 444 -1 q 416 -4 428 -4 q 397 -3 404 -4 q 385 1 389 -1 q 380 6 381 3 q 380 14 378 9 l 418 212 l 41 212 q 26 218 30 212 q 22 233 22 223 q 22 242 22 237 q 23 253 22 247 q 26 264 24 258 q 31 277 28 271 q 37 289 33 283 q 45 300 41 295 l 498 863 q 508 871 502 867 q 523 877 515 875 q 543 881 532 880 q 570 882 555 882 q 597 880 585 882 q 617 877 609 879 q 628 870 625 874 q 631 861 632 866 l 515 283 l 626 283 q 641 276 637 283 q 645 260 645 270 m 537 801 l 536 801 l 121 283 l 434 283 l 537 801 z "},"5":{"ha":704,"x_min":22,"x_max":664,"o":"m 608 333 q 598 247 608 290 q 568 166 588 205 q 516 96 547 128 q 443 39 485 63 q 349 2 401 16 q 233 -12 296 -12 q 174 -7 202 -12 q 121 3 146 -3 q 76 18 97 9 q 40 34 56 26 q 26 45 30 39 q 22 62 22 52 q 22 71 22 65 q 24 82 22 76 q 27 94 25 88 q 31 105 28 100 q 38 113 34 110 q 47 116 41 116 q 67 107 54 116 q 105 88 81 98 q 162 69 128 78 q 244 60 197 60 q 366 83 314 60 q 453 143 418 106 q 505 229 488 180 q 522 330 522 277 q 512 380 522 357 q 478 422 502 404 q 417 450 455 440 q 323 460 379 460 q 239 456 272 460 q 181 452 205 452 q 157 460 163 452 q 156 493 151 469 l 225 838 q 241 867 229 857 q 271 878 254 878 l 645 878 q 659 872 654 878 q 664 855 664 867 q 663 846 664 851 q 661 834 663 840 q 657 823 659 829 q 651 813 654 818 q 642 806 647 809 q 630 804 637 804 l 294 804 l 239 526 q 284 530 263 528 q 333 532 305 532 q 462 515 410 532 q 547 472 515 499 q 594 409 580 445 q 608 333 608 372 z "},"6":{"ha":704,"x_min":81,"x_max":707,"o":"m 640 342 q 631 260 640 302 q 605 179 623 218 q 559 105 587 140 q 493 44 532 71 q 406 3 455 18 q 297 -12 357 -12 q 197 7 238 -12 q 130 57 156 25 q 92 132 104 89 q 81 227 81 176 q 84 297 81 254 q 96 392 87 340 q 121 501 105 444 q 161 612 136 557 q 220 718 186 667 q 302 805 255 768 q 409 865 349 843 q 546 888 470 888 q 621 881 587 888 q 679 865 655 875 q 701 852 695 859 q 707 833 707 845 q 706 824 707 829 q 705 813 706 819 q 702 804 704 808 q 697 795 700 799 q 691 789 695 791 q 683 787 688 787 q 665 792 676 787 q 636 803 654 797 q 593 814 618 809 q 533 819 568 819 q 410 790 465 819 q 314 714 355 762 q 244 605 273 667 q 199 475 215 543 q 296 514 241 497 q 420 530 351 530 q 520 516 479 530 q 589 477 562 502 q 628 417 616 452 q 640 342 640 382 m 553 334 q 545 387 553 363 q 519 427 537 410 q 473 453 502 444 q 404 463 444 463 q 345 458 375 463 q 287 444 315 453 q 232 424 258 435 q 184 399 206 412 q 170 309 174 350 q 166 235 166 269 q 204 100 166 142 q 313 59 241 59 q 387 71 353 59 q 447 103 420 83 q 493 151 473 123 q 527 209 513 178 q 547 272 540 239 q 553 334 553 304 z "},"7":{"ha":704,"x_min":135,"x_max":741,"o":"m 741 855 q 739 839 741 848 q 735 821 738 830 q 729 801 733 811 q 718 782 724 791 l 235 22 q 224 8 230 14 q 212 1 219 3 q 196 -3 205 -2 q 174 -4 186 -4 q 150 -2 158 -4 q 138 4 141 0 q 137 14 135 8 q 143 26 138 19 l 642 804 l 195 804 q 181 810 185 804 q 176 826 176 817 q 177 835 176 829 q 179 846 178 840 q 183 858 181 852 q 190 868 186 863 q 198 875 193 872 q 210 878 203 878 l 715 878 q 737 870 733 878 q 741 855 741 863 z "},"8":{"ha":704,"x_min":38,"x_max":682,"o":"m 621 250 q 612 183 621 216 q 585 121 604 151 q 539 68 567 92 q 475 26 512 43 q 390 -2 437 8 q 286 -12 343 -12 q 174 2 221 -12 q 97 40 127 16 q 53 95 67 64 q 38 162 38 127 q 55 250 38 210 q 105 327 72 291 q 189 394 139 362 q 303 454 238 425 q 199 538 231 492 q 168 642 168 583 q 175 703 168 673 q 199 761 183 733 q 238 811 214 788 q 295 852 262 835 q 369 879 328 869 q 463 889 411 889 q 571 873 528 889 q 638 832 613 857 q 672 779 663 808 q 682 726 682 751 q 666 642 682 681 q 620 570 650 604 q 548 509 591 537 q 452 455 505 480 q 529 408 497 431 q 582 359 562 384 q 612 307 602 334 q 621 250 621 280 m 596 717 q 589 754 596 736 q 565 788 582 773 q 521 811 549 802 q 454 820 494 820 q 363 805 401 820 q 300 766 325 789 q 264 712 276 742 q 253 654 253 682 q 258 609 253 629 q 276 571 262 589 q 316 534 290 553 q 385 492 342 515 q 473 538 434 514 q 540 591 513 563 q 582 650 567 619 q 596 717 596 682 m 534 241 q 526 287 534 266 q 497 330 517 309 q 446 372 477 351 q 371 416 415 393 q 252 356 299 385 q 176 298 204 327 q 136 239 148 269 q 125 175 125 209 q 133 131 125 152 q 162 93 142 109 q 215 67 182 77 q 299 58 249 58 q 405 74 361 58 q 478 115 450 90 q 521 174 507 141 q 534 241 534 207 z "},"9":{"ha":704,"x_min":29,"x_max":673,"o":"m 113 536 q 122 618 113 576 q 149 699 131 660 q 194 772 167 738 q 260 833 222 807 q 347 874 298 859 q 456 889 396 889 q 556 871 515 889 q 624 821 597 852 q 661 745 650 789 q 673 651 673 702 q 670 580 673 623 q 658 485 667 537 q 633 376 649 433 q 593 264 618 319 q 532 159 568 209 q 448 71 496 109 q 336 11 399 33 q 194 -12 273 -12 q 155 -9 174 -12 q 117 -4 135 -7 q 84 4 100 -1 q 56 13 68 8 q 35 26 41 20 q 29 44 29 33 q 30 54 29 48 q 31 64 30 59 q 34 74 32 69 q 38 82 36 79 q 44 88 41 86 q 53 90 48 90 q 72 85 60 90 q 103 75 84 81 q 148 64 121 68 q 208 59 174 59 q 337 87 281 59 q 435 162 393 115 q 506 271 477 209 q 553 402 535 334 q 456 364 511 380 q 333 347 402 347 q 232 361 274 347 q 164 401 191 376 q 125 460 138 426 q 113 536 113 495 m 200 543 q 208 491 200 515 q 234 450 216 467 q 280 424 252 433 q 349 415 309 415 q 408 420 378 415 q 466 433 437 425 q 520 454 494 442 q 568 479 546 465 q 583 569 578 528 q 587 642 587 610 q 550 778 587 736 q 440 820 512 820 q 367 808 400 820 q 307 775 333 796 q 260 727 280 755 q 227 669 240 700 q 207 606 214 638 q 200 543 200 574 z "},"\u0000":{"ha":0,"x_min":0,"x_max":0,"o":""},"\r":{"ha":0,"x_min":0,"x_max":0,"o":""}," ":{"ha":314,"x_min":0,"x_max":0,"o":"m 0 0 q 0 0 0 0 q 0 0 0 0 z "},"A":{"ha":783,"x_min":-33,"x_max":696,"o":"m 694 28 q 694 11 696 18 q 688 1 693 5 q 673 -3 683 -2 q 649 -4 664 -4 q 632 -3 640 -4 q 620 0 624 -2 q 613 5 615 2 q 610 14 611 9 l 573 248 l 188 248 l 60 14 q 54 5 58 9 q 45 0 51 2 q 30 -3 39 -2 q 9 -4 21 -4 q -15 -3 -5 -4 q -29 2 -24 -1 q -33 12 -33 5 q -26 28 -32 18 l 448 863 q 456 872 451 868 q 467 878 460 876 q 483 881 474 880 q 504 882 492 882 q 525 881 516 882 q 540 878 534 880 q 550 872 547 876 q 553 863 553 868 l 694 28 m 486 789 l 486 789 l 226 317 l 562 317 l 486 789 z "},"À":{"ha":783,"x_min":-33,"x_max":696,"o":"m 694 28 q 694 11 696 18 q 688 1 693 5 q 673 -3 683 -2 q 649 -4 664 -4 q 632 -3 640 -4 q 620 0 624 -2 q 613 5 615 2 q 610 14 611 9 l 573 248 l 188 248 l 60 14 q 54 5 58 9 q 45 0 51 2 q 30 -3 39 -2 q 9 -4 21 -4 q -15 -3 -5 -4 q -29 2 -24 -1 q -33 12 -33 5 q -26 28 -32 18 l 448 863 q 456 872 451 868 q 467 878 460 876 q 483 881 474 880 q 504 882 492 882 q 525 881 516 882 q 540 878 534 880 q 550 872 547 876 q 553 863 553 868 l 694 28 m 486 789 l 486 789 l 226 317 l 562 317 l 486 789 m 549 975 q 556 964 555 968 q 555 956 558 959 q 546 951 553 953 q 528 949 539 949 q 511 950 518 949 q 499 953 505 951 q 488 959 493 955 q 475 969 482 962 l 327 1118 q 321 1128 321 1123 q 324 1137 320 1133 q 337 1143 328 1141 q 361 1145 347 1145 q 382 1145 373 1145 q 399 1142 391 1144 q 413 1135 407 1139 q 425 1123 419 1131 l 549 975 m 71 878 z "},"Á":{"ha":783,"x_min":-33,"x_max":734,"o":"m 694 28 q 694 11 696 18 q 688 1 693 5 q 673 -3 683 -2 q 649 -4 664 -4 q 632 -3 640 -4 q 620 0 624 -2 q 613 5 615 2 q 610 14 611 9 l 573 248 l 188 248 l 60 14 q 54 5 58 9 q 45 0 51 2 q 30 -3 39 -2 q 9 -4 21 -4 q -15 -3 -5 -4 q -29 2 -24 -1 q -33 12 -33 5 q -26 28 -32 18 l 448 863 q 456 872 451 868 q 467 878 460 876 q 483 881 474 880 q 504 882 492 882 q 525 881 516 882 q 540 878 534 880 q 550 872 547 876 q 553 863 553 868 l 694 28 m 486 789 l 486 789 l 226 317 l 562 317 l 486 789 m 566 969 q 553 959 558 962 q 541 953 547 955 q 528 950 535 951 q 511 949 521 949 q 484 956 488 949 q 492 975 480 962 l 629 1123 q 642 1135 635 1131 q 657 1142 649 1139 q 674 1145 665 1144 q 695 1145 683 1145 q 719 1143 710 1145 q 731 1137 727 1141 q 733 1128 734 1133 q 726 1118 732 1123 l 566 969 m 240 878 z "},"Â":{"ha":783,"x_min":-33,"x_max":732,"o":"m 694 28 q 694 11 696 18 q 688 1 693 5 q 673 -3 683 -2 q 649 -4 664 -4 q 632 -3 640 -4 q 620 0 624 -2 q 613 5 615 2 q 610 14 611 9 l 573 248 l 188 248 l 60 14 q 54 5 58 9 q 45 0 51 2 q 30 -3 39 -2 q 9 -4 21 -4 q -15 -3 -5 -4 q -29 2 -24 -1 q -33 12 -33 5 q -26 28 -32 18 l 448 863 q 456 872 451 868 q 467 878 460 876 q 483 881 474 880 q 504 882 492 882 q 525 881 516 882 q 540 878 534 880 q 550 872 547 876 q 553 863 553 868 l 694 28 m 486 789 l 486 789 l 226 317 l 562 317 l 486 789 m 728 972 q 731 962 732 966 q 727 955 731 958 q 716 951 723 952 q 699 949 709 949 q 675 950 684 949 q 661 953 666 951 q 653 957 656 954 q 648 962 650 959 l 557 1091 l 410 966 q 397 957 404 960 q 384 952 391 954 q 366 950 376 950 q 342 949 356 949 q 322 951 330 949 q 313 956 315 953 q 314 962 311 958 q 323 972 317 966 l 517 1131 q 527 1137 522 1135 q 537 1142 532 1140 q 549 1145 542 1144 q 565 1145 555 1145 q 582 1145 575 1145 q 593 1142 588 1144 q 601 1137 597 1140 q 608 1131 604 1135 l 728 972 m 83 878 z "},"Ã":{"ha":783,"x_min":-33,"x_max":766,"o":"m 694 28 q 694 11 696 18 q 688 1 693 5 q 673 -3 683 -2 q 649 -4 664 -4 q 632 -3 640 -4 q 620 0 624 -2 q 613 5 615 2 q 610 14 611 9 l 573 248 l 188 248 l 60 14 q 54 5 58 9 q 45 0 51 2 q 30 -3 39 -2 q 9 -4 21 -4 q -15 -3 -5 -4 q -29 2 -24 -1 q -33 12 -33 5 q -26 28 -32 18 l 448 863 q 456 872 451 868 q 467 878 460 876 q 483 881 474 880 q 504 882 492 882 q 525 881 516 882 q 540 878 534 880 q 550 872 547 876 q 553 863 553 868 l 694 28 m 486 789 l 486 789 l 226 317 l 562 317 l 486 789 m 698 1086 q 701 1093 699 1090 q 708 1097 703 1095 q 720 1099 713 1099 q 735 1100 726 1100 q 760 1096 755 1100 q 766 1084 766 1091 q 765 1070 766 1081 q 759 1044 764 1059 q 746 1013 755 1029 q 723 982 738 996 q 685 959 708 968 q 630 949 663 949 q 570 962 595 949 q 524 991 545 975 q 483 1019 503 1006 q 440 1032 463 1032 q 393 1013 408 1032 q 376 963 379 994 q 373 957 375 960 q 366 953 370 955 q 355 950 361 951 q 339 949 348 949 q 314 953 320 949 q 308 966 308 957 q 310 987 308 974 q 318 1016 312 1001 q 333 1046 323 1031 q 358 1073 343 1061 q 395 1093 374 1085 q 445 1100 416 1100 q 505 1087 479 1100 q 550 1059 530 1074 q 591 1030 571 1043 q 633 1017 610 1017 q 677 1033 660 1017 q 698 1086 694 1048 m 75 878 z "},"Ä":{"ha":783,"x_min":-33,"x_max":728,"o":"m 694 28 q 694 11 696 18 q 688 1 693 5 q 673 -3 683 -2 q 649 -4 664 -4 q 632 -3 640 -4 q 620 0 624 -2 q 613 5 615 2 q 610 14 611 9 l 573 248 l 188 248 l 60 14 q 54 5 58 9 q 45 0 51 2 q 30 -3 39 -2 q 9 -4 21 -4 q -15 -3 -5 -4 q -29 2 -24 -1 q -33 12 -33 5 q -26 28 -32 18 l 448 863 q 456 872 451 868 q 467 878 460 876 q 483 881 474 880 q 504 882 492 882 q 525 881 516 882 q 540 878 534 880 q 550 872 547 876 q 553 863 553 868 l 694 28 m 486 789 l 486 789 l 226 317 l 562 317 l 486 789 m 726 1035 q 719 1009 723 1019 q 708 991 715 998 q 690 982 701 985 q 664 979 680 979 q 639 982 648 979 q 624 991 629 985 q 618 1009 619 998 q 620 1035 618 1019 q 626 1061 622 1050 q 636 1078 629 1072 q 654 1087 644 1084 q 680 1090 665 1090 q 705 1087 696 1090 q 720 1078 715 1084 q 726 1061 725 1072 q 726 1035 728 1050 m 454 1035 q 448 1009 452 1019 q 436 991 444 998 q 418 982 429 985 q 392 979 408 979 q 367 982 376 979 q 352 991 357 985 q 347 1009 347 998 q 349 1035 346 1019 q 354 1061 351 1050 q 365 1078 358 1072 q 382 1087 372 1084 q 409 1090 393 1090 q 434 1087 425 1090 q 449 1078 444 1084 q 455 1061 454 1072 q 454 1035 456 1050 m 103 878 z "},"Ā":{"ha":783,"x_min":-33,"x_max":736,"o":"m 694 28 q 694 11 696 18 q 688 1 693 5 q 673 -3 683 -2 q 649 -4 664 -4 q 632 -3 640 -4 q 620 0 624 -2 q 613 5 615 2 q 610 14 611 9 l 573 248 l 188 248 l 60 14 q 54 5 58 9 q 45 0 51 2 q 30 -3 39 -2 q 9 -4 21 -4 q -15 -3 -5 -4 q -29 2 -24 -1 q -33 12 -33 5 q -26 28 -32 18 l 448 863 q 456 872 451 868 q 467 878 460 876 q 483 881 474 880 q 504 882 492 882 q 525 881 516 882 q 540 878 534 880 q 550 872 547 876 q 553 863 553 868 l 694 28 m 486 789 l 486 789 l 226 317 l 562 317 l 486 789 m 736 1051 q 735 1041 736 1046 q 733 1029 734 1035 q 729 1018 731 1023 q 723 1008 726 1012 q 717 1001 720 1004 q 709 998 713 998 l 356 998 q 346 1002 349 998 q 342 1017 342 1006 q 343 1026 342 1021 q 345 1037 344 1031 q 348 1049 346 1043 q 354 1059 351 1055 q 361 1066 357 1063 q 370 1069 365 1069 l 724 1069 q 733 1064 730 1069 q 736 1051 736 1059 m 100 878 z "},"Ă":{"ha":783,"x_min":-33,"x_max":720,"o":"m 694 28 q 694 11 696 18 q 688 1 693 5 q 673 -3 683 -2 q 649 -4 664 -4 q 632 -3 640 -4 q 620 0 624 -2 q 613 5 615 2 q 610 14 611 9 l 573 248 l 188 248 l 60 14 q 54 5 58 9 q 45 0 51 2 q 30 -3 39 -2 q 9 -4 21 -4 q -15 -3 -5 -4 q -29 2 -24 -1 q -33 12 -33 5 q -26 28 -32 18 l 448 863 q 456 872 451 868 q 467 878 460 876 q 483 881 474 880 q 504 882 492 882 q 525 881 516 882 q 540 878 534 880 q 550 872 547 876 q 553 863 553 868 l 694 28 m 486 789 l 486 789 l 226 317 l 562 317 l 486 789 m 720 1133 q 716 1108 720 1125 q 705 1072 713 1092 q 683 1030 696 1051 q 647 990 669 1008 q 596 961 626 972 q 526 949 566 949 q 459 960 486 949 q 417 987 433 970 q 394 1027 401 1004 q 387 1075 387 1050 q 388 1091 387 1081 q 391 1110 389 1101 q 394 1128 392 1120 q 399 1138 397 1136 q 412 1144 404 1143 q 429 1145 420 1145 q 443 1145 437 1145 q 452 1142 449 1144 q 457 1138 456 1141 q 459 1133 459 1136 q 458 1115 459 1124 q 456 1094 456 1105 q 460 1063 456 1077 q 471 1038 463 1048 q 494 1023 479 1028 q 531 1017 509 1017 q 570 1023 551 1017 q 606 1042 589 1029 q 634 1076 622 1055 q 655 1129 647 1097 q 658 1136 656 1133 q 665 1141 661 1139 q 676 1144 669 1143 q 692 1145 682 1145 q 707 1144 701 1145 q 715 1142 712 1143 q 719 1138 718 1141 q 720 1133 720 1135 m 131 878 z "},"Å":{"ha":783,"x_min":-33,"x_max":696,"o":"m 694 28 q 694 11 696 18 q 688 1 693 5 q 673 -3 683 -2 q 649 -4 664 -4 q 632 -3 640 -4 q 620 0 624 -2 q 613 5 615 2 q 610 14 611 9 l 573 248 l 188 248 l 60 14 q 54 5 58 9 q 45 0 51 2 q 30 -3 39 -2 q 9 -4 21 -4 q -15 -3 -5 -4 q -29 2 -24 -1 q -33 12 -33 5 q -26 28 -32 18 l 448 863 q 456 872 451 868 q 467 878 460 876 q 483 881 474 880 q 504 882 492 882 q 525 881 516 882 q 540 878 534 880 q 550 872 547 876 q 553 863 553 868 l 694 28 m 486 789 l 486 789 l 226 317 l 562 317 l 486 789 m 661 1060 q 650 1005 661 1029 q 620 962 639 980 q 575 934 601 944 q 522 924 550 924 q 471 934 492 924 q 436 958 450 943 q 416 992 422 973 q 410 1031 410 1011 q 415 1069 410 1051 q 429 1102 420 1087 q 451 1130 438 1118 q 479 1151 463 1142 q 512 1163 494 1159 q 549 1168 530 1168 q 600 1158 579 1168 q 635 1133 621 1149 q 655 1098 648 1118 q 661 1060 661 1079 m 601 1054 q 598 1076 601 1065 q 588 1096 595 1087 q 570 1111 581 1105 q 542 1116 558 1116 q 512 1111 526 1116 q 489 1094 498 1105 q 475 1069 480 1084 q 470 1038 470 1055 q 473 1015 470 1026 q 483 995 476 1004 q 501 981 490 987 q 529 976 513 976 q 559 982 545 976 q 582 998 572 987 q 596 1022 591 1008 q 601 1054 601 1036 m 162 878 z "},"Ǻ":{"ha":783,"x_min":-33,"x_max":715,"o":"m 694 28 q 694 11 696 18 q 688 1 693 5 q 673 -3 683 -2 q 649 -4 664 -4 q 632 -3 640 -4 q 620 0 624 -2 q 613 5 615 2 q 610 14 611 9 l 573 248 l 188 248 l 60 14 q 54 5 58 9 q 45 0 51 2 q 30 -3 39 -2 q 9 -4 21 -4 q -15 -3 -5 -4 q -29 2 -24 -1 q -33 12 -33 5 q -26 28 -32 18 l 448 863 q 456 872 451 868 q 467 878 460 876 q 483 881 474 880 q 504 882 492 882 q 525 881 516 882 q 540 878 534 880 q 550 872 547 876 q 553 863 553 868 l 694 28 m 486 789 l 486 789 l 226 317 l 562 317 l 486 789 m 568 1183 q 555 1173 561 1177 q 545 1167 550 1169 q 532 1164 539 1165 q 515 1163 526 1163 q 497 1165 504 1163 q 489 1170 491 1166 q 489 1178 487 1173 q 496 1188 491 1183 l 612 1300 q 625 1311 618 1307 q 640 1318 632 1316 q 656 1322 647 1321 q 678 1322 666 1322 q 701 1320 692 1322 q 712 1314 709 1318 q 714 1304 715 1310 q 706 1295 712 1299 l 568 1183 m 644 1038 q 634 989 644 1012 q 608 951 625 967 q 569 925 592 935 q 520 916 547 916 q 468 924 490 916 q 432 946 446 932 q 411 979 418 960 q 404 1020 404 998 q 412 1067 404 1045 q 438 1104 421 1088 q 478 1129 454 1120 q 530 1138 501 1138 q 579 1130 557 1138 q 614 1108 600 1122 q 636 1076 629 1095 q 644 1038 644 1058 m 587 1029 q 584 1050 587 1040 q 573 1070 581 1061 q 554 1084 566 1079 q 526 1090 543 1090 q 477 1072 494 1090 q 460 1025 460 1053 q 463 1001 460 1013 q 473 982 466 990 q 492 968 480 973 q 522 963 504 963 q 570 983 553 963 q 587 1029 587 1002 m 170 878 z "},"Ą":{"ha":783,"x_min":-33,"x_max":693,"o":"m 671 -193 q 671 -201 671 -196 q 669 -213 670 -207 q 665 -223 667 -218 q 661 -230 663 -228 q 648 -236 657 -233 q 627 -242 640 -239 q 601 -246 615 -245 q 573 -248 587 -248 q 521 -242 543 -248 q 483 -227 498 -237 q 460 -202 468 -217 q 452 -168 452 -187 q 457 -138 452 -153 q 473 -107 463 -123 q 500 -75 484 -92 q 539 -40 517 -58 l 610 18 l 573 248 l 188 248 l 60 14 q 54 5 58 9 q 45 0 51 2 q 30 -3 39 -2 q 9 -4 21 -4 q -15 -3 -5 -4 q -29 2 -24 -1 q -33 12 -33 5 q -26 28 -32 18 l 448 863 q 456 872 451 868 q 467 878 460 876 q 483 881 474 880 q 504 882 492 882 q 525 881 516 882 q 540 878 534 880 q 549 872 546 876 q 553 863 552 869 l 690 52 q 693 31 692 39 q 691 14 693 22 q 683 0 688 7 q 669 -13 677 -6 l 597 -72 q 566 -101 577 -89 q 547 -123 554 -114 q 538 -139 541 -132 q 536 -152 536 -146 q 546 -173 536 -164 q 579 -181 555 -181 l 659 -181 q 669 -184 666 -181 q 671 -193 671 -187 m 487 789 l 486 789 l 226 317 l 562 317 l 487 789 z "},"Æ":{"ha":1051,"x_min":-98,"x_max":1070,"o":"m 916 54 q 915 45 916 50 q 913 33 914 39 q 909 21 911 27 q 904 11 907 16 q 896 3 901 6 q 886 0 892 0 l 479 0 q 466 2 473 0 q 455 9 460 4 q 449 22 451 14 q 449 43 447 31 l 486 228 l 163 228 l 3 14 q -6 5 -1 9 q -17 0 -10 2 q -34 -3 -24 -2 q -58 -4 -43 -4 q -81 -3 -72 -4 q -94 2 -90 -1 q -96 12 -98 5 q -87 28 -94 18 l 548 859 q 558 868 553 865 q 572 874 564 872 q 589 877 579 876 q 610 878 598 878 l 1055 878 q 1070 857 1070 878 q 1069 847 1070 852 q 1068 836 1069 842 q 1064 824 1067 830 q 1059 814 1062 819 q 1050 806 1055 809 q 1040 804 1046 804 l 684 804 l 623 494 l 929 494 q 940 489 937 494 q 944 474 944 484 q 943 464 944 469 q 941 452 943 458 q 938 440 940 446 q 932 430 936 435 q 925 422 929 425 q 914 420 920 420 l 607 420 l 538 74 l 900 74 q 911 68 907 74 q 916 54 916 62 m 601 804 l 599 804 l 216 297 l 500 297 l 601 804 z "},"Ǽ":{"ha":1051,"x_min":-98,"x_max":1070,"o":"m 916 54 q 915 45 916 50 q 913 33 914 39 q 909 21 911 27 q 904 11 907 16 q 896 3 901 6 q 886 0 892 0 l 479 0 q 466 2 473 0 q 455 9 460 4 q 449 22 451 14 q 449 43 447 31 l 486 228 l 163 228 l 3 14 q -6 5 -1 9 q -17 0 -10 2 q -34 -3 -24 -2 q -58 -4 -43 -4 q -81 -3 -72 -4 q -94 2 -90 -1 q -96 12 -98 5 q -87 28 -94 18 l 548 859 q 558 868 553 865 q 572 874 564 872 q 589 877 579 876 q 610 878 598 878 l 1055 878 q 1070 857 1070 878 q 1069 847 1070 852 q 1068 836 1069 842 q 1064 824 1067 830 q 1059 814 1062 819 q 1050 806 1055 809 q 1040 804 1046 804 l 684 804 l 623 494 l 929 494 q 940 489 937 494 q 944 474 944 484 q 943 464 944 469 q 941 452 943 458 q 938 440 940 446 q 932 430 936 435 q 925 422 929 425 q 914 420 920 420 l 607 420 l 538 74 l 900 74 q 911 68 907 74 q 916 54 916 62 m 601 804 l 599 804 l 216 297 l 500 297 l 601 804 m 770 969 q 758 959 763 962 q 746 953 752 955 q 733 950 740 951 q 715 949 726 949 q 689 956 692 949 q 696 975 685 962 l 833 1123 q 847 1135 840 1131 q 862 1142 854 1139 q 879 1145 869 1144 q 900 1145 888 1145 q 923 1143 915 1145 q 936 1137 932 1141 q 938 1128 939 1133 q 931 1118 937 1123 l 770 969 m 445 878 z "},"B":{"ha":743,"x_min":68,"x_max":692,"o":"m 692 711 q 681 631 692 669 q 650 562 670 593 q 600 505 629 530 q 533 464 570 480 q 586 444 562 458 q 628 408 610 429 q 655 357 646 386 q 665 293 665 328 q 655 217 665 254 q 626 148 645 180 q 578 88 606 115 q 514 41 550 61 q 435 11 478 22 q 335 0 391 0 l 108 0 q 78 10 88 0 q 73 43 68 20 l 231 835 q 252 868 236 859 q 283 878 267 878 l 458 878 q 567 866 524 878 q 637 833 610 854 q 679 780 665 811 q 692 711 692 749 m 601 696 q 593 741 601 721 q 567 774 585 760 q 520 796 549 788 q 446 804 492 804 l 308 804 l 245 489 l 395 489 q 492 509 454 489 q 554 559 530 528 q 589 626 578 589 q 601 696 601 663 m 576 286 q 532 382 576 349 q 397 416 488 416 l 230 416 l 162 74 l 347 74 q 447 91 406 74 q 517 137 488 109 q 561 204 545 166 q 576 286 576 243 z "},"C":{"ha":729,"x_min":85,"x_max":777,"o":"m 777 786 q 772 758 777 773 q 762 735 768 743 q 748 727 755 727 q 725 740 739 727 q 689 769 712 753 q 630 798 667 785 q 539 811 594 811 q 429 789 479 811 q 338 728 378 766 q 267 641 298 690 q 216 535 237 591 q 186 424 196 480 q 176 315 176 367 q 190 211 176 257 q 232 133 205 165 q 300 84 260 101 q 391 68 340 68 q 486 81 446 68 q 556 109 527 94 q 605 138 586 125 q 636 151 625 151 q 646 146 643 151 q 650 131 650 141 q 649 123 650 127 q 647 113 648 118 q 645 102 646 108 q 642 91 644 96 q 637 81 640 85 q 627 70 634 76 q 597 49 621 63 q 540 22 574 35 q 465 0 507 9 q 376 -9 422 -9 q 256 12 309 -9 q 164 74 202 33 q 106 174 127 115 q 85 311 85 234 q 99 444 85 376 q 139 576 113 512 q 205 696 166 640 q 296 795 245 753 q 412 862 348 838 q 551 886 475 886 q 644 874 601 886 q 718 845 688 863 q 762 815 748 828 q 777 786 777 802 z "},"Ć":{"ha":729,"x_min":85,"x_max":777,"o":"m 777 786 q 772 758 777 773 q 762 735 768 743 q 748 727 755 727 q 725 740 739 727 q 689 769 712 753 q 630 798 667 785 q 539 811 594 811 q 429 789 479 811 q 338 728 378 766 q 267 641 298 690 q 216 535 237 591 q 186 424 196 480 q 176 315 176 367 q 190 211 176 257 q 232 133 205 165 q 300 84 260 101 q 391 68 340 68 q 486 81 446 68 q 556 109 527 94 q 605 138 586 125 q 636 151 625 151 q 646 146 643 151 q 650 131 650 141 q 649 123 650 127 q 647 113 648 118 q 645 102 646 108 q 642 91 644 96 q 637 81 640 85 q 627 70 634 76 q 597 49 621 63 q 540 22 574 35 q 465 0 507 9 q 376 -9 422 -9 q 256 12 309 -9 q 164 74 202 33 q 106 174 127 115 q 85 311 85 234 q 99 444 85 376 q 139 576 113 512 q 205 696 166 640 q 296 795 245 753 q 412 862 348 838 q 551 886 475 886 q 644 874 601 886 q 718 845 688 863 q 762 815 748 828 q 777 786 777 802 m 598 969 q 585 959 591 962 q 574 953 580 955 q 561 950 568 951 q 543 949 553 949 q 516 956 520 949 q 524 975 513 962 l 661 1123 q 675 1135 668 1131 q 689 1142 682 1139 q 706 1145 697 1144 q 728 1145 715 1145 q 751 1143 743 1145 q 763 1137 760 1141 q 766 1128 767 1133 q 759 1118 764 1123 l 598 969 m 273 878 z "},"Ĉ":{"ha":729,"x_min":85,"x_max":777,"o":"m 777 786 q 772 758 777 773 q 762 735 768 743 q 748 727 755 727 q 725 740 739 727 q 689 769 712 753 q 630 798 667 785 q 539 811 594 811 q 429 789 479 811 q 338 728 378 766 q 267 641 298 690 q 216 535 237 591 q 186 424 196 480 q 176 315 176 367 q 190 211 176 257 q 232 133 205 165 q 300 84 260 101 q 391 68 340 68 q 486 81 446 68 q 556 109 527 94 q 605 138 586 125 q 636 151 625 151 q 646 146 643 151 q 650 131 650 141 q 649 123 650 127 q 647 113 648 118 q 645 102 646 108 q 642 91 644 96 q 637 81 640 85 q 627 70 634 76 q 597 49 621 63 q 540 22 574 35 q 465 0 507 9 q 376 -9 422 -9 q 256 12 309 -9 q 164 74 202 33 q 106 174 127 115 q 85 311 85 234 q 99 444 85 376 q 139 576 113 512 q 205 696 166 640 q 296 795 245 753 q 412 862 348 838 q 551 886 475 886 q 644 874 601 886 q 718 845 688 863 q 762 815 748 828 q 777 786 777 802 m 763 972 q 766 962 766 966 q 762 955 766 958 q 751 951 758 952 q 734 949 744 949 q 709 950 718 949 q 695 953 701 951 q 688 957 690 954 q 682 962 685 959 l 592 1091 l 445 966 q 432 957 438 960 q 418 952 426 954 q 400 950 410 950 q 377 949 391 949 q 357 951 364 949 q 348 956 350 953 q 349 962 346 958 q 358 972 351 966 l 552 1131 q 562 1137 557 1135 q 571 1142 566 1140 q 583 1145 576 1144 q 600 1145 590 1145 q 616 1145 610 1145 q 627 1142 623 1144 q 635 1137 632 1140 q 642 1131 639 1135 l 763 972 m 118 878 z "},"Č":{"ha":729,"x_min":85,"x_max":814,"o":"m 777 786 q 772 758 777 773 q 762 735 768 743 q 748 727 755 727 q 725 740 739 727 q 689 769 712 753 q 630 798 667 785 q 539 811 594 811 q 429 789 479 811 q 338 728 378 766 q 267 641 298 690 q 216 535 237 591 q 186 424 196 480 q 176 315 176 367 q 190 211 176 257 q 232 133 205 165 q 300 84 260 101 q 391 68 340 68 q 486 81 446 68 q 556 109 527 94 q 605 138 586 125 q 636 151 625 151 q 646 146 643 151 q 650 131 650 141 q 649 123 650 127 q 647 113 648 118 q 645 102 646 108 q 642 91 644 96 q 637 81 640 85 q 627 70 634 76 q 597 49 621 63 q 540 22 574 35 q 465 0 507 9 q 376 -9 422 -9 q 256 12 309 -9 q 164 74 202 33 q 106 174 127 115 q 85 311 85 234 q 99 444 85 376 q 139 576 113 512 q 205 696 166 640 q 296 795 245 753 q 412 862 348 838 q 551 886 475 886 q 644 874 601 886 q 718 845 688 863 q 762 815 748 828 q 777 786 777 802 m 609 964 q 600 958 604 960 q 589 953 595 955 q 577 950 584 951 q 561 949 570 949 q 544 950 551 949 q 533 952 538 951 q 525 957 528 954 q 518 964 522 960 l 399 1123 q 395 1133 395 1128 q 398 1140 395 1137 q 409 1144 402 1143 q 427 1145 416 1145 q 451 1144 442 1145 q 465 1142 460 1143 q 472 1138 469 1141 q 477 1133 474 1135 l 568 1003 l 715 1129 q 728 1137 722 1134 q 742 1142 734 1141 q 760 1145 749 1144 q 783 1145 770 1145 q 803 1144 796 1145 q 812 1139 810 1142 q 812 1132 814 1137 q 804 1123 810 1128 l 609 964 m 131 878 z "},"Ċ":{"ha":729,"x_min":85,"x_max":777,"o":"m 777 786 q 772 758 777 773 q 762 735 768 743 q 748 727 755 727 q 725 740 739 727 q 689 769 712 753 q 630 798 667 785 q 539 811 594 811 q 429 789 479 811 q 338 728 378 766 q 267 641 298 690 q 216 535 237 591 q 186 424 196 480 q 176 315 176 367 q 190 211 176 257 q 232 133 205 165 q 300 84 260 101 q 391 68 340 68 q 486 81 446 68 q 556 109 527 94 q 605 138 586 125 q 636 151 625 151 q 646 146 643 151 q 650 131 650 141 q 649 123 650 127 q 647 113 648 118 q 645 102 646 108 q 642 91 644 96 q 637 81 640 85 q 627 70 634 76 q 597 49 621 63 q 540 22 574 35 q 465 0 507 9 q 376 -9 422 -9 q 256 12 309 -9 q 164 74 202 33 q 106 174 127 115 q 85 311 85 234 q 99 444 85 376 q 139 576 113 512 q 205 696 166 640 q 296 795 245 753 q 412 862 348 838 q 551 886 475 886 q 644 874 601 886 q 718 845 688 863 q 762 815 748 828 q 777 786 777 802 m 533 1035 q 541 1060 536 1049 q 553 1077 545 1070 q 572 1087 561 1084 q 597 1090 583 1090 q 621 1087 612 1090 q 635 1077 631 1084 q 641 1060 640 1070 q 638 1035 641 1049 q 630 1009 635 1020 q 618 992 625 999 q 600 982 610 985 q 574 979 589 979 q 550 982 559 979 q 536 992 541 985 q 531 1009 532 999 q 533 1035 530 1020 m 289 878 z "},"Ç":{"ha":729,"x_min":85,"x_max":777,"o":"m 323 -5 q 183 56 235 9 q 109 168 132 102 q 85 311 85 233 q 99 444 85 376 q 139 576 113 512 q 205 696 166 640 q 296 795 245 753 q 412 862 348 838 q 551 886 475 886 q 644 874 601 886 q 718 845 688 863 q 762 815 748 828 q 777 786 777 802 q 772 758 777 773 q 762 735 768 743 q 748 727 755 727 q 725 740 739 727 q 689 769 712 753 q 630 798 667 785 q 539 811 594 811 q 429 789 479 811 q 338 728 378 766 q 267 641 298 690 q 216 535 237 591 q 186 424 196 480 q 176 315 176 367 q 190 211 176 257 q 232 133 205 165 q 300 84 260 101 q 391 68 340 68 q 486 81 446 68 q 556 109 527 94 q 606 138 586 125 q 636 151 626 151 q 646 146 643 151 q 650 131 650 141 q 649 123 650 127 q 647 113 648 118 q 645 102 646 108 q 642 91 644 96 q 637 81 640 85 q 627 70 634 76 q 594 47 621 63 q 514 14 567 31 q 397 -8 460 -4 l 409 -53 q 419 -95 416 -79 q 422 -125 422 -112 q 413 -180 422 -157 q 385 -218 403 -203 q 341 -240 367 -233 q 282 -248 315 -248 q 249 -246 266 -248 q 218 -242 232 -245 q 195 -237 204 -240 q 182 -233 185 -235 q 180 -228 181 -231 q 179 -221 179 -225 q 180 -207 179 -214 q 184 -194 182 -200 q 192 -185 187 -189 q 203 -181 196 -181 l 290 -181 q 312 -178 301 -181 q 331 -170 323 -176 q 345 -153 340 -163 q 350 -128 350 -143 q 348 -110 350 -121 q 344 -85 347 -98 l 323 -5 z "},"D":{"ha":843,"x_min":71,"x_max":810,"o":"m 810 562 q 803 467 810 516 q 783 370 797 418 q 747 276 769 322 q 695 189 726 230 q 626 113 665 147 q 537 53 587 78 q 428 14 488 28 q 284 0 368 0 l 104 0 q 90 2 97 0 q 79 9 83 4 q 72 22 74 14 q 73 43 71 31 l 231 835 q 251 868 236 859 q 283 878 265 878 l 453 878 q 617 856 553 878 q 724 792 682 833 q 788 693 767 751 q 810 562 810 635 m 722 558 q 706 657 722 612 q 659 734 691 702 q 577 785 627 767 q 446 804 528 804 l 308 804 l 162 74 l 298 74 q 447 95 387 74 q 552 153 507 117 q 630 238 597 190 q 682 340 662 287 q 712 450 703 394 q 722 558 722 506 z "},"Ď":{"ha":843,"x_min":65,"x_max":810,"o":"m 810 562 q 803 467 810 516 q 783 370 797 418 q 747 276 769 322 q 695 189 726 230 q 626 113 665 147 q 537 53 587 78 q 428 14 488 28 q 284 0 368 0 l 104 0 q 90 2 97 0 q 79 9 83 4 q 72 22 74 14 q 73 43 71 31 l 231 835 q 251 868 236 859 q 283 878 265 878 l 453 878 q 617 856 553 878 q 724 792 682 833 q 788 693 767 751 q 810 562 810 635 m 722 558 q 706 657 722 612 q 659 734 691 702 q 577 785 627 767 q 446 804 528 804 l 308 804 l 162 74 l 298 74 q 447 95 387 74 q 552 153 507 117 q 630 238 597 190 q 682 340 662 287 q 712 450 703 394 q 722 558 722 506 m 543 964 q 534 958 538 960 q 524 953 529 955 q 511 950 518 951 q 495 949 505 949 q 478 950 485 949 q 467 952 472 951 q 459 957 463 954 q 452 964 456 960 l 333 1123 q 329 1133 329 1128 q 333 1140 329 1137 q 343 1144 336 1143 q 361 1145 351 1145 q 385 1144 376 1145 q 399 1142 394 1143 q 406 1138 404 1141 q 411 1133 408 1135 l 503 1003 l 650 1129 q 662 1137 656 1134 q 676 1142 668 1141 q 694 1145 684 1144 q 718 1145 704 1145 q 738 1144 730 1145 q 747 1139 745 1142 q 746 1132 749 1137 q 738 1123 744 1128 l 543 964 m 65 878 z "},"Đ":{"ha":856,"x_min":49,"x_max":823,"o":"m 823 562 q 811 435 823 500 q 773 307 799 369 q 708 189 748 244 q 611 91 668 133 q 479 24 554 49 q 297 0 405 0 l 117 0 q 91 9 102 0 q 85 43 81 18 l 161 420 l 64 420 q 53 425 57 420 q 49 441 49 430 q 50 450 49 445 q 51 462 50 456 q 55 474 52 468 q 60 484 57 479 q 68 491 64 488 q 79 494 73 494 l 176 494 l 244 835 q 263 868 249 859 q 296 878 277 878 l 465 878 q 630 856 565 878 q 737 792 694 833 q 801 693 780 751 q 823 562 823 635 m 734 558 q 719 657 734 612 q 671 734 703 702 q 589 785 639 767 q 458 804 540 804 l 321 804 l 259 494 l 431 494 q 445 487 443 494 q 448 473 448 479 q 447 461 448 467 q 445 450 446 456 q 440 438 443 444 q 434 429 437 433 q 427 422 431 425 q 418 420 422 420 l 244 420 l 175 74 l 311 74 q 459 95 399 74 q 565 153 519 117 q 643 238 610 190 q 695 340 675 287 q 725 450 715 394 q 734 558 734 506 z "},"Ð":{"ha":856,"x_min":49,"x_max":823,"o":"m 823 562 q 811 435 823 500 q 773 307 799 369 q 708 189 748 244 q 611 91 668 133 q 479 24 554 49 q 297 0 405 0 l 117 0 q 91 9 102 0 q 85 43 81 18 l 161 420 l 64 420 q 53 425 57 420 q 49 441 49 430 q 50 450 49 445 q 51 462 50 456 q 55 474 52 468 q 60 484 57 479 q 68 491 64 488 q 79 494 73 494 l 176 494 l 244 835 q 263 868 249 859 q 296 878 277 878 l 465 878 q 630 856 565 878 q 737 792 694 833 q 801 693 780 751 q 823 562 823 635 m 734 558 q 719 657 734 612 q 671 734 703 702 q 589 785 639 767 q 458 804 540 804 l 321 804 l 259 494 l 431 494 q 445 487 443 494 q 448 473 448 479 q 447 461 448 467 q 445 450 446 456 q 440 438 443 444 q 434 429 437 433 q 427 422 431 425 q 418 420 422 420 l 244 420 l 175 74 l 311 74 q 459 95 399 74 q 565 153 519 117 q 643 238 610 190 q 695 340 675 287 q 725 450 715 394 q 734 558 734 506 z "},"E":{"ha":679,"x_min":71,"x_max":698,"o":"m 698 857 q 697 848 698 854 q 696 837 697 843 q 692 825 694 831 q 687 814 690 819 q 679 807 684 810 q 667 804 673 804 l 309 804 l 247 495 l 557 495 q 569 490 565 495 q 573 476 573 486 q 572 467 573 473 q 571 455 572 462 q 567 444 570 449 q 562 434 565 438 q 554 427 559 430 q 543 424 549 424 l 233 424 l 162 74 l 528 74 q 539 69 535 74 q 543 54 543 64 q 543 44 543 50 q 541 33 543 39 q 538 21 540 26 q 532 10 536 15 q 524 3 529 5 q 513 0 519 0 l 102 0 q 90 2 96 0 q 79 9 83 4 q 73 22 75 14 q 73 43 71 31 l 232 835 q 252 868 237 859 q 279 878 267 878 l 683 878 q 698 857 698 878 z "},"È":{"ha":679,"x_min":40,"x_max":698,"o":"m 698 857 q 697 848 698 854 q 696 837 697 843 q 692 825 694 831 q 687 814 690 819 q 679 807 684 810 q 667 804 673 804 l 309 804 l 247 495 l 557 495 q 569 490 565 495 q 573 476 573 486 q 572 467 573 473 q 571 455 572 462 q 567 444 570 449 q 562 434 565 438 q 554 427 559 430 q 543 424 549 424 l 233 424 l 162 74 l 528 74 q 539 69 535 74 q 543 54 543 64 q 543 44 543 50 q 541 33 543 39 q 538 21 540 26 q 532 10 536 15 q 524 3 529 5 q 513 0 519 0 l 102 0 q 90 2 96 0 q 79 9 83 4 q 73 22 75 14 q 73 43 71 31 l 232 835 q 252 868 237 859 q 279 878 267 878 l 683 878 q 698 857 698 878 m 519 975 q 526 964 524 968 q 525 956 528 959 q 515 951 522 953 q 498 949 509 949 q 481 950 488 949 q 468 953 474 951 q 457 959 463 955 q 445 969 452 962 l 296 1118 q 290 1128 291 1123 q 294 1137 290 1133 q 307 1143 298 1141 q 330 1145 316 1145 q 352 1145 342 1145 q 369 1142 361 1144 q 382 1135 376 1139 q 395 1123 389 1131 l 519 975 m 40 878 z "},"É":{"ha":679,"x_min":71,"x_max":705,"o":"m 698 857 q 697 848 698 854 q 696 837 697 843 q 692 825 694 831 q 687 814 690 819 q 679 807 684 810 q 667 804 673 804 l 309 804 l 247 495 l 557 495 q 569 490 565 495 q 573 476 573 486 q 572 467 573 473 q 571 455 572 462 q 567 444 570 449 q 562 434 565 438 q 554 427 559 430 q 543 424 549 424 l 233 424 l 162 74 l 528 74 q 539 69 535 74 q 543 54 543 64 q 543 44 543 50 q 541 33 543 39 q 538 21 540 26 q 532 10 536 15 q 524 3 529 5 q 513 0 519 0 l 102 0 q 90 2 96 0 q 79 9 83 4 q 73 22 75 14 q 73 43 71 31 l 232 835 q 252 868 237 859 q 279 878 267 878 l 683 878 q 698 857 698 878 m 536 969 q 523 959 528 962 q 511 953 517 955 q 498 950 505 951 q 481 949 491 949 q 454 956 458 949 q 462 975 450 962 l 599 1123 q 612 1135 606 1131 q 627 1142 619 1139 q 644 1145 635 1144 q 665 1145 653 1145 q 689 1143 680 1145 q 701 1137 697 1141 q 703 1128 705 1133 q 696 1118 702 1123 l 536 969 m 210 878 z "},"Ê":{"ha":679,"x_min":49,"x_max":698,"o":"m 698 857 q 697 848 698 854 q 696 837 697 843 q 692 825 694 831 q 687 814 690 819 q 679 807 684 810 q 667 804 673 804 l 309 804 l 247 495 l 557 495 q 569 490 565 495 q 573 476 573 486 q 572 467 573 473 q 571 455 572 462 q 567 444 570 449 q 562 434 565 438 q 554 427 559 430 q 543 424 549 424 l 233 424 l 162 74 l 528 74 q 539 69 535 74 q 543 54 543 64 q 543 44 543 50 q 541 33 543 39 q 538 21 540 26 q 532 10 536 15 q 524 3 529 5 q 513 0 519 0 l 102 0 q 90 2 96 0 q 79 9 83 4 q 73 22 75 14 q 73 43 71 31 l 232 835 q 252 868 237 859 q 279 878 267 878 l 683 878 q 698 857 698 878 m 694 972 q 697 962 697 966 q 692 955 696 958 q 682 951 688 952 q 665 949 675 949 q 640 950 649 949 q 626 953 631 951 q 618 957 621 954 q 613 962 616 959 l 523 1091 l 376 966 q 363 957 369 960 q 349 952 357 954 q 331 950 341 950 q 308 949 321 949 q 288 951 295 949 q 279 956 281 953 q 279 962 277 958 q 289 972 282 966 l 483 1131 q 492 1137 488 1135 q 502 1142 497 1140 q 514 1145 507 1144 q 530 1145 521 1145 q 547 1145 541 1145 q 558 1142 553 1144 q 566 1137 563 1140 q 573 1131 570 1135 l 694 972 m 49 878 z "},"Ě":{"ha":679,"x_min":45,"x_max":729,"o":"m 698 857 q 697 848 698 854 q 696 837 697 843 q 692 825 694 831 q 687 814 690 819 q 679 807 684 810 q 667 804 673 804 l 309 804 l 247 495 l 557 495 q 569 490 565 495 q 573 476 573 486 q 572 467 573 473 q 571 455 572 462 q 567 444 570 449 q 562 434 565 438 q 554 427 559 430 q 543 424 549 424 l 233 424 l 162 74 l 528 74 q 539 69 535 74 q 543 54 543 64 q 543 44 543 50 q 541 33 543 39 q 538 21 540 26 q 532 10 536 15 q 524 3 529 5 q 513 0 519 0 l 102 0 q 90 2 96 0 q 79 9 83 4 q 73 22 75 14 q 73 43 71 31 l 232 835 q 252 868 237 859 q 279 878 267 878 l 683 878 q 698 857 698 878 m 524 964 q 514 958 519 960 q 504 953 509 955 q 492 950 498 951 q 475 949 485 949 q 459 950 465 949 q 448 952 452 951 q 439 957 443 954 q 433 964 436 960 l 313 1123 q 309 1133 309 1128 q 313 1140 309 1137 q 324 1144 317 1143 q 341 1145 331 1145 q 366 1144 357 1145 q 379 1142 374 1143 q 386 1138 384 1141 q 391 1133 389 1135 l 483 1003 l 630 1129 q 642 1137 636 1134 q 656 1142 648 1141 q 674 1145 664 1144 q 698 1145 684 1145 q 718 1144 711 1145 q 727 1139 725 1142 q 727 1132 729 1137 q 718 1123 724 1128 l 524 964 m 45 878 z "},"Ë":{"ha":679,"x_min":64,"x_max":698,"o":"m 698 857 q 697 848 698 854 q 696 837 697 843 q 692 825 694 831 q 687 814 690 819 q 679 807 684 810 q 667 804 673 804 l 309 804 l 247 495 l 557 495 q 569 490 565 495 q 573 476 573 486 q 572 467 573 473 q 571 455 572 462 q 567 444 570 449 q 562 434 565 438 q 554 427 559 430 q 543 424 549 424 l 233 424 l 162 74 l 528 74 q 539 69 535 74 q 543 54 543 64 q 543 44 543 50 q 541 33 543 39 q 538 21 540 26 q 532 10 536 15 q 524 3 529 5 q 513 0 519 0 l 102 0 q 90 2 96 0 q 79 9 83 4 q 73 22 75 14 q 73 43 71 31 l 232 835 q 252 868 237 859 q 279 878 267 878 l 683 878 q 698 857 698 878 m 687 1035 q 680 1009 684 1019 q 669 991 676 998 q 651 982 662 985 q 625 979 641 979 q 600 982 610 979 q 586 991 591 985 q 580 1009 581 998 q 581 1035 579 1019 q 587 1061 583 1050 q 598 1078 591 1072 q 615 1087 605 1084 q 642 1090 626 1090 q 667 1087 657 1090 q 681 1078 676 1084 q 688 1061 686 1072 q 687 1035 689 1050 m 415 1035 q 409 1009 413 1019 q 398 991 405 998 q 380 982 391 985 q 353 979 369 979 q 328 982 338 979 q 314 991 319 985 q 308 1009 309 998 q 310 1035 307 1019 q 316 1061 312 1050 q 326 1078 319 1072 q 344 1087 333 1084 q 370 1090 355 1090 q 395 1087 386 1090 q 410 1078 405 1084 q 416 1061 415 1072 q 415 1035 417 1050 m 64 878 z "},"Ē":{"ha":679,"x_min":56,"x_max":698,"o":"m 698 857 q 697 848 698 854 q 696 837 697 843 q 692 825 694 831 q 687 814 690 819 q 679 807 684 810 q 667 804 673 804 l 309 804 l 247 495 l 557 495 q 569 490 565 495 q 573 476 573 486 q 572 467 573 473 q 571 455 572 462 q 567 444 570 449 q 562 434 565 438 q 554 427 559 430 q 543 424 549 424 l 233 424 l 162 74 l 528 74 q 539 69 535 74 q 543 54 543 64 q 543 44 543 50 q 541 33 543 39 q 538 21 540 26 q 532 10 536 15 q 524 3 529 5 q 513 0 519 0 l 102 0 q 90 2 96 0 q 79 9 83 4 q 73 22 75 14 q 73 43 71 31 l 232 835 q 252 868 237 859 q 279 878 267 878 l 683 878 q 698 857 698 878 m 692 1051 q 691 1041 692 1046 q 689 1029 690 1035 q 685 1018 687 1023 q 679 1008 682 1012 q 673 1001 676 1004 q 665 998 669 998 l 312 998 q 302 1002 305 998 q 298 1017 298 1006 q 299 1026 298 1021 q 301 1037 300 1031 q 304 1049 302 1043 q 310 1059 307 1055 q 317 1066 313 1063 q 326 1069 321 1069 l 680 1069 q 689 1064 686 1069 q 692 1051 692 1059 m 56 878 z "},"Ĕ":{"ha":679,"x_min":71,"x_max":698,"o":"m 698 857 q 697 848 698 854 q 696 837 697 843 q 692 825 694 831 q 687 814 690 819 q 679 807 684 810 q 667 804 673 804 l 309 804 l 247 495 l 557 495 q 569 490 565 495 q 573 476 573 486 q 572 467 573 473 q 571 455 572 462 q 567 444 570 449 q 562 434 565 438 q 554 427 559 430 q 543 424 549 424 l 233 424 l 162 74 l 528 74 q 539 69 535 74 q 543 54 543 64 q 543 44 543 50 q 541 33 543 39 q 538 21 540 26 q 532 10 536 15 q 524 3 529 5 q 513 0 519 0 l 102 0 q 90 2 96 0 q 79 9 83 4 q 73 22 75 14 q 73 43 71 31 l 232 835 q 252 868 237 859 q 279 878 267 878 l 683 878 q 698 857 698 878 m 679 1133 q 676 1108 679 1125 q 664 1072 673 1092 q 642 1030 656 1051 q 607 990 628 1008 q 555 961 585 972 q 485 949 525 949 q 418 960 445 949 q 376 987 392 970 q 353 1027 360 1004 q 347 1075 347 1050 q 348 1091 347 1081 q 350 1110 349 1101 q 354 1128 351 1120 q 358 1138 356 1136 q 371 1144 363 1143 q 388 1145 380 1145 q 402 1145 397 1145 q 412 1142 408 1144 q 417 1138 415 1141 q 418 1133 418 1136 q 417 1115 418 1124 q 416 1094 416 1105 q 419 1063 416 1077 q 431 1038 422 1048 q 453 1023 439 1028 q 490 1017 468 1017 q 530 1023 511 1017 q 565 1042 549 1029 q 594 1076 581 1055 q 614 1129 606 1097 q 617 1136 615 1133 q 624 1141 620 1139 q 635 1144 629 1143 q 651 1145 642 1145 q 666 1144 661 1145 q 674 1142 671 1143 q 678 1138 677 1141 q 679 1133 679 1135 m 90 878 z "},"Ė":{"ha":679,"x_min":71,"x_max":698,"o":"m 698 857 q 697 848 698 854 q 696 837 697 843 q 692 825 694 831 q 687 814 690 819 q 679 807 684 810 q 667 804 673 804 l 309 804 l 247 495 l 557 495 q 569 490 565 495 q 573 476 573 486 q 572 467 573 473 q 571 455 572 462 q 567 444 570 449 q 562 434 565 438 q 554 427 559 430 q 543 424 549 424 l 233 424 l 162 74 l 528 74 q 539 69 535 74 q 543 54 543 64 q 543 44 543 50 q 541 33 543 39 q 538 21 540 26 q 532 10 536 15 q 524 3 529 5 q 513 0 519 0 l 102 0 q 90 2 96 0 q 79 9 83 4 q 73 22 75 14 q 73 43 71 31 l 232 835 q 252 868 237 859 q 279 878 267 878 l 683 878 q 698 857 698 878 m 448 1035 q 456 1060 451 1049 q 468 1077 460 1070 q 487 1087 476 1084 q 512 1090 498 1090 q 536 1087 527 1090 q 551 1077 546 1084 q 556 1060 555 1070 q 553 1035 556 1049 q 546 1009 551 1020 q 533 992 541 999 q 515 982 526 985 q 490 979 504 979 q 466 982 475 979 q 452 992 456 985 q 446 1009 447 999 q 448 1035 446 1020 m 204 878 z "},"Ę":{"ha":679,"x_min":71,"x_max":698,"o":"m 523 -193 q 522 -204 523 -198 q 520 -215 522 -210 q 516 -224 518 -220 q 513 -230 515 -228 q 498 -237 509 -234 q 473 -242 487 -240 q 444 -246 459 -245 q 418 -248 429 -248 q 362 -241 385 -248 q 326 -224 340 -235 q 307 -199 313 -214 q 300 -166 300 -184 q 304 -139 300 -153 q 315 -111 307 -125 q 337 -81 323 -96 q 372 -47 351 -65 l 430 0 l 103 0 q 91 2 97 0 q 79 9 84 4 q 73 22 75 14 q 73 43 71 31 l 232 835 q 252 868 237 859 q 279 878 267 878 l 683 878 q 694 873 690 878 q 698 857 698 868 q 697 848 698 853 q 695 836 696 842 q 692 824 694 830 q 686 814 690 819 q 678 806 683 809 q 667 804 673 804 l 309 804 l 247 495 l 557 495 q 569 490 565 495 q 573 475 573 484 q 572 466 573 471 q 571 455 572 461 q 567 444 570 450 q 562 434 565 439 q 553 427 558 429 q 543 424 549 424 l 233 424 l 162 74 l 528 74 q 539 69 535 74 q 543 54 543 64 q 543 42 543 50 q 540 27 542 35 q 535 12 538 19 q 527 0 532 4 l 424 -85 q 390 -122 398 -106 q 381 -151 381 -138 q 390 -173 381 -164 q 427 -181 398 -181 l 511 -181 q 520 -184 518 -181 q 523 -193 523 -187 z "},"F":{"ha":639,"x_min":66,"x_max":678,"o":"m 678 857 q 678 849 678 854 q 676 838 677 844 q 673 826 675 832 q 667 815 671 820 q 659 807 664 810 q 648 804 654 804 l 309 804 l 242 471 l 565 471 q 576 467 572 471 q 580 452 580 462 q 579 442 580 448 q 577 431 578 437 q 574 420 576 426 q 568 410 572 414 q 561 403 565 406 q 550 400 556 400 l 228 400 l 151 14 q 147 6 150 9 q 139 1 144 3 q 125 -3 134 -1 q 106 -4 117 -4 q 86 -3 94 -4 q 74 1 78 -1 q 68 6 69 3 q 68 14 66 9 l 232 835 q 252 868 237 859 q 279 878 267 878 l 663 878 q 675 872 672 878 q 678 857 678 866 z "},"G":{"ha":871,"x_min":81,"x_max":854,"o":"m 854 781 q 854 772 854 777 q 852 762 853 767 q 848 750 850 756 q 844 740 846 745 q 838 733 841 736 q 831 730 834 730 q 804 743 821 730 q 758 772 787 756 q 688 801 730 788 q 589 814 647 814 q 473 795 528 814 q 371 744 418 777 q 288 665 325 711 q 225 566 251 620 q 185 453 199 513 q 171 331 171 393 q 190 218 171 267 q 243 135 208 168 q 328 84 278 101 q 438 66 377 66 q 538 78 485 66 q 637 113 591 90 l 694 396 l 470 396 q 458 401 463 396 q 454 415 454 406 q 454 425 454 419 q 457 437 455 431 q 461 449 458 444 q 467 460 463 455 q 475 467 471 465 q 485 470 479 470 l 754 470 q 779 458 771 470 q 783 427 787 446 l 716 97 q 709 78 713 85 q 700 65 705 71 q 671 47 694 60 q 611 22 648 35 q 528 0 574 9 q 429 -10 481 -10 q 279 13 344 -10 q 171 79 214 36 q 104 184 127 123 q 81 322 81 245 q 98 464 81 394 q 146 596 115 534 q 222 713 177 659 q 326 805 268 766 q 453 866 384 844 q 602 888 522 888 q 687 879 648 888 q 758 858 727 871 q 811 831 789 846 q 841 809 833 817 q 852 795 850 801 q 854 781 854 789 z "},"Ĝ":{"ha":871,"x_min":81,"x_max":854,"o":"m 854 781 q 854 772 854 777 q 852 762 853 767 q 848 750 850 756 q 844 740 846 745 q 838 733 841 736 q 831 730 834 730 q 804 743 821 730 q 758 772 787 756 q 688 801 730 788 q 589 814 647 814 q 473 795 528 814 q 371 744 418 777 q 288 665 325 711 q 225 566 251 620 q 185 453 199 513 q 171 331 171 393 q 190 218 171 267 q 243 135 208 168 q 328 84 278 101 q 438 66 377 66 q 538 78 485 66 q 637 113 591 90 l 694 396 l 470 396 q 458 401 463 396 q 454 415 454 406 q 454 425 454 419 q 457 437 455 431 q 461 449 458 444 q 467 460 463 455 q 475 467 471 465 q 485 470 479 470 l 754 470 q 779 458 771 470 q 783 427 787 446 l 716 97 q 709 78 713 85 q 700 65 705 71 q 671 47 694 60 q 611 22 648 35 q 528 0 574 9 q 429 -10 481 -10 q 279 13 344 -10 q 171 79 214 36 q 104 184 127 123 q 81 322 81 245 q 98 464 81 394 q 146 596 115 534 q 222 713 177 659 q 326 805 268 766 q 453 866 384 844 q 602 888 522 888 q 687 879 648 888 q 758 858 727 871 q 811 831 789 846 q 841 809 833 817 q 852 795 850 801 q 854 781 854 789 m 795 972 q 799 962 799 966 q 794 955 798 958 q 783 951 790 952 q 766 949 777 949 q 742 950 751 949 q 728 953 733 951 q 720 957 723 954 q 715 962 718 959 l 625 1091 l 477 966 q 465 957 471 960 q 451 952 458 954 q 433 950 443 950 q 410 949 423 949 q 390 951 397 949 q 380 956 382 953 q 381 962 378 958 q 391 972 384 966 l 585 1131 q 594 1137 589 1135 q 604 1142 599 1140 q 616 1145 609 1144 q 632 1145 623 1145 q 649 1145 642 1145 q 660 1142 655 1144 q 668 1137 665 1140 q 675 1131 671 1135 l 795 972 m 151 878 z "},"Ğ":{"ha":871,"x_min":81,"x_max":854,"o":"m 854 781 q 854 772 854 777 q 852 762 853 767 q 848 750 850 756 q 844 740 846 745 q 838 733 841 736 q 831 730 834 730 q 804 743 821 730 q 758 772 787 756 q 688 801 730 788 q 589 814 647 814 q 473 795 528 814 q 371 744 418 777 q 288 665 325 711 q 225 566 251 620 q 185 453 199 513 q 171 331 171 393 q 190 218 171 267 q 243 135 208 168 q 328 84 278 101 q 438 66 377 66 q 538 78 485 66 q 637 113 591 90 l 694 396 l 470 396 q 458 401 463 396 q 454 415 454 406 q 454 425 454 419 q 457 437 455 431 q 461 449 458 444 q 467 460 463 455 q 475 467 471 465 q 485 470 479 470 l 754 470 q 779 458 771 470 q 783 427 787 446 l 716 97 q 709 78 713 85 q 700 65 705 71 q 671 47 694 60 q 611 22 648 35 q 528 0 574 9 q 429 -10 481 -10 q 279 13 344 -10 q 171 79 214 36 q 104 184 127 123 q 81 322 81 245 q 98 464 81 394 q 146 596 115 534 q 222 713 177 659 q 326 805 268 766 q 453 866 384 844 q 602 888 522 888 q 687 879 648 888 q 758 858 727 871 q 811 831 789 846 q 841 809 833 817 q 852 795 850 801 q 854 781 854 789 m 791 1133 q 788 1108 791 1125 q 776 1072 785 1092 q 754 1030 768 1051 q 719 990 740 1008 q 667 961 697 972 q 597 949 637 949 q 530 960 557 949 q 488 987 504 970 q 465 1027 472 1004 q 458 1075 458 1050 q 459 1091 458 1081 q 462 1110 460 1101 q 466 1128 463 1120 q 470 1138 468 1136 q 483 1144 475 1143 q 500 1145 492 1145 q 514 1145 509 1145 q 524 1142 520 1144 q 529 1138 527 1141 q 530 1133 530 1136 q 529 1115 530 1124 q 528 1094 528 1105 q 531 1063 528 1077 q 543 1038 534 1048 q 565 1023 551 1028 q 602 1017 580 1017 q 642 1023 623 1017 q 677 1042 661 1029 q 706 1076 693 1055 q 726 1129 718 1097 q 729 1136 727 1133 q 736 1141 732 1139 q 747 1144 741 1143 q 763 1145 753 1145 q 778 1144 772 1145 q 786 1142 783 1143 q 790 1138 789 1141 q 791 1133 791 1135 m 202 878 z "},"Ġ":{"ha":871,"x_min":81,"x_max":854,"o":"m 854 781 q 854 772 854 777 q 852 762 853 767 q 848 750 850 756 q 844 740 846 745 q 838 733 841 736 q 831 730 834 730 q 804 743 821 730 q 758 772 787 756 q 688 801 730 788 q 589 814 647 814 q 473 795 528 814 q 371 744 418 777 q 288 665 325 711 q 225 566 251 620 q 185 453 199 513 q 171 331 171 393 q 190 218 171 267 q 243 135 208 168 q 328 84 278 101 q 438 66 377 66 q 538 78 485 66 q 637 113 591 90 l 694 396 l 470 396 q 458 401 463 396 q 454 415 454 406 q 454 425 454 419 q 457 437 455 431 q 461 449 458 444 q 467 460 463 455 q 475 467 471 465 q 485 470 479 470 l 754 470 q 779 458 771 470 q 783 427 787 446 l 716 97 q 709 78 713 85 q 700 65 705 71 q 671 47 694 60 q 611 22 648 35 q 528 0 574 9 q 429 -10 481 -10 q 279 13 344 -10 q 171 79 214 36 q 104 184 127 123 q 81 322 81 245 q 98 464 81 394 q 146 596 115 534 q 222 713 177 659 q 326 805 268 766 q 453 866 384 844 q 602 888 522 888 q 687 879 648 888 q 758 858 727 871 q 811 831 789 846 q 841 809 833 817 q 852 795 850 801 q 854 781 854 789 m 559 1035 q 567 1060 562 1049 q 579 1077 572 1070 q 598 1087 587 1084 q 623 1090 609 1090 q 648 1087 638 1090 q 662 1077 657 1084 q 667 1060 667 1070 q 665 1035 667 1049 q 657 1009 662 1020 q 644 992 652 999 q 626 982 637 985 q 601 979 615 979 q 577 982 586 979 q 563 992 568 985 q 557 1009 558 999 q 559 1035 557 1020 m 315 878 z "},"Ģ":{"ha":871,"x_min":81,"x_max":854,"o":"m 854 781 q 854 772 854 777 q 852 762 853 767 q 848 750 850 756 q 844 740 846 745 q 838 733 841 736 q 831 730 834 730 q 804 743 821 730 q 758 772 787 756 q 688 801 730 788 q 589 814 647 814 q 473 795 528 814 q 371 744 418 777 q 288 665 325 711 q 225 566 251 620 q 185 453 199 513 q 171 331 171 393 q 190 218 171 267 q 243 135 208 168 q 328 84 278 101 q 438 66 377 66 q 538 78 485 66 q 637 113 591 90 l 694 396 l 470 396 q 458 401 463 396 q 454 415 454 406 q 454 425 454 419 q 457 437 455 431 q 461 449 458 444 q 467 460 463 455 q 475 467 471 465 q 485 470 479 470 l 754 470 q 779 458 771 470 q 783 427 787 446 l 716 97 q 709 78 713 85 q 700 65 705 71 q 671 47 694 60 q 611 22 648 35 q 528 0 574 9 q 429 -10 481 -10 q 279 13 344 -10 q 171 79 214 36 q 104 184 127 123 q 81 322 81 245 q 98 464 81 394 q 146 596 115 534 q 222 713 177 659 q 326 805 268 766 q 453 866 384 844 q 602 888 522 888 q 687 879 648 888 q 758 858 727 871 q 811 831 789 846 q 841 809 833 817 q 852 795 850 801 q 854 781 854 789 m 330 -228 q 321 -238 326 -235 q 312 -244 317 -242 q 299 -247 307 -246 q 281 -248 292 -248 q 268 -246 273 -248 q 262 -242 263 -245 q 262 -234 260 -239 q 267 -222 263 -229 l 337 -81 q 345 -69 340 -74 q 355 -62 349 -64 q 370 -59 361 -60 q 392 -58 378 -58 q 412 -60 405 -58 q 420 -65 418 -62 q 421 -74 422 -69 q 416 -85 420 -79 l 330 -228 z "},"H":{"ha":860,"x_min":66,"x_max":842,"o":"m 671 14 q 667 6 670 9 q 660 1 665 3 q 646 -3 654 -1 q 626 -4 638 -4 q 607 -3 614 -4 q 594 1 599 -1 q 589 6 590 3 q 589 14 587 9 l 670 422 l 232 422 l 151 14 q 147 6 150 9 q 139 1 144 3 q 125 -3 134 -1 q 106 -4 117 -4 q 86 -3 94 -4 q 74 1 78 -1 q 68 6 69 3 q 68 14 66 9 l 237 864 q 241 871 238 868 q 250 877 244 875 q 263 880 255 879 q 283 882 271 882 q 302 880 294 882 q 314 877 310 879 q 320 871 319 875 q 320 864 321 868 l 247 496 l 685 496 l 758 864 q 762 871 759 868 q 770 877 765 875 q 783 880 775 879 q 804 882 791 882 q 823 880 815 882 q 835 877 831 879 q 841 871 840 875 q 841 864 842 868 l 671 14 z "},"Ĥ":{"ha":860,"x_min":66,"x_max":842,"o":"m 671 14 q 667 6 670 9 q 660 1 665 3 q 646 -3 654 -1 q 626 -4 638 -4 q 607 -3 614 -4 q 594 1 599 -1 q 589 6 590 3 q 589 14 587 9 l 670 422 l 232 422 l 151 14 q 147 6 150 9 q 139 1 144 3 q 125 -3 134 -1 q 106 -4 117 -4 q 86 -3 94 -4 q 74 1 78 -1 q 68 6 69 3 q 68 14 66 9 l 237 864 q 241 871 238 868 q 250 877 244 875 q 263 880 255 879 q 283 882 271 882 q 302 880 294 882 q 314 877 310 879 q 320 871 319 875 q 320 864 321 868 l 247 496 l 685 496 l 758 864 q 762 871 759 868 q 770 877 765 875 q 783 880 775 879 q 804 882 791 882 q 823 880 815 882 q 835 877 831 879 q 841 871 840 875 q 841 864 842 868 l 671 14 m 753 972 q 756 962 756 966 q 751 955 755 958 q 741 951 747 952 q 724 949 734 949 q 699 950 708 949 q 685 953 690 951 q 677 957 680 954 q 672 962 675 959 l 582 1091 l 435 966 q 422 957 428 960 q 408 952 416 954 q 390 950 400 950 q 367 949 380 949 q 347 951 354 949 q 338 956 340 953 q 338 962 336 958 q 348 972 341 966 l 542 1131 q 551 1137 547 1135 q 561 1142 556 1140 q 573 1145 566 1144 q 589 1145 580 1145 q 606 1145 600 1145 q 617 1142 612 1144 q 625 1137 622 1140 q 632 1131 629 1135 l 753 972 m 108 878 z "},"Ħ":{"ha":910,"x_min":92,"x_max":953,"o":"m 298 625 l 268 477 l 706 477 l 736 625 l 298 625 m 833 696 l 938 696 q 950 692 947 696 q 953 677 953 687 q 952 667 953 673 q 950 655 951 661 q 947 644 949 649 q 941 634 945 638 q 933 627 938 629 q 923 625 929 625 l 819 625 l 696 14 q 692 6 695 9 q 685 1 690 3 q 671 -3 680 -1 q 651 -4 663 -4 q 632 -3 640 -4 q 620 1 624 -1 q 614 6 615 3 q 614 14 612 9 l 692 404 l 254 404 l 176 14 q 172 6 174 9 q 164 1 170 3 q 151 -3 159 -1 q 131 -4 142 -4 q 111 -3 119 -4 q 99 1 103 -1 q 93 6 94 3 q 93 14 92 9 l 215 625 l 111 625 q 99 630 102 625 q 96 646 96 636 q 97 660 96 651 q 102 677 98 669 q 111 691 105 686 q 125 696 116 696 l 229 696 l 262 864 q 266 871 263 868 q 275 877 269 875 q 288 880 280 879 q 308 882 296 882 q 328 880 320 882 q 340 877 336 879 q 346 871 345 875 q 346 864 347 868 l 312 696 l 750 696 l 783 864 q 787 871 784 868 q 795 877 790 875 q 808 880 800 879 q 829 882 817 882 q 848 880 840 882 q 860 877 856 879 q 866 871 865 875 q 866 864 867 868 l 833 696 z "},"I":{"ha":339,"x_min":66,"x_max":321,"o":"m 151 14 q 147 6 150 9 q 139 1 144 3 q 125 -3 134 -1 q 106 -4 117 -4 q 86 -3 94 -4 q 74 1 78 -1 q 68 6 69 3 q 68 14 66 9 l 237 864 q 241 871 238 868 q 250 877 245 875 q 264 880 256 879 q 283 882 272 882 q 302 880 294 882 q 314 877 309 879 q 319 871 318 875 q 320 864 321 868 l 151 14 z "},"Ì":{"ha":339,"x_min":-151,"x_max":336,"o":"m 151 14 q 147 6 150 9 q 139 1 144 3 q 125 -3 134 -1 q 106 -4 117 -4 q 86 -3 94 -4 q 74 1 78 -1 q 68 6 69 3 q 68 14 66 9 l 237 864 q 241 871 238 868 q 250 877 245 875 q 264 880 256 879 q 283 882 272 882 q 302 880 294 882 q 314 877 309 879 q 319 871 318 875 q 320 864 321 868 l 151 14 m 328 975 q 335 964 333 968 q 334 956 336 959 q 324 951 331 953 q 307 949 317 949 q 290 950 296 949 q 277 953 283 951 q 266 959 271 955 q 254 969 260 962 l 105 1118 q 99 1128 100 1123 q 102 1137 98 1133 q 116 1143 106 1141 q 139 1145 125 1145 q 160 1145 151 1145 q 177 1142 170 1144 q 191 1135 185 1139 q 203 1123 197 1131 l 328 975 m -151 878 z "},"Í":{"ha":339,"x_min":13,"x_max":507,"o":"m 151 14 q 147 6 150 9 q 139 1 144 3 q 125 -3 134 -1 q 106 -4 117 -4 q 86 -3 94 -4 q 74 1 78 -1 q 68 6 69 3 q 68 14 66 9 l 237 864 q 241 871 238 868 q 250 877 245 875 q 264 880 256 879 q 283 882 272 882 q 302 880 294 882 q 314 877 309 879 q 319 871 318 875 q 320 864 321 868 l 151 14 m 338 969 q 326 959 331 962 q 314 953 320 955 q 301 950 308 951 q 283 949 294 949 q 257 956 260 949 q 264 975 253 962 l 401 1123 q 415 1135 408 1131 q 430 1142 422 1139 q 447 1145 437 1144 q 468 1145 456 1145 q 491 1143 483 1145 q 504 1137 500 1141 q 506 1128 507 1133 q 499 1118 505 1123 l 338 969 m 13 878 z "},"Î":{"ha":339,"x_min":-139,"x_max":509,"o":"m 151 14 q 147 6 150 9 q 139 1 144 3 q 125 -3 134 -1 q 106 -4 117 -4 q 86 -3 94 -4 q 74 1 78 -1 q 68 6 69 3 q 68 14 66 9 l 237 864 q 241 871 238 868 q 250 877 245 875 q 264 880 256 879 q 283 882 272 882 q 302 880 294 882 q 314 877 309 879 q 319 871 318 875 q 320 864 321 868 l 151 14 m 506 972 q 509 962 509 966 q 505 955 509 958 q 494 951 500 952 q 477 949 487 949 q 452 950 461 949 q 438 953 444 951 q 431 957 433 954 q 425 962 428 959 l 335 1091 l 188 966 q 175 957 181 960 q 161 952 169 954 q 143 950 153 950 q 120 949 134 949 q 100 951 107 949 q 91 956 93 953 q 92 962 89 958 q 101 972 94 966 l 295 1131 q 304 1137 300 1135 q 314 1142 309 1140 q 326 1145 319 1144 q 342 1145 333 1145 q 359 1145 353 1145 q 370 1142 366 1144 q 378 1137 375 1140 q 385 1131 382 1135 l 506 972 m -139 878 z "},"Ĩ":{"ha":339,"x_min":-151,"x_max":539,"o":"m 151 14 q 147 6 150 9 q 139 1 144 3 q 125 -3 134 -1 q 106 -4 117 -4 q 86 -3 94 -4 q 74 1 78 -1 q 68 6 69 3 q 68 14 66 9 l 237 864 q 241 871 238 868 q 250 877 245 875 q 264 880 256 879 q 283 882 272 882 q 302 880 294 882 q 314 877 309 879 q 319 871 318 875 q 320 864 321 868 l 151 14 m 471 1086 q 474 1093 472 1090 q 481 1097 477 1095 q 493 1099 486 1099 q 509 1100 500 1100 q 534 1096 528 1100 q 539 1084 539 1091 q 538 1070 539 1081 q 533 1044 537 1059 q 520 1013 528 1029 q 496 982 511 996 q 459 959 481 968 q 404 949 436 949 q 343 962 369 949 q 297 991 318 975 q 256 1019 276 1006 q 214 1032 237 1032 q 167 1013 181 1032 q 149 963 153 994 q 146 957 149 960 q 139 953 144 955 q 128 950 135 951 q 113 949 121 949 q 87 953 94 949 q 81 966 81 957 q 83 987 81 974 q 91 1016 85 1001 q 107 1046 97 1031 q 132 1073 117 1061 q 168 1093 147 1085 q 218 1100 189 1100 q 278 1087 253 1100 q 324 1059 303 1074 q 364 1030 345 1043 q 407 1017 384 1017 q 450 1033 433 1017 q 471 1086 467 1048 m -151 878 z "},"Ï":{"ha":339,"x_min":-120,"x_max":505,"o":"m 151 14 q 147 6 150 9 q 139 1 144 3 q 125 -3 134 -1 q 106 -4 117 -4 q 86 -3 94 -4 q 74 1 78 -1 q 68 6 69 3 q 68 14 66 9 l 237 864 q 241 871 238 868 q 250 877 245 875 q 264 880 256 879 q 283 882 272 882 q 302 880 294 882 q 314 877 309 879 q 319 871 318 875 q 320 864 321 868 l 151 14 m 503 1035 q 496 1009 500 1019 q 485 991 492 998 q 467 982 477 985 q 441 979 456 979 q 416 982 425 979 q 401 991 406 985 q 395 1009 396 998 q 397 1035 395 1019 q 402 1061 399 1050 q 413 1078 406 1072 q 431 1087 420 1084 q 457 1090 441 1090 q 482 1087 473 1090 q 497 1078 492 1084 q 503 1061 502 1072 q 503 1035 505 1050 m 231 1035 q 224 1009 229 1019 q 213 991 220 998 q 195 982 206 985 q 169 979 184 979 q 144 982 153 979 q 129 991 134 985 q 123 1009 124 998 q 125 1035 123 1019 q 131 1061 127 1050 q 142 1078 135 1072 q 159 1087 149 1084 q 186 1090 170 1090 q 211 1087 201 1090 q 225 1078 220 1084 q 232 1061 231 1072 q 231 1035 233 1050 m -120 878 z "},"Ī":{"ha":339,"x_min":-126,"x_max":510,"o":"m 151 14 q 147 6 150 9 q 139 1 144 3 q 125 -3 134 -1 q 106 -4 117 -4 q 86 -3 94 -4 q 74 1 78 -1 q 68 6 69 3 q 68 14 66 9 l 237 864 q 241 871 238 868 q 250 877 245 875 q 264 880 256 879 q 283 882 272 882 q 302 880 294 882 q 314 877 309 879 q 319 871 318 875 q 320 864 321 868 l 151 14 m 510 1051 q 509 1041 510 1046 q 507 1029 509 1035 q 503 1018 505 1023 q 497 1008 500 1012 q 491 1001 494 1004 q 484 998 488 998 l 130 998 q 120 1002 123 998 q 117 1017 117 1006 q 117 1026 117 1021 q 119 1037 118 1031 q 122 1049 120 1043 q 128 1059 125 1055 q 135 1066 131 1063 q 144 1069 139 1069 l 498 1069 q 507 1064 505 1069 q 510 1051 510 1059 m -126 878 z "},"Ĭ":{"ha":339,"x_min":-95,"x_max":494,"o":"m 151 14 q 147 6 150 9 q 139 1 144 3 q 125 -3 134 -1 q 106 -4 117 -4 q 86 -3 94 -4 q 74 1 78 -1 q 68 6 69 3 q 68 14 66 9 l 237 864 q 241 871 238 868 q 250 877 245 875 q 264 880 256 879 q 283 882 272 882 q 302 880 294 882 q 314 877 309 879 q 319 871 318 875 q 320 864 321 868 l 151 14 m 494 1133 q 491 1108 494 1125 q 479 1072 488 1092 q 457 1030 471 1051 q 421 990 443 1008 q 370 961 400 972 q 300 949 340 949 q 233 960 260 949 q 191 987 207 970 q 168 1027 175 1004 q 161 1075 161 1050 q 162 1091 161 1081 q 165 1110 163 1101 q 169 1128 166 1120 q 173 1138 171 1136 q 186 1144 178 1143 q 203 1145 195 1145 q 217 1145 212 1145 q 227 1142 223 1144 q 232 1138 230 1141 q 233 1133 233 1136 q 232 1115 233 1124 q 231 1094 231 1105 q 234 1063 231 1077 q 245 1038 237 1048 q 268 1023 254 1028 q 305 1017 283 1017 q 345 1023 326 1017 q 380 1042 363 1029 q 409 1076 396 1055 q 429 1129 421 1097 q 432 1136 430 1133 q 439 1141 435 1139 q 450 1144 444 1143 q 466 1145 456 1145 q 481 1144 475 1145 q 489 1142 486 1143 q 493 1138 492 1141 q 494 1133 494 1135 m -95 878 z "},"İ":{"ha":339,"x_min":18,"x_max":370,"o":"m 151 14 q 147 6 150 9 q 139 1 144 3 q 125 -3 134 -1 q 106 -4 117 -4 q 86 -3 94 -4 q 74 1 78 -1 q 68 6 69 3 q 68 14 66 9 l 237 864 q 241 871 238 868 q 250 877 245 875 q 264 880 256 879 q 283 882 272 882 q 302 880 294 882 q 314 877 309 879 q 319 871 318 875 q 320 864 321 868 l 151 14 m 262 1035 q 269 1060 264 1049 q 282 1077 274 1070 q 300 1087 290 1084 q 326 1090 311 1090 q 350 1087 340 1090 q 364 1077 359 1084 q 369 1060 369 1070 q 367 1035 370 1049 q 359 1009 364 1020 q 347 992 354 999 q 328 982 339 985 q 303 979 317 979 q 279 982 288 979 q 265 992 270 985 q 260 1009 260 999 q 262 1035 259 1020 m 18 878 z "},"Į":{"ha":339,"x_min":-65,"x_max":321,"o":"m 157 -193 q 156 -203 157 -197 q 154 -214 155 -209 q 151 -224 153 -220 q 147 -230 149 -228 q 134 -236 144 -233 q 111 -241 124 -239 q 81 -246 97 -244 q 50 -248 65 -248 q -3 -241 19 -248 q -38 -224 -24 -235 q -59 -198 -52 -214 q -65 -165 -65 -183 q -61 -138 -65 -152 q -49 -110 -58 -125 q -26 -80 -41 -96 q 9 -47 -12 -64 l 66 1 q 66 7 65 3 q 68 14 66 10 l 237 864 q 241 871 238 868 q 250 877 245 875 q 264 880 256 879 q 283 882 272 882 q 302 880 294 882 q 314 877 310 879 q 320 871 319 875 q 321 864 321 868 l 151 14 q 143 -8 148 2 q 130 -26 138 -19 l 63 -82 q 25 -120 35 -104 q 15 -150 15 -136 q 25 -172 15 -163 q 59 -181 35 -181 l 144 -181 q 155 -184 152 -181 q 157 -193 157 -187 z "},"Ĳ":{"ha":773,"x_min":66,"x_max":758,"o":"m 151 14 q 147 6 150 9 q 139 1 144 3 q 125 -3 134 -1 q 106 -4 117 -4 q 86 -3 94 -4 q 74 1 78 -1 q 68 6 69 3 q 68 14 66 9 l 237 864 q 241 871 238 868 q 250 877 245 875 q 264 880 256 879 q 283 882 272 882 q 302 880 294 882 q 314 877 309 879 q 319 871 318 875 q 320 864 321 868 l 151 14 m 625 200 q 601 117 616 156 q 561 50 586 79 q 502 5 536 22 q 418 -12 467 -12 q 360 -6 385 -12 q 318 8 335 -1 q 296 23 300 16 q 292 39 292 31 q 293 49 292 43 q 295 61 294 55 q 299 74 296 67 q 304 85 301 80 q 310 93 307 90 q 317 96 313 96 q 333 90 325 96 q 352 79 340 85 q 379 67 363 73 q 418 62 395 62 q 466 69 446 62 q 500 94 486 77 q 525 140 515 112 q 543 210 535 168 l 674 864 q 678 871 675 868 q 686 877 681 875 q 700 880 692 879 q 720 882 708 882 q 738 881 730 882 q 750 878 745 880 q 756 872 754 876 q 758 864 758 869 l 625 200 z "},"J":{"ha":434,"x_min":-47,"x_max":418,"o":"m 286 200 q 261 117 277 156 q 221 50 246 79 q 162 5 197 22 q 78 -12 127 -12 q 20 -6 45 -12 q -22 8 -5 -1 q -43 23 -39 16 q -47 39 -47 31 q -47 49 -47 43 q -45 61 -46 55 q -41 74 -43 67 q -36 85 -39 80 q -30 93 -33 90 q -22 96 -26 96 q -7 90 -15 96 q 12 79 1 85 q 39 67 23 73 q 78 62 55 62 q 126 69 106 62 q 161 94 146 77 q 185 140 175 112 q 203 210 195 168 l 334 864 q 338 871 335 868 q 347 877 341 875 q 360 880 352 879 q 380 882 368 882 q 398 881 390 882 q 410 878 406 880 q 416 872 414 876 q 418 864 418 869 l 286 200 z "},"Ĵ":{"ha":434,"x_min":-55,"x_max":593,"o":"m 286 200 q 261 117 277 156 q 221 50 246 79 q 162 5 197 22 q 78 -12 127 -12 q 20 -6 45 -12 q -22 8 -5 -1 q -43 23 -39 16 q -47 39 -47 31 q -47 49 -47 43 q -45 61 -46 55 q -41 74 -43 67 q -36 85 -39 80 q -30 93 -33 90 q -22 96 -26 96 q -7 90 -15 96 q 12 79 1 85 q 39 67 23 73 q 78 62 55 62 q 126 69 106 62 q 161 94 146 77 q 185 140 175 112 q 203 210 195 168 l 334 864 q 338 871 335 868 q 347 877 341 875 q 360 880 352 879 q 380 882 368 882 q 398 881 390 882 q 410 878 406 880 q 416 872 414 876 q 418 864 418 869 l 286 200 m 590 972 q 593 962 593 966 q 589 955 593 958 q 578 951 585 952 q 561 949 571 949 q 536 950 545 949 q 523 953 528 951 q 515 957 517 954 q 509 962 512 959 l 419 1091 l 272 966 q 259 957 265 960 q 245 952 253 954 q 228 950 237 950 q 204 949 218 949 q 184 951 191 949 q 175 956 177 953 q 176 962 173 958 q 185 972 178 966 l 379 1131 q 389 1137 384 1135 q 398 1142 393 1140 q 410 1145 404 1144 q 427 1145 417 1145 q 443 1145 437 1145 q 454 1142 450 1144 q 463 1137 459 1140 q 469 1131 466 1135 l 590 972 m -55 878 z "},"K":{"ha":701,"x_min":66,"x_max":753,"o":"m 753 863 q 747 847 753 856 q 729 829 741 839 l 336 459 l 591 40 q 599 24 597 30 q 601 15 601 19 q 600 7 601 10 q 594 1 598 3 q 582 -3 589 -1 q 561 -4 574 -4 q 538 -3 547 -4 q 524 0 530 -2 q 515 5 519 2 q 509 14 512 9 l 240 464 l 151 14 q 147 6 150 9 q 139 1 144 3 q 125 -3 134 -1 q 106 -4 117 -4 q 86 -3 94 -4 q 74 1 78 -1 q 68 6 69 3 q 68 14 66 9 l 237 864 q 241 871 238 868 q 250 877 244 875 q 263 880 255 879 q 283 882 271 882 q 302 880 294 882 q 314 877 310 879 q 320 871 319 875 q 321 864 321 868 l 241 465 l 656 864 q 667 872 661 869 q 680 878 673 876 q 695 881 686 880 q 715 882 704 882 q 735 880 728 882 q 747 877 743 879 q 752 871 751 874 q 753 863 753 867 z "},"Ķ":{"ha":701,"x_min":66,"x_max":753,"o":"m 753 863 q 747 847 753 856 q 729 829 741 839 l 336 459 l 591 40 q 599 24 597 30 q 601 15 601 19 q 600 7 601 10 q 594 1 598 3 q 582 -3 589 -1 q 561 -4 574 -4 q 538 -3 547 -4 q 524 0 530 -2 q 515 5 519 2 q 509 14 512 9 l 240 464 l 151 14 q 147 6 150 9 q 139 1 144 3 q 125 -3 134 -1 q 106 -4 117 -4 q 86 -3 94 -4 q 74 1 78 -1 q 68 6 69 3 q 68 14 66 9 l 237 864 q 241 871 238 868 q 250 877 244 875 q 263 880 255 879 q 283 882 271 882 q 302 880 294 882 q 314 877 310 879 q 320 871 319 875 q 321 864 321 868 l 241 465 l 656 864 q 667 872 661 869 q 680 878 673 876 q 695 881 686 880 q 715 882 704 882 q 735 880 728 882 q 747 877 743 879 q 752 871 751 874 q 753 863 753 867 m 241 -228 q 233 -238 237 -235 q 224 -244 229 -242 q 211 -247 218 -246 q 193 -248 203 -248 q 180 -246 184 -248 q 174 -242 175 -245 q 174 -234 172 -239 q 178 -222 175 -229 l 249 -81 q 256 -69 252 -74 q 267 -62 260 -64 q 281 -59 273 -60 q 304 -58 290 -58 q 323 -60 317 -58 q 332 -65 330 -62 q 333 -74 334 -69 q 328 -85 332 -79 l 241 -228 z "},"L":{"ha":582,"x_min":71,"x_max":514,"o":"m 514 56 q 513 47 514 52 q 511 35 513 41 q 508 22 510 28 q 503 11 506 16 q 495 3 499 6 q 484 0 490 0 l 103 0 q 91 2 97 0 q 79 9 84 4 q 73 22 75 14 q 73 43 71 31 l 237 864 q 241 871 238 868 q 250 877 244 875 q 263 880 255 879 q 283 882 271 882 q 302 880 294 882 q 314 877 310 879 q 319 871 318 875 q 320 864 321 868 l 163 75 l 499 75 q 510 70 507 75 q 514 56 514 65 z "},"Ĺ":{"ha":582,"x_min":71,"x_max":581,"o":"m 514 56 q 513 47 514 52 q 511 35 513 41 q 508 22 510 28 q 503 11 506 16 q 495 3 499 6 q 484 0 490 0 l 103 0 q 91 2 97 0 q 79 9 84 4 q 73 22 75 14 q 73 43 71 31 l 237 864 q 241 871 238 868 q 250 877 244 875 q 263 880 255 879 q 283 882 271 882 q 302 880 294 882 q 314 877 310 879 q 319 871 318 875 q 320 864 321 868 l 163 75 l 499 75 q 510 70 507 75 q 514 56 514 65 m 412 969 q 399 959 405 962 q 388 953 394 955 q 375 950 382 951 q 357 949 368 949 q 331 956 334 949 q 338 975 327 962 l 475 1123 q 489 1135 482 1131 q 504 1142 496 1139 q 520 1145 511 1144 q 542 1145 530 1145 q 565 1143 557 1145 q 577 1137 574 1141 q 580 1128 581 1133 q 573 1118 578 1123 l 412 969 m 87 878 z "},"Ľ":{"ha":582,"x_min":71,"x_max":591,"o":"m 514 56 q 513 47 514 52 q 511 35 513 41 q 508 22 510 28 q 503 11 506 16 q 495 3 499 6 q 484 0 490 0 l 103 0 q 91 2 97 0 q 79 9 84 4 q 73 22 75 14 q 73 43 71 31 l 237 864 q 241 871 238 868 q 250 877 244 875 q 263 880 255 879 q 283 882 271 882 q 302 880 294 882 q 314 877 310 879 q 319 871 318 875 q 320 864 321 868 l 163 75 l 499 75 q 510 70 507 75 q 514 56 514 65 m 481 676 q 476 671 479 673 q 469 668 473 669 q 457 666 464 667 q 439 665 450 665 q 428 666 432 665 q 422 669 424 667 q 419 674 420 671 q 420 680 419 677 l 512 888 q 518 898 515 894 q 528 904 522 902 q 543 907 534 906 q 564 908 551 908 q 580 907 574 908 q 589 904 586 906 q 591 897 591 901 q 587 888 590 893 l 481 676 m 237 642 z "},"Ļ":{"ha":582,"x_min":71,"x_max":514,"o":"m 514 56 q 513 47 514 52 q 511 35 513 41 q 508 22 510 28 q 503 11 506 16 q 495 3 499 6 q 484 0 490 0 l 103 0 q 91 2 97 0 q 79 9 84 4 q 73 22 75 14 q 73 43 71 31 l 237 864 q 241 871 238 868 q 250 877 244 875 q 263 880 255 879 q 283 882 271 882 q 302 880 294 882 q 314 877 310 879 q 319 871 318 875 q 320 864 321 868 l 163 75 l 499 75 q 510 70 507 75 q 514 56 514 65 m 222 -228 q 214 -238 218 -235 q 204 -244 210 -242 q 191 -247 199 -246 q 174 -248 184 -248 q 160 -246 165 -248 q 154 -242 155 -245 q 154 -234 153 -239 q 159 -222 155 -229 l 229 -81 q 237 -69 233 -74 q 247 -62 241 -64 q 262 -59 253 -60 q 284 -58 271 -58 q 304 -60 297 -58 q 313 -65 311 -62 q 313 -74 315 -69 q 309 -85 312 -79 l 222 -228 z "},"Ł":{"ha":595,"x_min":29,"x_max":527,"o":"m 527 56 q 526 47 527 52 q 524 35 526 41 q 521 22 523 28 q 515 11 519 16 q 507 3 512 6 q 496 0 503 0 l 115 0 q 90 10 99 0 q 85 43 81 20 l 156 393 l 50 333 q 34 331 39 326 q 29 347 29 336 q 30 357 29 351 q 32 368 31 362 q 35 379 33 374 q 39 390 37 385 q 44 399 41 395 q 50 405 47 403 l 172 473 l 250 864 q 254 871 251 868 q 262 877 257 875 q 275 880 267 879 q 296 882 283 882 q 315 880 307 882 q 327 877 323 879 q 333 871 332 875 q 333 864 334 868 l 265 524 l 450 627 q 465 629 460 633 q 469 615 469 625 q 469 607 469 612 q 467 596 468 602 q 464 584 466 590 q 460 572 463 577 q 455 562 458 566 q 449 555 452 557 l 249 445 l 175 75 l 512 75 q 524 70 520 75 q 527 56 527 64 z "},"Ŀ":{"ha":747,"x_min":71,"x_max":668,"o":"m 514 56 q 513 47 514 52 q 511 35 513 41 q 508 22 510 28 q 503 11 506 16 q 495 3 499 6 q 484 0 490 0 l 103 0 q 91 2 97 0 q 79 9 84 4 q 73 22 75 14 q 73 43 71 31 l 237 864 q 241 871 238 868 q 250 877 244 875 q 263 880 255 879 q 283 882 271 882 q 302 880 294 882 q 314 877 310 879 q 319 871 318 875 q 320 864 321 868 l 163 75 l 499 75 q 510 70 507 75 q 514 56 514 65 m 668 483 q 666 462 668 473 q 661 440 665 451 q 653 419 658 429 q 643 404 649 410 q 620 392 633 394 q 594 390 606 390 q 570 392 580 390 q 555 399 561 394 q 547 410 549 404 q 545 427 545 417 q 547 448 545 437 q 552 470 549 459 q 560 490 555 481 q 569 503 564 498 q 587 514 576 510 q 619 518 597 518 q 646 515 636 518 q 661 508 656 513 q 667 497 665 503 q 668 483 668 490 z "},"M":{"ha":1173,"x_min":66,"x_max":1150,"o":"m 985 14 q 981 6 983 9 q 972 1 978 3 q 959 -3 967 -1 q 939 -4 951 -4 q 920 -3 928 -4 q 908 1 912 -1 q 902 6 903 3 q 901 14 901 9 l 1060 805 l 1059 805 l 553 9 q 540 0 549 3 q 513 -4 531 -4 q 486 0 494 -4 q 478 9 479 3 l 309 805 l 308 805 l 150 14 q 146 6 149 9 q 138 1 143 3 q 124 -3 132 -1 q 104 -4 116 -4 q 85 -3 93 -4 q 73 1 77 -1 q 68 6 69 3 q 68 14 66 9 l 231 835 q 239 855 233 847 q 251 868 244 863 q 265 876 258 873 q 278 878 272 878 l 322 878 q 350 874 339 878 q 369 863 361 870 q 381 845 377 856 q 389 821 386 835 l 538 125 l 542 125 l 983 821 q 1000 844 991 834 q 1019 862 1008 854 q 1042 873 1029 869 q 1069 878 1054 878 l 1119 878 q 1131 876 1125 878 q 1142 868 1137 873 q 1148 855 1147 863 q 1148 835 1150 847 l 985 14 z "},"N":{"ha":886,"x_min":66,"x_max":868,"o":"m 703 40 q 695 20 701 28 q 684 6 690 12 q 671 -1 677 1 q 658 -3 664 -3 l 631 -3 q 607 1 617 -3 q 589 13 597 5 q 574 35 581 22 q 561 68 568 48 l 377 577 q 339 682 358 629 q 303 786 321 734 l 302 786 q 281 673 292 730 q 259 559 271 616 l 151 14 q 147 6 150 9 q 138 1 144 3 q 124 -3 133 -1 q 104 -4 116 -4 q 85 -3 93 -4 q 73 1 77 -1 q 68 6 69 3 q 68 14 66 9 l 231 835 q 251 868 236 859 q 278 878 266 878 l 311 878 q 333 875 323 878 q 351 865 343 872 q 365 846 358 858 q 378 814 371 833 l 564 298 q 599 202 582 250 q 633 106 616 154 l 635 106 q 658 229 646 165 q 682 352 670 293 l 785 861 q 788 869 785 865 q 796 874 791 872 q 809 878 801 877 q 829 879 817 879 q 848 878 840 879 q 860 874 856 877 q 866 869 865 872 q 867 861 868 865 l 703 40 z "},"Ń":{"ha":886,"x_min":66,"x_max":868,"o":"m 703 40 q 695 20 701 28 q 684 6 690 12 q 671 -1 677 1 q 658 -3 664 -3 l 631 -3 q 607 1 617 -3 q 589 13 597 5 q 574 35 581 22 q 561 68 568 48 l 377 577 q 339 682 358 629 q 303 786 321 734 l 302 786 q 281 673 292 730 q 259 559 271 616 l 151 14 q 147 6 150 9 q 138 1 144 3 q 124 -3 133 -1 q 104 -4 116 -4 q 85 -3 93 -4 q 73 1 77 -1 q 68 6 69 3 q 68 14 66 9 l 231 835 q 251 868 236 859 q 278 878 266 878 l 311 878 q 333 875 323 878 q 351 865 343 872 q 365 846 358 858 q 378 814 371 833 l 564 298 q 599 202 582 250 q 633 106 616 154 l 635 106 q 658 229 646 165 q 682 352 670 293 l 785 861 q 788 869 785 865 q 796 874 791 872 q 809 878 801 877 q 829 879 817 879 q 848 878 840 879 q 860 874 856 877 q 866 869 865 872 q 867 861 868 865 l 703 40 m 621 969 q 608 959 614 962 q 597 953 603 955 q 584 950 591 951 q 566 949 576 949 q 539 956 543 949 q 547 975 536 962 l 684 1123 q 698 1135 691 1131 q 712 1142 705 1139 q 729 1145 720 1144 q 751 1145 739 1145 q 774 1143 766 1145 q 786 1137 783 1141 q 789 1128 790 1133 q 782 1118 787 1123 l 621 969 m 296 878 z "},"Ň":{"ha":886,"x_min":66,"x_max":868,"o":"m 703 40 q 695 20 701 28 q 684 6 690 12 q 671 -1 677 1 q 658 -3 664 -3 l 631 -3 q 607 1 617 -3 q 589 13 597 5 q 574 35 581 22 q 561 68 568 48 l 377 577 q 339 682 358 629 q 303 786 321 734 l 302 786 q 281 673 292 730 q 259 559 271 616 l 151 14 q 147 6 150 9 q 138 1 144 3 q 124 -3 133 -1 q 104 -4 116 -4 q 85 -3 93 -4 q 73 1 77 -1 q 68 6 69 3 q 68 14 66 9 l 231 835 q 251 868 236 859 q 278 878 266 878 l 311 878 q 333 875 323 878 q 351 865 343 872 q 365 846 358 858 q 378 814 371 833 l 564 298 q 599 202 582 250 q 633 106 616 154 l 635 106 q 658 229 646 165 q 682 352 670 293 l 785 861 q 788 869 785 865 q 796 874 791 872 q 809 878 801 877 q 829 879 817 879 q 848 878 840 879 q 860 874 856 877 q 866 869 865 872 q 867 861 868 865 l 703 40 m 619 964 q 610 958 614 960 q 600 953 605 955 q 587 950 594 951 q 571 949 581 949 q 554 950 561 949 q 543 952 548 951 q 535 957 538 954 q 528 964 532 960 l 409 1123 q 405 1133 405 1128 q 409 1140 405 1137 q 419 1144 412 1143 q 437 1145 427 1145 q 461 1144 452 1145 q 475 1142 470 1143 q 482 1138 479 1141 q 487 1133 484 1135 l 578 1003 l 726 1129 q 738 1137 732 1134 q 752 1142 744 1141 q 770 1145 760 1144 q 793 1145 780 1145 q 813 1144 806 1145 q 823 1139 821 1142 q 822 1132 825 1137 q 814 1123 820 1128 l 619 964 m 141 878 z "},"Ñ":{"ha":886,"x_min":66,"x_max":868,"o":"m 703 40 q 695 20 701 28 q 684 6 690 12 q 671 -1 677 1 q 658 -3 664 -3 l 631 -3 q 607 1 617 -3 q 589 13 597 5 q 574 35 581 22 q 561 68 568 48 l 377 577 q 339 682 358 629 q 303 786 321 734 l 302 786 q 281 673 292 730 q 259 559 271 616 l 151 14 q 147 6 150 9 q 138 1 144 3 q 124 -3 133 -1 q 104 -4 116 -4 q 85 -3 93 -4 q 73 1 77 -1 q 68 6 69 3 q 68 14 66 9 l 231 835 q 251 868 236 859 q 278 878 266 878 l 311 878 q 333 875 323 878 q 351 865 343 872 q 365 846 358 858 q 378 814 371 833 l 564 298 q 599 202 582 250 q 633 106 616 154 l 635 106 q 658 229 646 165 q 682 352 670 293 l 785 861 q 788 869 785 865 q 796 874 791 872 q 809 878 801 877 q 829 879 817 879 q 848 878 840 879 q 860 874 856 877 q 866 869 865 872 q 867 861 868 865 l 703 40 m 743 1086 q 746 1093 744 1090 q 753 1097 749 1095 q 765 1099 758 1099 q 781 1100 772 1100 q 806 1096 800 1100 q 811 1084 811 1091 q 810 1070 811 1081 q 805 1044 809 1059 q 792 1013 800 1029 q 768 982 783 996 q 731 959 753 968 q 675 949 708 949 q 615 962 641 949 q 569 991 590 975 q 528 1019 548 1006 q 486 1032 509 1032 q 439 1013 453 1032 q 421 963 425 994 q 418 957 420 960 q 411 953 416 955 q 400 950 407 951 q 385 949 393 949 q 359 953 366 949 q 353 966 353 957 q 355 987 353 974 q 363 1016 357 1001 q 379 1046 369 1031 q 404 1073 389 1061 q 440 1093 419 1085 q 490 1100 461 1100 q 550 1087 525 1100 q 596 1059 575 1074 q 636 1030 616 1043 q 679 1017 656 1017 q 722 1033 705 1017 q 743 1086 739 1048 m 121 878 z "},"Ņ":{"ha":886,"x_min":66,"x_max":868,"o":"m 703 40 q 695 20 701 28 q 684 6 690 12 q 671 -1 677 1 q 658 -3 664 -3 l 631 -3 q 607 1 617 -3 q 589 13 597 5 q 574 35 581 22 q 561 68 568 48 l 377 577 q 339 682 358 629 q 303 786 321 734 l 302 786 q 281 673 292 730 q 259 559 271 616 l 151 14 q 147 6 150 9 q 138 1 144 3 q 124 -3 133 -1 q 104 -4 116 -4 q 85 -3 93 -4 q 73 1 77 -1 q 68 6 69 3 q 68 14 66 9 l 231 835 q 251 868 236 859 q 278 878 266 878 l 311 878 q 333 875 323 878 q 351 865 343 872 q 365 846 358 858 q 378 814 371 833 l 564 298 q 599 202 582 250 q 633 106 616 154 l 635 106 q 658 229 646 165 q 682 352 670 293 l 785 861 q 788 869 785 865 q 796 874 791 872 q 809 878 801 877 q 829 879 817 879 q 848 878 840 879 q 860 874 856 877 q 866 869 865 872 q 867 861 868 865 l 703 40 m 296 -228 q 288 -238 292 -235 q 278 -244 283 -242 q 265 -247 273 -246 q 248 -248 258 -248 q 234 -246 239 -248 q 228 -242 229 -245 q 228 -234 227 -239 q 233 -222 229 -229 l 303 -81 q 311 -69 307 -74 q 321 -62 315 -64 q 336 -59 327 -60 q 358 -58 345 -58 q 378 -60 371 -58 q 387 -65 385 -62 q 387 -74 389 -69 q 382 -85 386 -79 l 296 -228 z "},"Ŋ":{"ha":863,"x_min":66,"x_max":844,"o":"m 664 -31 q 638 -121 654 -81 q 598 -190 623 -161 q 538 -233 573 -218 q 454 -248 503 -248 q 398 -243 422 -248 q 366 -230 374 -239 q 362 -223 363 -227 q 361 -216 361 -220 q 361 -208 361 -213 q 363 -197 362 -203 q 366 -185 364 -191 q 371 -174 368 -179 q 377 -166 374 -170 q 386 -163 381 -163 q 397 -165 392 -163 q 409 -170 401 -168 q 428 -175 416 -173 q 459 -177 439 -177 q 503 -170 484 -177 q 536 -146 522 -163 q 561 -101 550 -129 q 581 -34 572 -74 l 589 0 l 374 589 q 338 686 355 637 q 304 785 321 735 l 303 785 q 275 636 290 711 q 246 494 260 562 l 151 14 q 147 6 150 9 q 139 1 144 3 q 125 -3 134 -1 q 106 -4 117 -4 q 86 -3 94 -4 q 74 1 78 -1 q 68 6 69 3 q 68 14 66 9 l 231 835 q 251 868 237 859 q 278 878 266 878 l 314 878 q 337 874 328 878 q 353 865 346 871 q 364 849 359 859 q 374 826 369 840 l 530 402 q 574 276 551 342 q 618 149 597 211 l 620 149 q 632 216 625 181 q 645 287 638 251 q 660 358 652 322 q 674 430 667 395 l 761 861 q 764 869 762 865 q 771 874 766 872 q 784 878 776 877 q 804 879 791 879 q 823 878 814 879 q 836 874 831 877 q 842 869 840 872 q 844 861 844 865 l 664 -31 z "},"O":{"ha":899,"x_min":85,"x_max":863,"o":"m 863 583 q 854 472 863 535 q 824 343 845 410 q 767 214 802 277 q 678 100 731 150 q 551 19 625 50 q 381 -12 477 -12 q 251 8 307 -12 q 158 67 195 28 q 103 161 121 106 q 85 288 85 217 q 94 410 85 344 q 126 542 104 475 q 185 671 149 609 q 275 782 222 734 q 401 860 329 831 q 568 889 473 889 q 697 868 642 889 q 789 808 752 847 q 844 712 826 768 q 863 583 863 655 m 772 580 q 761 674 772 631 q 724 748 749 717 q 655 797 698 779 q 552 814 613 814 q 418 787 475 814 q 318 714 360 759 q 249 613 276 669 q 205 498 221 556 q 182 387 189 441 q 175 296 175 334 q 186 202 175 244 q 224 129 198 159 q 293 81 251 98 q 397 64 336 64 q 530 92 473 64 q 629 163 587 119 q 699 263 671 207 q 743 376 726 319 q 766 486 759 433 q 772 580 772 540 z "},"Ò":{"ha":899,"x_min":85,"x_max":863,"o":"m 863 583 q 854 472 863 535 q 824 343 845 410 q 767 214 802 277 q 678 100 731 150 q 551 19 625 50 q 381 -12 477 -12 q 251 8 307 -12 q 158 67 195 28 q 103 161 121 106 q 85 288 85 217 q 94 410 85 344 q 126 542 104 475 q 185 671 149 609 q 275 782 222 734 q 401 860 329 831 q 568 889 473 889 q 697 868 642 889 q 789 808 752 847 q 844 712 826 768 q 863 583 863 655 m 772 580 q 761 674 772 631 q 724 748 749 717 q 655 797 698 779 q 552 814 613 814 q 418 787 475 814 q 318 714 360 759 q 249 613 276 669 q 205 498 221 556 q 182 387 189 441 q 175 296 175 334 q 186 202 175 244 q 224 129 198 159 q 293 81 251 98 q 397 64 336 64 q 530 92 473 64 q 629 163 587 119 q 699 263 671 207 q 743 376 726 319 q 766 486 759 433 q 772 580 772 540 m 601 975 q 608 964 606 968 q 607 956 610 959 q 597 951 604 953 q 580 949 591 949 q 563 950 570 949 q 550 953 556 951 q 539 959 545 955 q 527 969 534 962 l 378 1118 q 372 1128 373 1123 q 376 1137 372 1133 q 389 1143 380 1141 q 412 1145 398 1145 q 434 1145 425 1145 q 451 1142 443 1144 q 465 1135 458 1139 q 477 1123 471 1131 l 601 975 m 122 878 z "},"Ó":{"ha":899,"x_min":85,"x_max":863,"o":"m 863 583 q 854 472 863 535 q 824 343 845 410 q 767 214 802 277 q 678 100 731 150 q 551 19 625 50 q 381 -12 477 -12 q 251 8 307 -12 q 158 67 195 28 q 103 161 121 106 q 85 288 85 217 q 94 410 85 344 q 126 542 104 475 q 185 671 149 609 q 275 782 222 734 q 401 860 329 831 q 568 889 473 889 q 697 868 642 889 q 789 808 752 847 q 844 712 826 768 q 863 583 863 655 m 772 580 q 761 674 772 631 q 724 748 749 717 q 655 797 698 779 q 552 814 613 814 q 418 787 475 814 q 318 714 360 759 q 249 613 276 669 q 205 498 221 556 q 182 387 189 441 q 175 296 175 334 q 186 202 175 244 q 224 129 198 159 q 293 81 251 98 q 397 64 336 64 q 530 92 473 64 q 629 163 587 119 q 699 263 671 207 q 743 376 726 319 q 766 486 759 433 q 772 580 772 540 m 597 969 q 584 959 589 962 q 572 953 578 955 q 559 950 566 951 q 542 949 552 949 q 515 956 519 949 q 523 975 511 962 l 660 1123 q 673 1135 667 1131 q 688 1142 680 1139 q 705 1145 696 1144 q 726 1145 714 1145 q 750 1143 741 1145 q 762 1137 758 1141 q 764 1128 766 1133 q 758 1118 763 1123 l 597 969 m 271 878 z "},"Ô":{"ha":899,"x_min":85,"x_max":863,"o":"m 863 583 q 854 472 863 535 q 824 343 845 410 q 767 214 802 277 q 678 100 731 150 q 551 19 625 50 q 381 -12 477 -12 q 251 8 307 -12 q 158 67 195 28 q 103 161 121 106 q 85 288 85 217 q 94 410 85 344 q 126 542 104 475 q 185 671 149 609 q 275 782 222 734 q 401 860 329 831 q 568 889 473 889 q 697 868 642 889 q 789 808 752 847 q 844 712 826 768 q 863 583 863 655 m 772 580 q 761 674 772 631 q 724 748 749 717 q 655 797 698 779 q 552 814 613 814 q 418 787 475 814 q 318 714 360 759 q 249 613 276 669 q 205 498 221 556 q 182 387 189 441 q 175 296 175 334 q 186 202 175 244 q 224 129 198 159 q 293 81 251 98 q 397 64 336 64 q 530 92 473 64 q 629 163 587 119 q 699 263 671 207 q 743 376 726 319 q 766 486 759 433 q 772 580 772 540 m 785 972 q 788 962 788 966 q 783 955 787 958 q 772 951 779 952 q 755 949 766 949 q 731 950 740 949 q 717 953 722 951 q 709 957 712 954 q 704 962 707 959 l 614 1091 l 467 966 q 454 957 460 960 q 440 952 448 954 q 422 950 432 950 q 399 949 412 949 q 379 951 386 949 q 370 956 372 953 q 370 962 368 958 q 380 972 373 966 l 574 1131 q 583 1137 578 1135 q 593 1142 588 1140 q 605 1145 598 1144 q 621 1145 612 1145 q 638 1145 631 1145 q 649 1142 644 1144 q 657 1137 654 1140 q 664 1131 661 1135 l 785 972 m 140 878 z "},"Õ":{"ha":899,"x_min":85,"x_max":863,"o":"m 863 583 q 854 472 863 535 q 824 343 845 410 q 767 214 802 277 q 678 100 731 150 q 551 19 625 50 q 381 -12 477 -12 q 251 8 307 -12 q 158 67 195 28 q 103 161 121 106 q 85 288 85 217 q 94 410 85 344 q 126 542 104 475 q 185 671 149 609 q 275 782 222 734 q 401 860 329 831 q 568 889 473 889 q 697 868 642 889 q 789 808 752 847 q 844 712 826 768 q 863 583 863 655 m 772 580 q 761 674 772 631 q 724 748 749 717 q 655 797 698 779 q 552 814 613 814 q 418 787 475 814 q 318 714 360 759 q 249 613 276 669 q 205 498 221 556 q 182 387 189 441 q 175 296 175 334 q 186 202 175 244 q 224 129 198 159 q 293 81 251 98 q 397 64 336 64 q 530 92 473 64 q 629 163 587 119 q 699 263 671 207 q 743 376 726 319 q 766 486 759 433 q 772 580 772 540 m 752 1086 q 755 1093 753 1090 q 762 1097 758 1095 q 774 1099 767 1099 q 789 1100 781 1100 q 814 1096 809 1100 q 820 1084 820 1091 q 819 1070 820 1081 q 813 1044 818 1059 q 801 1013 809 1029 q 777 982 792 996 q 740 959 762 968 q 684 949 717 949 q 624 962 650 949 q 578 991 599 975 q 537 1019 557 1006 q 494 1032 517 1032 q 448 1013 462 1032 q 430 963 433 994 q 427 957 429 960 q 420 953 425 955 q 409 950 416 951 q 393 949 402 949 q 368 953 374 949 q 362 966 362 957 q 364 987 362 974 q 372 1016 366 1001 q 388 1046 378 1031 q 413 1073 397 1061 q 449 1093 428 1085 q 499 1100 470 1100 q 559 1087 534 1100 q 605 1059 584 1074 q 645 1030 625 1043 q 688 1017 665 1017 q 731 1033 714 1017 q 752 1086 748 1048 m 130 878 z "},"Ö":{"ha":899,"x_min":85,"x_max":863,"o":"m 863 583 q 854 472 863 535 q 824 343 845 410 q 767 214 802 277 q 678 100 731 150 q 551 19 625 50 q 381 -12 477 -12 q 251 8 307 -12 q 158 67 195 28 q 103 161 121 106 q 85 288 85 217 q 94 410 85 344 q 126 542 104 475 q 185 671 149 609 q 275 782 222 734 q 401 860 329 831 q 568 889 473 889 q 697 868 642 889 q 789 808 752 847 q 844 712 826 768 q 863 583 863 655 m 772 580 q 761 674 772 631 q 724 748 749 717 q 655 797 698 779 q 552 814 613 814 q 418 787 475 814 q 318 714 360 759 q 249 613 276 669 q 205 498 221 556 q 182 387 189 441 q 175 296 175 334 q 186 202 175 244 q 224 129 198 159 q 293 81 251 98 q 397 64 336 64 q 530 92 473 64 q 629 163 587 119 q 699 263 671 207 q 743 376 726 319 q 766 486 759 433 q 772 580 772 540 m 783 1035 q 777 1009 781 1019 q 765 991 772 998 q 748 982 758 985 q 722 979 737 979 q 696 982 706 979 q 682 991 687 985 q 676 1009 677 998 q 677 1035 675 1019 q 683 1061 680 1050 q 694 1078 687 1072 q 712 1087 701 1084 q 738 1090 722 1090 q 763 1087 753 1090 q 778 1078 772 1084 q 784 1061 783 1072 q 783 1035 785 1050 m 511 1035 q 505 1009 509 1019 q 494 991 501 998 q 476 982 487 985 q 450 979 465 979 q 425 982 434 979 q 410 991 415 985 q 404 1009 405 998 q 406 1035 404 1019 q 412 1061 408 1050 q 422 1078 416 1072 q 440 1087 429 1084 q 467 1090 451 1090 q 492 1087 482 1090 q 506 1078 501 1084 q 512 1061 511 1072 q 511 1035 513 1050 m 161 878 z "},"Ō":{"ha":899,"x_min":85,"x_max":863,"o":"m 863 583 q 854 472 863 535 q 824 343 845 410 q 767 214 802 277 q 678 100 731 150 q 551 19 625 50 q 381 -12 477 -12 q 251 8 307 -12 q 158 67 195 28 q 103 161 121 106 q 85 288 85 217 q 94 410 85 344 q 126 542 104 475 q 185 671 149 609 q 275 782 222 734 q 401 860 329 831 q 568 889 473 889 q 697 868 642 889 q 789 808 752 847 q 844 712 826 768 q 863 583 863 655 m 772 580 q 761 674 772 631 q 724 748 749 717 q 655 797 698 779 q 552 814 613 814 q 418 787 475 814 q 318 714 360 759 q 249 613 276 669 q 205 498 221 556 q 182 387 189 441 q 175 296 175 334 q 186 202 175 244 q 224 129 198 159 q 293 81 251 98 q 397 64 336 64 q 530 92 473 64 q 629 163 587 119 q 699 263 671 207 q 743 376 726 319 q 766 486 759 433 q 772 580 772 540 m 789 1051 q 789 1041 789 1046 q 786 1029 788 1035 q 782 1018 785 1023 q 777 1008 780 1012 q 770 1001 774 1004 q 763 998 767 998 l 410 998 q 399 1002 403 998 q 396 1017 396 1006 q 397 1026 396 1021 q 398 1037 397 1031 q 402 1049 399 1043 q 407 1059 404 1055 q 414 1066 410 1063 q 424 1069 418 1069 l 777 1069 q 787 1064 784 1069 q 789 1051 789 1059 m 153 878 z "},"Ŏ":{"ha":899,"x_min":85,"x_max":863,"o":"m 863 583 q 854 472 863 535 q 824 343 845 410 q 767 214 802 277 q 678 100 731 150 q 551 19 625 50 q 381 -12 477 -12 q 251 8 307 -12 q 158 67 195 28 q 103 161 121 106 q 85 288 85 217 q 94 410 85 344 q 126 542 104 475 q 185 671 149 609 q 275 782 222 734 q 401 860 329 831 q 568 889 473 889 q 697 868 642 889 q 789 808 752 847 q 844 712 826 768 q 863 583 863 655 m 772 580 q 761 674 772 631 q 724 748 749 717 q 655 797 698 779 q 552 814 613 814 q 418 787 475 814 q 318 714 360 759 q 249 613 276 669 q 205 498 221 556 q 182 387 189 441 q 175 296 175 334 q 186 202 175 244 q 224 129 198 159 q 293 81 251 98 q 397 64 336 64 q 530 92 473 64 q 629 163 587 119 q 699 263 671 207 q 743 376 726 319 q 766 486 759 433 q 772 580 772 540 m 775 1133 q 772 1108 775 1125 q 761 1072 769 1092 q 738 1030 752 1051 q 703 990 724 1008 q 651 961 682 972 q 581 949 621 949 q 515 960 541 949 q 472 987 488 970 q 450 1027 456 1004 q 443 1075 443 1050 q 444 1091 443 1081 q 446 1110 445 1101 q 450 1128 448 1120 q 454 1138 452 1136 q 468 1144 459 1143 q 484 1145 476 1145 q 499 1145 493 1145 q 508 1142 505 1144 q 513 1138 511 1141 q 515 1133 515 1136 q 513 1115 515 1124 q 512 1094 512 1105 q 515 1063 512 1077 q 527 1038 519 1048 q 550 1023 535 1028 q 587 1017 564 1017 q 626 1023 607 1017 q 661 1042 645 1029 q 690 1076 677 1055 q 711 1129 703 1097 q 714 1136 711 1133 q 721 1141 716 1139 q 731 1144 725 1143 q 747 1145 738 1145 q 762 1144 757 1145 q 771 1142 768 1143 q 774 1138 774 1141 q 775 1133 775 1135 m 186 878 z "},"Ő":{"ha":899,"x_min":85,"x_max":897,"o":"m 863 583 q 854 472 863 535 q 824 343 845 410 q 767 214 802 277 q 678 100 731 150 q 551 19 625 50 q 381 -12 477 -12 q 251 8 307 -12 q 158 67 195 28 q 103 161 121 106 q 85 288 85 217 q 94 410 85 344 q 126 542 104 475 q 185 671 149 609 q 275 782 222 734 q 401 860 329 831 q 568 889 473 889 q 697 868 642 889 q 789 808 752 847 q 844 712 826 768 q 863 583 863 655 m 772 580 q 761 674 772 631 q 724 748 749 717 q 655 797 698 779 q 552 814 613 814 q 418 787 475 814 q 318 714 360 759 q 249 613 276 669 q 205 498 221 556 q 182 387 189 441 q 175 296 175 334 q 186 202 175 244 q 224 129 198 159 q 293 81 251 98 q 397 64 336 64 q 530 92 473 64 q 629 163 587 119 q 699 263 671 207 q 743 376 726 319 q 766 486 759 433 q 772 580 772 540 m 735 963 q 727 956 730 958 q 718 951 723 953 q 706 950 713 950 q 689 949 699 949 q 674 951 680 949 q 664 955 667 952 q 660 961 661 957 q 663 968 659 964 l 789 1129 q 798 1137 793 1134 q 810 1142 803 1140 q 826 1145 817 1144 q 850 1145 836 1145 q 877 1143 867 1145 q 892 1138 887 1141 q 896 1130 897 1134 q 891 1122 895 1126 l 735 963 m 496 963 q 487 956 492 958 q 476 951 482 953 q 463 950 471 950 q 445 949 455 949 q 425 955 431 949 q 425 968 419 961 l 549 1129 q 557 1137 553 1134 q 568 1142 562 1140 q 583 1145 574 1144 q 606 1145 592 1145 q 638 1144 626 1145 q 654 1138 650 1142 q 657 1129 659 1135 q 648 1116 655 1124 l 496 963 m 178 878 z "},"Ø":{"ha":899,"x_min":24,"x_max":923,"o":"m 165 63 q 104 158 125 102 q 84 288 84 214 q 94 410 84 344 q 126 542 104 475 q 184 671 148 609 q 275 782 221 734 q 400 860 328 831 q 567 889 473 889 q 650 882 612 889 q 719 859 688 874 l 832 1022 q 853 1034 839 1031 q 891 1036 867 1036 q 911 1034 904 1036 q 921 1027 918 1031 q 921 1017 923 1023 q 914 1003 919 1010 l 782 814 q 843 718 823 775 q 863 590 863 660 q 853 468 863 534 q 821 335 843 402 q 762 206 798 269 q 672 95 725 144 q 546 18 618 47 q 381 -12 474 -12 q 297 -4 336 -12 q 228 19 258 3 l 115 -144 q 95 -156 109 -153 q 59 -159 81 -159 q 37 -156 45 -159 q 26 -150 29 -154 q 25 -139 24 -145 q 33 -125 27 -133 l 165 63 m 274 87 q 328 68 297 75 q 395 62 359 62 q 529 90 471 62 q 629 162 587 117 q 699 264 671 208 q 743 379 727 321 q 766 490 760 437 q 773 582 773 543 q 764 670 773 629 q 730 742 754 711 l 274 87 m 673 791 q 618 809 648 803 q 552 816 588 816 q 448 800 494 816 q 363 756 401 784 q 298 692 326 728 q 248 613 269 655 q 212 528 227 572 q 190 441 198 484 q 177 362 181 399 q 174 296 174 324 q 183 207 174 248 q 216 136 193 165 l 673 791 z "},"Ǿ":{"ha":899,"x_min":24,"x_max":923,"o":"m 165 63 q 104 158 125 102 q 84 288 84 214 q 94 410 84 344 q 126 542 104 475 q 184 671 148 609 q 275 782 221 734 q 400 860 328 831 q 567 889 473 889 q 650 882 612 889 q 719 859 688 874 l 832 1022 q 853 1034 839 1031 q 891 1036 867 1036 q 911 1034 904 1036 q 921 1027 918 1031 q 921 1017 923 1023 q 914 1003 919 1010 l 782 814 q 843 718 823 775 q 863 590 863 660 q 853 468 863 534 q 821 335 843 402 q 762 206 798 269 q 672 95 725 144 q 546 18 618 47 q 381 -12 474 -12 q 297 -4 336 -12 q 228 19 258 3 l 115 -144 q 95 -156 109 -153 q 59 -159 81 -159 q 37 -156 45 -159 q 26 -150 29 -154 q 25 -139 24 -145 q 33 -125 27 -133 l 165 63 m 274 87 q 328 68 297 75 q 395 62 359 62 q 529 90 471 62 q 629 162 587 117 q 699 264 671 208 q 743 379 727 321 q 766 490 760 437 q 773 582 773 543 q 764 670 773 629 q 730 742 754 711 l 274 87 m 673 791 q 618 809 648 803 q 552 816 588 816 q 448 800 494 816 q 363 756 401 784 q 298 692 326 728 q 248 613 269 655 q 212 528 227 572 q 190 441 198 484 q 177 362 181 399 q 174 296 174 324 q 183 207 174 248 q 216 136 193 165 l 673 791 m 551 969 q 538 959 544 962 q 527 953 533 955 q 514 950 521 951 q 496 949 507 949 q 470 956 473 949 q 477 975 466 962 l 614 1123 q 628 1135 621 1131 q 643 1142 635 1139 q 660 1145 650 1144 q 681 1145 669 1145 q 704 1143 696 1145 q 716 1137 713 1141 q 719 1128 720 1133 q 712 1118 718 1123 l 551 969 m 226 878 z "},"Œ":{"ha":1198,"x_min":84,"x_max":1218,"o":"m 1063 54 q 1063 45 1063 51 q 1061 34 1063 40 q 1058 22 1060 28 q 1053 11 1056 16 q 1045 3 1050 6 q 1034 0 1040 0 l 623 0 q 612 2 618 0 q 601 8 606 3 q 593 19 596 12 q 592 37 591 26 q 496 1 547 13 q 385 -12 444 -12 q 273 2 321 -12 q 193 37 226 15 q 138 90 159 60 q 105 152 117 119 q 89 219 93 185 q 84 286 84 254 q 94 412 84 345 q 127 547 104 480 q 187 676 150 614 q 277 785 224 738 q 403 861 331 832 q 568 889 475 889 q 622 886 595 889 q 672 877 648 882 q 717 863 696 871 q 755 845 739 854 q 774 871 762 864 q 798 878 787 878 l 1203 878 q 1215 872 1212 878 q 1218 857 1218 867 q 1217 847 1218 852 q 1215 836 1217 842 q 1212 824 1214 830 q 1206 814 1210 819 q 1199 806 1203 809 q 1188 804 1194 804 l 828 804 l 767 494 l 1077 494 q 1089 489 1086 494 q 1093 474 1093 484 q 1092 465 1093 470 q 1090 453 1091 459 q 1086 441 1088 448 q 1080 431 1084 435 q 1073 423 1077 426 q 1062 420 1068 420 l 751 420 l 682 74 l 1048 74 q 1060 69 1056 74 q 1063 54 1063 64 m 736 754 q 656 798 702 781 q 553 814 610 814 q 417 786 475 814 q 317 713 359 758 q 247 611 275 668 q 203 497 220 555 q 181 387 187 439 q 174 298 174 334 q 187 197 174 240 q 228 124 200 153 q 298 79 255 94 q 399 64 340 64 q 453 68 426 64 q 507 81 480 73 q 560 103 534 90 q 612 134 587 116 l 736 754 z "},"P":{"ha":705,"x_min":66,"x_max":701,"o":"m 701 676 q 692 603 701 641 q 666 529 684 565 q 621 460 648 492 q 556 402 594 427 q 470 363 518 378 q 354 349 421 349 l 218 349 l 151 14 q 147 6 150 9 q 139 1 144 3 q 125 -3 134 -1 q 106 -4 117 -4 q 88 -3 96 -4 q 75 0 80 -2 q 68 5 71 2 q 68 14 66 9 l 231 835 q 251 868 236 859 q 284 878 267 878 l 447 878 q 505 875 480 878 q 553 867 530 873 q 615 842 588 859 q 662 801 643 825 q 691 745 681 777 q 701 676 701 713 m 612 669 q 589 749 612 715 q 517 796 566 783 q 478 802 499 801 q 435 804 457 804 l 308 804 l 233 422 l 359 422 q 449 434 412 422 q 513 465 486 446 q 559 510 540 484 q 590 563 578 535 q 607 617 602 590 q 612 669 612 645 z "},"Þ":{"ha":705,"x_min":66,"x_max":671,"o":"m 671 530 q 661 446 671 487 q 632 367 651 404 q 584 299 612 330 q 518 245 555 268 q 435 210 481 222 q 327 197 390 197 l 187 197 l 150 12 q 146 4 149 7 q 138 -2 143 1 q 124 -5 132 -4 q 104 -6 116 -6 q 85 -5 93 -6 q 73 -2 77 -4 q 67 4 68 1 q 66 12 66 7 l 237 865 q 241 873 238 869 q 249 878 243 876 q 262 882 254 880 q 281 883 270 883 q 301 882 294 883 q 314 878 309 880 q 320 873 318 876 q 321 865 321 869 l 293 726 l 417 726 q 478 723 454 726 q 524 715 502 721 q 593 685 565 705 q 638 640 621 665 q 664 586 656 614 q 671 530 671 557 m 582 513 q 577 555 582 534 q 561 593 572 576 q 531 624 550 611 q 486 645 513 637 q 444 651 467 650 q 395 652 421 652 l 278 652 l 202 271 l 328 271 q 453 296 407 271 q 528 358 500 321 q 569 437 557 395 q 582 513 582 479 z "},"Q":{"ha":913,"x_min":84,"x_max":868,"o":"m 868 -58 q 867 -70 868 -63 q 865 -82 867 -76 q 861 -94 863 -88 q 855 -103 859 -99 q 848 -110 852 -108 q 840 -113 844 -113 q 822 -109 834 -113 q 792 -96 810 -104 q 752 -75 774 -88 q 706 -45 730 -62 q 655 -5 681 -27 q 604 43 629 16 q 503 2 557 16 q 380 -12 448 -12 q 250 8 306 -12 q 158 67 195 28 q 102 161 121 106 q 84 288 84 217 q 94 410 84 344 q 125 542 103 475 q 184 671 148 609 q 275 782 221 734 q 400 860 328 831 q 567 889 473 889 q 696 868 641 889 q 788 808 751 847 q 844 712 825 768 q 862 583 862 655 q 858 512 862 551 q 846 430 854 473 q 822 341 837 387 q 787 253 808 296 q 737 169 766 209 q 670 93 709 128 q 744 31 711 54 q 802 -6 777 7 q 841 -26 826 -20 q 861 -37 857 -33 q 867 -45 865 -41 q 868 -58 868 -49 m 772 580 q 760 674 772 631 q 723 748 749 717 q 655 797 697 779 q 551 814 612 814 q 417 787 475 814 q 317 714 359 759 q 248 613 275 669 q 204 498 220 556 q 181 387 188 441 q 174 296 174 334 q 186 202 174 244 q 224 129 197 159 q 293 81 250 98 q 396 64 335 64 q 529 92 472 64 q 628 163 587 119 q 698 263 670 207 q 742 376 726 319 q 765 486 758 433 q 772 580 772 540 z "},"R":{"ha":739,"x_min":66,"x_max":693,"o":"m 693 698 q 679 608 693 650 q 637 532 665 566 q 571 472 610 498 q 480 430 531 446 q 540 375 517 418 q 574 262 562 332 l 610 60 q 613 37 612 48 q 615 18 615 26 q 612 8 615 12 q 604 1 610 4 q 589 -3 599 -1 q 567 -4 580 -4 q 548 -3 555 -4 q 537 1 541 -2 q 531 9 533 4 q 528 22 530 14 l 493 235 q 477 303 488 272 q 447 358 467 335 q 397 395 428 382 q 321 409 366 409 l 230 409 l 151 14 q 147 6 150 9 q 139 1 144 3 q 125 -3 134 -1 q 106 -4 117 -4 q 87 -3 95 -4 q 75 0 79 -2 q 68 5 71 2 q 68 14 66 9 l 233 835 q 253 868 237 859 q 284 878 268 878 l 450 878 q 559 865 513 878 q 635 829 605 852 q 679 772 665 806 q 693 698 693 739 m 602 688 q 593 734 602 713 q 566 771 585 755 q 516 795 547 787 q 441 804 485 804 l 309 804 l 244 481 l 357 481 q 469 499 422 481 q 545 546 515 517 q 588 611 574 574 q 602 688 602 648 z "},"Ŕ":{"ha":739,"x_min":66,"x_max":693,"o":"m 693 698 q 679 608 693 650 q 637 532 665 566 q 571 472 610 498 q 480 430 531 446 q 540 375 517 418 q 574 262 562 332 l 610 60 q 613 37 612 48 q 615 18 615 26 q 612 8 615 12 q 604 1 610 4 q 589 -3 599 -1 q 567 -4 580 -4 q 548 -3 555 -4 q 537 1 541 -2 q 531 9 533 4 q 528 22 530 14 l 493 235 q 477 303 488 272 q 447 358 467 335 q 397 395 428 382 q 321 409 366 409 l 230 409 l 151 14 q 147 6 150 9 q 139 1 144 3 q 125 -3 134 -1 q 106 -4 117 -4 q 87 -3 95 -4 q 75 0 79 -2 q 68 5 71 2 q 68 14 66 9 l 233 835 q 253 868 237 859 q 284 878 268 878 l 450 878 q 559 865 513 878 q 635 829 605 852 q 679 772 665 806 q 693 698 693 739 m 602 688 q 593 734 602 713 q 566 771 585 755 q 516 795 547 787 q 441 804 485 804 l 309 804 l 244 481 l 357 481 q 469 499 422 481 q 545 546 515 517 q 588 611 574 574 q 602 688 602 648 m 500 969 q 488 959 493 962 q 476 953 482 955 q 463 950 470 951 q 446 949 456 949 q 419 956 422 949 q 427 975 415 962 l 564 1123 q 577 1135 570 1131 q 592 1142 584 1139 q 609 1145 600 1144 q 630 1145 618 1145 q 653 1143 645 1145 q 666 1137 662 1141 q 668 1128 669 1133 q 661 1118 667 1123 l 500 969 m 175 878 z "},"Ř":{"ha":739,"x_min":34,"x_max":718,"o":"m 693 698 q 679 608 693 650 q 637 532 665 566 q 571 472 610 498 q 480 430 531 446 q 540 375 517 418 q 574 262 562 332 l 610 60 q 613 37 612 48 q 615 18 615 26 q 612 8 615 12 q 604 1 610 4 q 589 -3 599 -1 q 567 -4 580 -4 q 548 -3 555 -4 q 537 1 541 -2 q 531 9 533 4 q 528 22 530 14 l 493 235 q 477 303 488 272 q 447 358 467 335 q 397 395 428 382 q 321 409 366 409 l 230 409 l 151 14 q 147 6 150 9 q 139 1 144 3 q 125 -3 134 -1 q 106 -4 117 -4 q 87 -3 95 -4 q 75 0 79 -2 q 68 5 71 2 q 68 14 66 9 l 233 835 q 253 868 237 859 q 284 878 268 878 l 450 878 q 559 865 513 878 q 635 829 605 852 q 679 772 665 806 q 693 698 693 739 m 602 688 q 593 734 602 713 q 566 771 585 755 q 516 795 547 787 q 441 804 485 804 l 309 804 l 244 481 l 357 481 q 469 499 422 481 q 545 546 515 517 q 588 611 574 574 q 602 688 602 648 m 512 964 q 503 958 507 960 q 492 953 498 955 q 480 950 487 951 q 464 949 473 949 q 447 950 454 949 q 436 952 441 951 q 428 957 431 954 q 421 964 425 960 l 302 1123 q 298 1133 298 1128 q 301 1140 298 1137 q 312 1144 305 1143 q 330 1145 319 1145 q 354 1144 345 1145 q 368 1142 363 1143 q 375 1138 372 1141 q 380 1133 377 1135 l 471 1003 l 618 1129 q 631 1137 625 1134 q 645 1142 637 1141 q 663 1145 652 1144 q 686 1145 673 1145 q 706 1144 699 1145 q 715 1139 713 1142 q 715 1132 718 1137 q 707 1123 713 1128 l 512 964 m 34 878 z "},"Ŗ":{"ha":739,"x_min":66,"x_max":693,"o":"m 693 698 q 679 608 693 650 q 637 532 665 566 q 571 472 610 498 q 480 430 531 446 q 540 375 517 418 q 574 262 562 332 l 610 60 q 613 37 612 48 q 615 18 615 26 q 612 8 615 12 q 604 1 610 4 q 589 -3 599 -1 q 567 -4 580 -4 q 548 -3 555 -4 q 537 1 541 -2 q 531 9 533 4 q 528 22 530 14 l 493 235 q 477 303 488 272 q 447 358 467 335 q 397 395 428 382 q 321 409 366 409 l 230 409 l 151 14 q 147 6 150 9 q 139 1 144 3 q 125 -3 134 -1 q 106 -4 117 -4 q 87 -3 95 -4 q 75 0 79 -2 q 68 5 71 2 q 68 14 66 9 l 233 835 q 253 868 237 859 q 284 878 268 878 l 450 878 q 559 865 513 878 q 635 829 605 852 q 679 772 665 806 q 693 698 693 739 m 602 688 q 593 734 602 713 q 566 771 585 755 q 516 795 547 787 q 441 804 485 804 l 309 804 l 244 481 l 357 481 q 469 499 422 481 q 545 546 515 517 q 588 611 574 574 q 602 688 602 648 m 253 -228 q 245 -238 249 -235 q 235 -244 241 -242 q 222 -247 230 -246 q 205 -248 215 -248 q 191 -246 196 -248 q 185 -242 186 -245 q 185 -234 184 -239 q 190 -222 186 -229 l 260 -81 q 268 -69 264 -74 q 278 -62 272 -64 q 293 -59 284 -60 q 315 -58 302 -58 q 335 -60 328 -58 q 344 -65 342 -62 q 345 -74 346 -69 q 340 -85 343 -79 l 253 -228 z "},"S":{"ha":618,"x_min":5,"x_max":611,"o":"m 611 811 q 610 801 611 806 q 608 790 610 795 q 605 778 607 784 q 600 768 603 772 q 593 761 597 764 q 585 758 589 758 q 565 767 578 758 q 532 786 552 776 q 483 805 511 796 q 415 814 454 814 q 337 800 371 814 q 279 762 302 786 q 243 708 256 739 q 231 644 231 677 q 245 587 231 611 q 280 543 258 562 q 331 506 302 523 q 388 471 359 489 q 446 434 418 454 q 497 390 475 415 q 532 331 519 364 q 546 255 546 298 q 524 152 546 201 q 459 67 501 104 q 359 10 418 31 q 227 -12 300 -12 q 152 -4 187 -12 q 89 13 117 3 q 41 35 61 24 q 13 55 22 46 q 5 78 5 63 q 5 87 5 81 q 8 99 6 93 q 12 112 9 106 q 17 123 14 118 q 24 131 20 128 q 33 134 28 134 q 60 123 43 134 q 101 100 77 113 q 159 76 125 87 q 237 65 192 65 q 329 80 288 65 q 399 121 370 95 q 443 180 427 146 q 458 253 458 214 q 444 311 458 286 q 409 355 431 336 q 359 392 387 375 q 302 426 331 408 q 244 462 273 443 q 195 507 216 481 q 159 565 173 532 q 146 642 146 598 q 165 735 146 691 q 220 814 184 780 q 308 869 256 848 q 425 889 359 889 q 486 884 457 889 q 538 870 515 878 q 577 853 561 863 q 600 839 593 844 q 608 827 606 833 q 611 811 611 821 z "},"Ś":{"ha":618,"x_min":5,"x_max":633,"o":"m 611 811 q 610 801 611 806 q 608 790 610 795 q 605 778 607 784 q 600 768 603 772 q 593 761 597 764 q 585 758 589 758 q 565 767 578 758 q 532 786 552 776 q 483 805 511 796 q 415 814 454 814 q 337 800 371 814 q 279 762 302 786 q 243 708 256 739 q 231 644 231 677 q 245 587 231 611 q 280 543 258 562 q 331 506 302 523 q 388 471 359 489 q 446 434 418 454 q 497 390 475 415 q 532 331 519 364 q 546 255 546 298 q 524 152 546 201 q 459 67 501 104 q 359 10 418 31 q 227 -12 300 -12 q 152 -4 187 -12 q 89 13 117 3 q 41 35 61 24 q 13 55 22 46 q 5 78 5 63 q 5 87 5 81 q 8 99 6 93 q 12 112 9 106 q 17 123 14 118 q 24 131 20 128 q 33 134 28 134 q 60 123 43 134 q 101 100 77 113 q 159 76 125 87 q 237 65 192 65 q 329 80 288 65 q 399 121 370 95 q 443 180 427 146 q 458 253 458 214 q 444 311 458 286 q 409 355 431 336 q 359 392 387 375 q 302 426 331 408 q 244 462 273 443 q 195 507 216 481 q 159 565 173 532 q 146 642 146 598 q 165 735 146 691 q 220 814 184 780 q 308 869 256 848 q 425 889 359 889 q 486 884 457 889 q 538 870 515 878 q 577 853 561 863 q 600 839 593 844 q 608 827 606 833 q 611 811 611 821 m 464 969 q 451 959 456 962 q 439 953 446 955 q 426 950 433 951 q 409 949 419 949 q 382 956 386 949 q 390 975 378 962 l 527 1123 q 541 1135 534 1131 q 555 1142 547 1139 q 572 1145 563 1144 q 593 1145 581 1145 q 617 1143 608 1145 q 629 1137 625 1141 q 631 1128 633 1133 q 625 1118 630 1123 l 464 969 m 138 878 z "},"Ŝ":{"ha":618,"x_min":-16,"x_max":633,"o":"m 611 811 q 610 801 611 806 q 608 790 610 795 q 605 778 607 784 q 600 768 603 772 q 593 761 597 764 q 585 758 589 758 q 565 767 578 758 q 532 786 552 776 q 483 805 511 796 q 415 814 454 814 q 337 800 371 814 q 279 762 302 786 q 243 708 256 739 q 231 644 231 677 q 245 587 231 611 q 280 543 258 562 q 331 506 302 523 q 388 471 359 489 q 446 434 418 454 q 497 390 475 415 q 532 331 519 364 q 546 255 546 298 q 524 152 546 201 q 459 67 501 104 q 359 10 418 31 q 227 -12 300 -12 q 152 -4 187 -12 q 89 13 117 3 q 41 35 61 24 q 13 55 22 46 q 5 78 5 63 q 5 87 5 81 q 8 99 6 93 q 12 112 9 106 q 17 123 14 118 q 24 131 20 128 q 33 134 28 134 q 60 123 43 134 q 101 100 77 113 q 159 76 125 87 q 237 65 192 65 q 329 80 288 65 q 399 121 370 95 q 443 180 427 146 q 458 253 458 214 q 444 311 458 286 q 409 355 431 336 q 359 392 387 375 q 302 426 331 408 q 244 462 273 443 q 195 507 216 481 q 159 565 173 532 q 146 642 146 598 q 165 735 146 691 q 220 814 184 780 q 308 869 256 848 q 425 889 359 889 q 486 884 457 889 q 538 870 515 878 q 577 853 561 863 q 600 839 593 844 q 608 827 606 833 q 611 811 611 821 m 629 972 q 632 962 633 966 q 628 955 632 958 q 617 951 624 952 q 600 949 610 949 q 576 950 585 949 q 562 953 567 951 q 554 957 557 954 q 549 962 551 959 l 458 1091 l 311 966 q 298 957 304 960 q 284 952 292 954 q 267 950 277 950 q 243 949 257 949 q 223 951 231 949 q 214 956 216 953 q 215 962 212 958 q 224 972 218 966 l 418 1131 q 428 1137 423 1135 q 438 1142 433 1140 q 450 1145 443 1144 q 466 1145 456 1145 q 483 1145 476 1145 q 494 1142 489 1144 q 502 1137 498 1140 q 509 1131 505 1135 l 629 972 m -16 878 z "},"Š":{"ha":618,"x_min":-4,"x_max":680,"o":"m 611 811 q 610 801 611 806 q 608 790 610 795 q 605 778 607 784 q 600 768 603 772 q 593 761 597 764 q 585 758 589 758 q 565 767 578 758 q 532 786 552 776 q 483 805 511 796 q 415 814 454 814 q 337 800 371 814 q 279 762 302 786 q 243 708 256 739 q 231 644 231 677 q 245 587 231 611 q 280 543 258 562 q 331 506 302 523 q 388 471 359 489 q 446 434 418 454 q 497 390 475 415 q 532 331 519 364 q 546 255 546 298 q 524 152 546 201 q 459 67 501 104 q 359 10 418 31 q 227 -12 300 -12 q 152 -4 187 -12 q 89 13 117 3 q 41 35 61 24 q 13 55 22 46 q 5 78 5 63 q 5 87 5 81 q 8 99 6 93 q 12 112 9 106 q 17 123 14 118 q 24 131 20 128 q 33 134 28 134 q 60 123 43 134 q 101 100 77 113 q 159 76 125 87 q 237 65 192 65 q 329 80 288 65 q 399 121 370 95 q 443 180 427 146 q 458 253 458 214 q 444 311 458 286 q 409 355 431 336 q 359 392 387 375 q 302 426 331 408 q 244 462 273 443 q 195 507 216 481 q 159 565 173 532 q 146 642 146 598 q 165 735 146 691 q 220 814 184 780 q 308 869 256 848 q 425 889 359 889 q 486 884 457 889 q 538 870 515 878 q 577 853 561 863 q 600 839 593 844 q 608 827 606 833 q 611 811 611 821 m 474 964 q 465 958 469 960 q 454 953 460 955 q 442 950 449 951 q 426 949 435 949 q 409 950 416 949 q 398 952 403 951 q 390 957 393 954 q 383 964 387 960 l 264 1123 q 260 1133 260 1128 q 263 1140 260 1137 q 274 1144 267 1143 q 292 1145 281 1145 q 316 1144 307 1145 q 330 1142 325 1143 q 337 1138 334 1141 q 342 1133 339 1135 l 433 1003 l 581 1129 q 593 1137 587 1134 q 607 1142 599 1141 q 625 1145 614 1144 q 648 1145 635 1145 q 668 1144 661 1145 q 677 1139 675 1142 q 677 1132 680 1137 q 669 1123 675 1128 l 474 964 m -4 878 z "},"Ş":{"ha":618,"x_min":5,"x_max":611,"o":"m 196 -10 q 102 9 142 -5 q 42 35 62 23 q 13 55 22 46 q 5 78 5 63 q 5 87 5 81 q 8 99 6 93 q 12 112 9 106 q 17 123 14 118 q 24 131 20 128 q 33 134 28 134 q 60 123 43 134 q 101 100 77 113 q 159 76 125 87 q 237 65 192 65 q 329 80 288 65 q 399 121 370 95 q 443 180 427 146 q 458 253 458 214 q 444 311 458 286 q 409 355 431 336 q 359 392 387 375 q 302 426 331 408 q 244 462 273 443 q 195 507 216 481 q 159 565 173 532 q 146 642 146 598 q 165 735 146 691 q 220 814 184 780 q 308 869 256 848 q 425 889 359 889 q 486 884 457 889 q 538 870 515 878 q 577 853 561 863 q 600 839 593 844 q 608 827 606 833 q 611 811 611 821 q 610 801 611 806 q 608 790 610 795 q 605 778 607 784 q 600 768 603 772 q 593 761 597 764 q 585 758 589 758 q 565 767 578 758 q 532 786 552 776 q 483 805 511 796 q 415 814 454 814 q 337 800 371 814 q 279 762 302 786 q 243 708 256 739 q 231 644 231 677 q 245 587 231 611 q 280 543 258 562 q 331 506 302 523 q 388 471 359 489 q 446 434 418 454 q 497 390 475 415 q 532 331 519 364 q 546 255 546 298 q 524 152 546 201 q 460 68 501 104 q 367 13 418 32 q 269 -9 315 -6 l 280 -53 q 290 -95 287 -79 q 294 -125 294 -112 q 284 -180 294 -157 q 256 -218 274 -203 q 212 -240 238 -233 q 153 -248 186 -248 q 120 -246 137 -248 q 89 -242 103 -245 q 66 -237 75 -240 q 54 -233 56 -235 q 51 -228 52 -231 q 50 -221 50 -225 q 52 -207 50 -214 q 56 -194 53 -200 q 63 -185 58 -189 q 74 -181 67 -181 l 161 -181 q 183 -178 172 -181 q 202 -170 194 -176 q 216 -153 211 -163 q 221 -128 221 -143 q 219 -110 221 -121 q 215 -85 218 -98 l 196 -10 z "},"Ș":{"ha":618,"x_min":5,"x_max":611,"o":"m 611 811 q 610 801 611 806 q 608 790 610 795 q 605 778 607 784 q 600 768 603 772 q 593 761 597 764 q 585 758 589 758 q 565 767 578 758 q 532 786 552 776 q 483 805 511 796 q 415 814 454 814 q 337 800 371 814 q 279 762 302 786 q 243 708 256 739 q 231 644 231 677 q 245 587 231 611 q 280 543 258 562 q 331 506 302 523 q 388 471 359 489 q 446 434 418 454 q 497 390 475 415 q 532 331 519 364 q 546 255 546 298 q 524 152 546 201 q 459 67 501 104 q 359 10 418 31 q 227 -12 300 -12 q 152 -4 187 -12 q 89 13 117 3 q 41 35 61 24 q 13 55 22 46 q 5 78 5 63 q 5 87 5 81 q 8 99 6 93 q 12 112 9 106 q 17 123 14 118 q 24 131 20 128 q 33 134 28 134 q 60 123 43 134 q 101 100 77 113 q 159 76 125 87 q 237 65 192 65 q 329 80 288 65 q 399 121 370 95 q 443 180 427 146 q 458 253 458 214 q 444 311 458 286 q 409 355 431 336 q 359 392 387 375 q 302 426 331 408 q 244 462 273 443 q 195 507 216 481 q 159 565 173 532 q 146 642 146 598 q 165 735 146 691 q 220 814 184 780 q 308 869 256 848 q 425 889 359 889 q 486 884 457 889 q 538 870 515 878 q 577 853 561 863 q 600 839 593 844 q 608 827 606 833 q 611 811 611 821 m 157 -228 q 149 -238 153 -235 q 140 -244 145 -242 q 127 -247 134 -246 q 109 -248 119 -248 q 96 -246 100 -248 q 90 -242 91 -245 q 90 -234 88 -239 q 94 -222 91 -229 l 165 -81 q 172 -69 168 -74 q 182 -62 176 -64 q 197 -59 189 -60 q 220 -58 206 -58 q 239 -60 233 -58 q 248 -65 246 -62 q 249 -74 250 -69 q 244 -85 248 -79 l 157 -228 z "},"T":{"ha":671,"x_min":116,"x_max":767,"o":"m 767 857 q 767 848 767 853 q 765 837 766 842 q 762 825 764 831 q 756 814 760 819 q 748 807 753 810 q 736 804 743 804 l 475 804 l 317 14 q 313 6 315 9 q 305 1 310 3 q 292 -3 300 -1 q 271 -4 283 -4 q 252 -3 260 -4 q 240 1 244 -1 q 234 6 235 3 q 234 14 233 9 l 392 804 l 131 804 q 119 809 122 804 q 116 825 116 815 q 117 834 116 829 q 119 846 117 840 q 122 857 120 852 q 128 867 125 863 q 136 875 132 872 q 146 878 140 878 l 752 878 q 764 872 760 878 q 767 857 767 866 z "},"Ť":{"ha":671,"x_min":15,"x_max":767,"o":"m 767 857 q 767 848 767 853 q 765 837 766 842 q 762 825 764 831 q 756 814 760 819 q 748 807 753 810 q 736 804 743 804 l 475 804 l 317 14 q 313 6 315 9 q 305 1 310 3 q 292 -3 300 -1 q 271 -4 283 -4 q 252 -3 260 -4 q 240 1 244 -1 q 234 6 235 3 q 234 14 233 9 l 392 804 l 131 804 q 119 809 122 804 q 116 825 116 815 q 117 834 116 829 q 119 846 117 840 q 122 857 120 852 q 128 867 125 863 q 136 875 132 872 q 146 878 140 878 l 752 878 q 764 872 760 878 q 767 857 767 866 m 493 964 q 484 958 488 960 q 473 953 479 955 q 461 950 468 951 q 445 949 454 949 q 428 950 435 949 q 417 952 422 951 q 409 957 412 954 q 402 964 406 960 l 283 1123 q 279 1133 279 1128 q 282 1140 279 1137 q 293 1144 286 1143 q 311 1145 300 1145 q 335 1144 326 1145 q 349 1142 344 1143 q 356 1138 353 1141 q 361 1133 358 1135 l 452 1003 l 600 1129 q 612 1137 606 1134 q 626 1142 618 1141 q 644 1145 633 1144 q 667 1145 654 1145 q 687 1144 680 1145 q 696 1139 694 1142 q 696 1132 699 1137 q 688 1123 694 1128 l 493 964 m 15 878 z "},"Ț":{"ha":671,"x_min":116,"x_max":767,"o":"m 767 857 q 767 848 767 853 q 765 837 766 842 q 762 825 764 831 q 756 814 760 819 q 748 807 753 810 q 736 804 743 804 l 475 804 l 317 14 q 313 6 315 9 q 305 1 310 3 q 292 -3 300 -1 q 271 -4 283 -4 q 252 -3 260 -4 q 240 1 244 -1 q 234 6 235 3 q 234 14 233 9 l 392 804 l 131 804 q 119 809 122 804 q 116 825 116 815 q 117 834 116 829 q 119 846 117 840 q 122 857 120 852 q 128 867 125 863 q 136 875 132 872 q 146 878 140 878 l 752 878 q 764 872 760 878 q 767 857 767 866 m 205 -228 q 197 -238 201 -235 q 187 -244 193 -242 q 174 -247 182 -246 q 157 -248 167 -248 q 143 -246 148 -248 q 137 -242 138 -245 q 137 -234 136 -239 q 142 -222 138 -229 l 212 -81 q 220 -69 216 -74 q 230 -62 224 -64 q 245 -59 236 -60 q 267 -58 254 -58 q 287 -60 280 -58 q 296 -65 294 -62 q 296 -74 298 -69 q 292 -85 295 -79 l 205 -228 z "},"Ŧ":{"ha":671,"x_min":103,"x_max":766,"o":"m 412 494 l 608 494 q 620 489 616 494 q 624 473 624 483 q 623 463 624 469 q 621 452 623 458 q 617 440 620 446 q 612 430 615 435 q 604 422 608 425 q 593 420 600 420 l 397 420 l 317 14 q 313 6 315 9 q 305 1 310 3 q 292 -3 300 -1 q 271 -4 283 -4 q 252 -3 260 -4 q 240 1 244 -1 q 234 6 235 3 q 234 14 233 9 l 314 420 l 118 420 q 107 425 111 420 q 103 441 103 430 q 103 450 103 444 q 105 461 104 455 q 109 473 106 467 q 114 484 111 479 q 122 491 117 488 q 134 494 127 494 l 330 494 l 391 804 l 130 804 q 118 809 121 804 q 115 825 115 814 q 115 834 115 829 q 117 846 116 840 q 121 857 119 852 q 126 867 123 863 q 134 875 130 872 q 144 878 138 878 l 751 878 q 763 872 760 878 q 766 857 766 866 q 765 845 766 851 q 763 834 764 840 q 759 823 762 828 q 753 813 757 817 q 746 806 750 808 q 736 804 741 804 l 474 804 l 412 494 z "},"U":{"ha":883,"x_min":111,"x_max":867,"o":"m 757 317 q 706 174 741 235 q 622 71 671 112 q 511 9 572 30 q 381 -12 450 -12 q 254 9 309 -12 q 166 72 199 31 q 121 176 132 114 q 127 319 111 238 l 235 864 q 239 871 236 868 q 247 877 241 875 q 260 880 252 879 q 280 882 269 882 q 300 880 292 882 q 312 877 308 879 q 318 871 317 875 q 318 864 319 868 l 210 322 q 203 209 197 258 q 231 128 208 161 q 294 79 254 96 q 391 63 334 63 q 493 80 446 63 q 575 129 539 96 q 637 211 612 162 q 675 322 663 259 l 783 864 q 787 871 784 868 q 794 877 789 875 q 808 880 800 879 q 827 882 816 882 q 847 880 839 882 q 859 877 854 879 q 865 871 864 875 q 866 864 867 868 l 757 317 z "},"Ù":{"ha":883,"x_min":111,"x_max":867,"o":"m 757 317 q 706 174 741 235 q 622 71 671 112 q 511 9 572 30 q 381 -12 450 -12 q 254 9 309 -12 q 166 72 199 31 q 121 176 132 114 q 127 319 111 238 l 235 864 q 239 871 236 868 q 247 877 241 875 q 260 880 252 879 q 280 882 269 882 q 300 880 292 882 q 312 877 308 879 q 318 871 317 875 q 318 864 319 868 l 210 322 q 203 209 197 258 q 231 128 208 161 q 294 79 254 96 q 391 63 334 63 q 493 80 446 63 q 575 129 539 96 q 637 211 612 162 q 675 322 663 259 l 783 864 q 787 871 784 868 q 794 877 789 875 q 808 880 800 879 q 827 882 816 882 q 847 880 839 882 q 859 877 854 879 q 865 871 864 875 q 866 864 867 868 l 757 317 m 589 975 q 596 964 595 968 q 595 956 598 959 q 586 951 593 953 q 568 949 579 949 q 551 950 558 949 q 539 953 545 951 q 528 959 533 955 q 515 969 522 962 l 367 1118 q 361 1128 361 1123 q 364 1137 360 1133 q 377 1143 368 1141 q 401 1145 387 1145 q 422 1145 413 1145 q 439 1142 431 1144 q 453 1135 447 1139 q 465 1123 459 1131 l 589 975 m 111 878 z "},"Ú":{"ha":883,"x_min":111,"x_max":867,"o":"m 757 317 q 706 174 741 235 q 622 71 671 112 q 511 9 572 30 q 381 -12 450 -12 q 254 9 309 -12 q 166 72 199 31 q 121 176 132 114 q 127 319 111 238 l 235 864 q 239 871 236 868 q 247 877 241 875 q 260 880 252 879 q 280 882 269 882 q 300 880 292 882 q 312 877 308 879 q 318 871 317 875 q 318 864 319 868 l 210 322 q 203 209 197 258 q 231 128 208 161 q 294 79 254 96 q 391 63 334 63 q 493 80 446 63 q 575 129 539 96 q 637 211 612 162 q 675 322 663 259 l 783 864 q 787 871 784 868 q 794 877 789 875 q 808 880 800 879 q 827 882 816 882 q 847 880 839 882 q 859 877 854 879 q 865 871 864 875 q 866 864 867 868 l 757 317 m 598 969 q 585 959 591 962 q 574 953 580 955 q 561 950 568 951 q 543 949 553 949 q 516 956 520 949 q 524 975 513 962 l 661 1123 q 675 1135 668 1131 q 689 1142 682 1139 q 706 1145 697 1144 q 728 1145 715 1145 q 751 1143 743 1145 q 763 1137 760 1141 q 766 1128 767 1133 q 759 1118 764 1123 l 598 969 m 273 878 z "},"Û":{"ha":883,"x_min":111,"x_max":867,"o":"m 757 317 q 706 174 741 235 q 622 71 671 112 q 511 9 572 30 q 381 -12 450 -12 q 254 9 309 -12 q 166 72 199 31 q 121 176 132 114 q 127 319 111 238 l 235 864 q 239 871 236 868 q 247 877 241 875 q 260 880 252 879 q 280 882 269 882 q 300 880 292 882 q 312 877 308 879 q 318 871 317 875 q 318 864 319 868 l 210 322 q 203 209 197 258 q 231 128 208 161 q 294 79 254 96 q 391 63 334 63 q 493 80 446 63 q 575 129 539 96 q 637 211 612 162 q 675 322 663 259 l 783 864 q 787 871 784 868 q 794 877 789 875 q 808 880 800 879 q 827 882 816 882 q 847 880 839 882 q 859 877 854 879 q 865 871 864 875 q 866 864 867 868 l 757 317 m 772 972 q 775 962 775 966 q 770 955 774 958 q 760 951 766 952 q 743 949 753 949 q 718 950 727 949 q 704 953 709 951 q 696 957 699 954 q 691 962 694 959 l 601 1091 l 454 966 q 441 957 447 960 q 427 952 435 954 q 409 950 419 950 q 386 949 399 949 q 366 951 373 949 q 357 956 359 953 q 357 962 355 958 q 367 972 360 966 l 561 1131 q 570 1137 566 1135 q 580 1142 575 1140 q 592 1145 585 1144 q 608 1145 599 1145 q 625 1145 618 1145 q 636 1142 631 1144 q 644 1137 641 1140 q 651 1131 648 1135 l 772 972 m 127 878 z "},"Ũ":{"ha":883,"x_min":111,"x_max":867,"o":"m 757 317 q 706 174 741 235 q 622 71 671 112 q 511 9 572 30 q 381 -12 450 -12 q 254 9 309 -12 q 166 72 199 31 q 121 176 132 114 q 127 319 111 238 l 235 864 q 239 871 236 868 q 247 877 241 875 q 260 880 252 879 q 280 882 269 882 q 300 880 292 882 q 312 877 308 879 q 318 871 317 875 q 318 864 319 868 l 210 322 q 203 209 197 258 q 231 128 208 161 q 294 79 254 96 q 391 63 334 63 q 493 80 446 63 q 575 129 539 96 q 637 211 612 162 q 675 322 663 259 l 783 864 q 787 871 784 868 q 794 877 789 875 q 808 880 800 879 q 827 882 816 882 q 847 880 839 882 q 859 877 854 879 q 865 871 864 875 q 866 864 867 868 l 757 317 m 742 1086 q 745 1093 743 1090 q 752 1097 747 1095 q 764 1099 757 1099 q 779 1100 770 1100 q 804 1096 799 1100 q 810 1084 810 1091 q 809 1070 810 1081 q 803 1044 808 1059 q 790 1013 799 1029 q 767 982 782 996 q 729 959 752 968 q 674 949 707 949 q 614 962 640 949 q 568 991 589 975 q 527 1019 547 1006 q 484 1032 507 1032 q 437 1013 452 1032 q 420 963 423 994 q 417 957 419 960 q 410 953 414 955 q 399 950 406 951 q 383 949 392 949 q 358 953 364 949 q 352 966 352 957 q 354 987 352 974 q 362 1016 356 1001 q 377 1046 368 1031 q 402 1073 387 1061 q 439 1093 418 1085 q 489 1100 460 1100 q 549 1087 524 1100 q 594 1059 574 1074 q 635 1030 615 1043 q 677 1017 654 1017 q 721 1033 704 1017 q 742 1086 738 1048 m 119 878 z "},"Ü":{"ha":883,"x_min":111,"x_max":867,"o":"m 757 317 q 706 174 741 235 q 622 71 671 112 q 511 9 572 30 q 381 -12 450 -12 q 254 9 309 -12 q 166 72 199 31 q 121 176 132 114 q 127 319 111 238 l 235 864 q 239 871 236 868 q 247 877 241 875 q 260 880 252 879 q 280 882 269 882 q 300 880 292 882 q 312 877 308 879 q 318 871 317 875 q 318 864 319 868 l 210 322 q 203 209 197 258 q 231 128 208 161 q 294 79 254 96 q 391 63 334 63 q 493 80 446 63 q 575 129 539 96 q 637 211 612 162 q 675 322 663 259 l 783 864 q 787 871 784 868 q 794 877 789 875 q 808 880 800 879 q 827 882 816 882 q 847 880 839 882 q 859 877 854 879 q 865 871 864 875 q 866 864 867 868 l 757 317 m 772 1035 q 766 1009 770 1019 q 754 991 762 998 q 737 982 747 985 q 711 979 726 979 q 686 982 695 979 q 671 991 676 985 q 665 1009 666 998 q 667 1035 665 1019 q 672 1061 669 1050 q 683 1078 676 1072 q 701 1087 690 1084 q 727 1090 711 1090 q 752 1087 743 1090 q 767 1078 762 1084 q 773 1061 772 1072 q 772 1035 774 1050 m 500 1035 q 494 1009 498 1019 q 483 991 490 998 q 465 982 476 985 q 439 979 454 979 q 414 982 423 979 q 399 991 404 985 q 393 1009 394 998 q 395 1035 393 1019 q 401 1061 397 1050 q 412 1078 405 1072 q 429 1087 418 1084 q 456 1090 440 1090 q 481 1087 471 1090 q 495 1078 490 1084 q 502 1061 500 1072 q 500 1035 503 1050 m 150 878 z "},"Ū":{"ha":883,"x_min":111,"x_max":867,"o":"m 757 317 q 706 174 741 235 q 622 71 671 112 q 511 9 572 30 q 381 -12 450 -12 q 254 9 309 -12 q 166 72 199 31 q 121 176 132 114 q 127 319 111 238 l 235 864 q 239 871 236 868 q 247 877 241 875 q 260 880 252 879 q 280 882 269 882 q 300 880 292 882 q 312 877 308 879 q 318 871 317 875 q 318 864 319 868 l 210 322 q 203 209 197 258 q 231 128 208 161 q 294 79 254 96 q 391 63 334 63 q 493 80 446 63 q 575 129 539 96 q 637 211 612 162 q 675 322 663 259 l 783 864 q 787 871 784 868 q 794 877 789 875 q 808 880 800 879 q 827 882 816 882 q 847 880 839 882 q 859 877 854 879 q 865 871 864 875 q 866 864 867 868 l 757 317 m 776 1051 q 775 1041 776 1046 q 773 1029 774 1035 q 769 1018 771 1023 q 763 1008 766 1012 q 757 1001 760 1004 q 749 998 753 998 l 396 998 q 386 1002 389 998 q 382 1017 382 1006 q 383 1026 382 1021 q 385 1037 384 1031 q 388 1049 386 1043 q 394 1059 391 1055 q 401 1066 397 1063 q 410 1069 405 1069 l 764 1069 q 773 1064 770 1069 q 776 1051 776 1059 m 140 878 z "},"Ŭ":{"ha":883,"x_min":111,"x_max":867,"o":"m 757 317 q 706 174 741 235 q 622 71 671 112 q 511 9 572 30 q 381 -12 450 -12 q 254 9 309 -12 q 166 72 199 31 q 121 176 132 114 q 127 319 111 238 l 235 864 q 239 871 236 868 q 247 877 241 875 q 260 880 252 879 q 280 882 269 882 q 300 880 292 882 q 312 877 308 879 q 318 871 317 875 q 318 864 319 868 l 210 322 q 203 209 197 258 q 231 128 208 161 q 294 79 254 96 q 391 63 334 63 q 493 80 446 63 q 575 129 539 96 q 637 211 612 162 q 675 322 663 259 l 783 864 q 787 871 784 868 q 794 877 789 875 q 808 880 800 879 q 827 882 816 882 q 847 880 839 882 q 859 877 854 879 q 865 871 864 875 q 866 864 867 868 l 757 317 m 761 1133 q 758 1108 761 1125 q 746 1072 755 1092 q 724 1030 738 1051 q 689 990 710 1008 q 637 961 667 972 q 567 949 607 949 q 500 960 527 949 q 458 987 474 970 q 435 1027 442 1004 q 429 1075 429 1050 q 430 1091 429 1081 q 432 1110 431 1101 q 436 1128 433 1120 q 440 1138 438 1136 q 453 1144 445 1143 q 470 1145 462 1145 q 485 1145 479 1145 q 494 1142 490 1144 q 499 1138 497 1141 q 500 1133 500 1136 q 499 1115 500 1124 q 498 1094 498 1105 q 501 1063 498 1077 q 513 1038 505 1048 q 535 1023 521 1028 q 572 1017 550 1017 q 612 1023 593 1017 q 647 1042 631 1029 q 676 1076 663 1055 q 696 1129 688 1097 q 700 1136 697 1133 q 706 1141 702 1139 q 717 1144 711 1143 q 733 1145 724 1145 q 748 1144 743 1145 q 756 1142 753 1143 q 760 1138 760 1141 q 761 1133 761 1135 m 172 878 z "},"Ů":{"ha":883,"x_min":111,"x_max":867,"o":"m 757 317 q 706 174 741 235 q 622 71 671 112 q 511 9 572 30 q 381 -12 450 -12 q 254 9 309 -12 q 166 72 199 31 q 121 176 132 114 q 127 319 111 238 l 235 864 q 239 871 236 868 q 247 877 241 875 q 260 880 252 879 q 280 882 269 882 q 300 880 292 882 q 312 877 308 879 q 318 871 317 875 q 318 864 319 868 l 210 322 q 203 209 197 258 q 231 128 208 161 q 294 79 254 96 q 391 63 334 63 q 493 80 446 63 q 575 129 539 96 q 637 211 612 162 q 675 322 663 259 l 783 864 q 787 871 784 868 q 794 877 789 875 q 808 880 800 879 q 827 882 816 882 q 847 880 839 882 q 859 877 854 879 q 865 871 864 875 q 866 864 867 868 l 757 317 m 711 1060 q 700 1005 711 1029 q 670 962 689 980 q 626 934 651 944 q 572 924 600 924 q 521 934 542 924 q 486 958 500 943 q 466 992 473 973 q 460 1031 460 1011 q 465 1069 460 1051 q 479 1102 470 1087 q 501 1130 488 1118 q 529 1151 513 1142 q 563 1163 545 1159 q 600 1168 581 1168 q 650 1158 629 1168 q 685 1133 671 1149 q 705 1098 699 1118 q 711 1060 711 1079 m 651 1054 q 648 1076 651 1065 q 638 1096 645 1087 q 620 1111 631 1105 q 592 1116 608 1116 q 562 1111 576 1116 q 539 1094 549 1105 q 525 1069 530 1084 q 520 1038 520 1055 q 523 1015 520 1026 q 533 995 526 1004 q 551 981 540 987 q 579 976 563 976 q 609 982 595 976 q 632 998 623 987 q 646 1022 641 1008 q 651 1054 651 1036 m 212 878 z "},"Ű":{"ha":883,"x_min":111,"x_max":884,"o":"m 757 317 q 706 174 741 235 q 622 71 671 112 q 511 9 572 30 q 381 -12 450 -12 q 254 9 309 -12 q 166 72 199 31 q 121 176 132 114 q 127 319 111 238 l 235 864 q 239 871 236 868 q 247 877 241 875 q 260 880 252 879 q 280 882 269 882 q 300 880 292 882 q 312 877 308 879 q 318 871 317 875 q 318 864 319 868 l 210 322 q 203 209 197 258 q 231 128 208 161 q 294 79 254 96 q 391 63 334 63 q 493 80 446 63 q 575 129 539 96 q 637 211 612 162 q 675 322 663 259 l 783 864 q 787 871 784 868 q 794 877 789 875 q 808 880 800 879 q 827 882 816 882 q 847 880 839 882 q 859 877 854 879 q 865 871 864 875 q 866 864 867 868 l 757 317 m 723 963 q 714 956 718 958 q 706 951 711 953 q 694 950 701 950 q 677 949 687 949 q 662 951 668 949 q 652 955 655 952 q 648 961 648 957 q 650 968 647 964 l 777 1129 q 786 1137 781 1134 q 798 1142 791 1140 q 814 1145 804 1144 q 838 1145 824 1145 q 865 1143 854 1145 q 880 1138 875 1141 q 884 1130 884 1134 q 879 1122 883 1126 l 723 963 m 484 963 q 475 956 479 958 q 464 951 470 953 q 451 950 458 950 q 433 949 443 949 q 413 955 418 949 q 412 968 407 961 l 537 1129 q 545 1137 541 1134 q 555 1142 549 1140 q 571 1145 562 1144 q 593 1145 580 1145 q 626 1144 614 1145 q 642 1138 637 1142 q 645 1129 647 1135 q 636 1116 643 1124 l 484 963 m 166 878 z "},"Ų":{"ha":883,"x_min":111,"x_max":867,"o":"m 758 323 q 736 241 750 281 q 700 165 722 201 q 649 98 679 129 q 580 41 620 66 q 549 21 564 31 q 520 0 534 11 q 493 -23 507 -11 q 464 -47 479 -35 l 416 -87 q 385 -120 395 -106 q 374 -150 374 -134 q 385 -173 374 -165 q 418 -181 395 -181 l 505 -181 q 514 -184 512 -181 q 517 -193 517 -187 q 516 -204 517 -198 q 514 -215 515 -210 q 510 -224 512 -220 q 507 -230 509 -228 q 491 -237 503 -234 q 466 -242 480 -240 q 437 -246 452 -245 q 412 -248 422 -248 q 357 -241 379 -248 q 320 -224 334 -235 q 300 -199 307 -214 q 294 -166 294 -184 q 314 -103 294 -132 q 372 -43 334 -74 l 414 -9 q 397 -11 405 -11 q 380 -12 389 -12 q 253 9 308 -12 q 165 72 199 31 q 121 176 132 114 q 127 322 111 239 l 235 864 q 239 871 236 868 q 247 877 241 875 q 260 880 252 879 q 280 882 269 882 q 300 880 292 882 q 312 877 308 879 q 318 871 317 875 q 318 864 319 868 l 210 322 q 230 129 184 194 q 391 63 276 63 q 493 80 446 63 q 575 129 539 96 q 637 211 612 162 q 675 322 663 259 l 783 864 q 787 871 784 868 q 794 877 789 875 q 808 880 800 879 q 827 882 816 882 q 847 880 839 882 q 859 877 854 879 q 865 871 864 875 q 866 864 867 868 l 758 323 z "},"V":{"ha":770,"x_min":136,"x_max":852,"o":"m 377 15 q 369 6 374 9 q 357 0 364 2 q 341 -3 351 -2 q 320 -4 332 -4 q 299 -3 308 -4 q 284 0 290 -2 q 275 6 279 2 q 271 15 272 9 l 138 850 q 136 866 136 860 q 140 876 136 873 q 153 881 144 880 q 174 882 161 882 q 196 881 188 882 q 210 878 205 880 q 217 872 215 876 q 220 864 219 869 l 338 92 l 338 92 l 758 864 q 764 872 760 869 q 772 878 767 876 q 787 881 778 880 q 810 882 796 882 q 834 880 825 882 q 848 876 844 879 q 851 866 852 872 q 844 850 850 860 l 377 15 z "},"W":{"ha":1223,"x_min":157,"x_max":1284,"o":"m 863 15 q 855 6 860 9 q 842 0 850 2 q 825 -3 835 -2 q 804 -4 816 -4 q 782 -3 791 -4 q 766 0 772 -2 q 755 6 759 2 q 751 15 751 9 l 688 736 l 686 736 l 355 15 q 348 6 353 9 q 336 0 342 2 q 319 -3 330 -2 q 296 -4 309 -4 q 272 -3 282 -4 q 255 0 262 -2 q 244 6 248 2 q 240 15 241 9 l 158 850 q 157 866 157 860 q 161 876 157 873 q 173 881 165 880 q 197 882 182 882 q 218 881 208 882 q 234 877 229 880 q 240 868 239 873 q 243 855 242 863 l 309 94 l 309 94 l 666 864 q 671 872 668 869 q 680 878 674 876 q 694 881 685 880 q 719 882 703 882 q 737 881 730 882 q 748 878 744 880 q 753 872 752 876 q 755 864 755 869 l 823 94 l 824 94 l 1193 864 q 1198 872 1195 869 q 1207 878 1202 876 q 1222 881 1213 880 q 1244 882 1232 882 q 1267 880 1259 882 q 1280 876 1276 879 q 1284 866 1284 872 q 1278 850 1283 860 l 863 15 z "},"Ẁ":{"ha":1223,"x_min":157,"x_max":1284,"o":"m 863 15 q 855 6 860 9 q 842 0 850 2 q 825 -3 835 -2 q 804 -4 816 -4 q 782 -3 791 -4 q 766 0 772 -2 q 755 6 759 2 q 751 15 751 9 l 688 736 l 686 736 l 355 15 q 348 6 353 9 q 336 0 342 2 q 319 -3 330 -2 q 296 -4 309 -4 q 272 -3 282 -4 q 255 0 262 -2 q 244 6 248 2 q 240 15 241 9 l 158 850 q 157 866 157 860 q 161 876 157 873 q 173 881 165 880 q 197 882 182 882 q 218 881 208 882 q 234 877 229 880 q 240 868 239 873 q 243 855 242 863 l 309 94 l 309 94 l 666 864 q 671 872 668 869 q 680 878 674 876 q 694 881 685 880 q 719 882 703 882 q 737 881 730 882 q 748 878 744 880 q 753 872 752 876 q 755 864 755 869 l 823 94 l 824 94 l 1193 864 q 1198 872 1195 869 q 1207 878 1202 876 q 1222 881 1213 880 q 1244 882 1232 882 q 1267 880 1259 882 q 1280 876 1276 879 q 1284 866 1284 872 q 1278 850 1283 860 l 863 15 m 760 975 q 767 964 766 968 q 766 956 769 959 q 757 951 764 953 q 739 949 750 949 q 722 950 729 949 q 710 953 715 951 q 699 959 704 955 q 686 969 693 962 l 538 1118 q 532 1128 532 1123 q 535 1137 531 1133 q 548 1143 539 1141 q 572 1145 557 1145 q 593 1145 584 1145 q 610 1142 602 1144 q 624 1135 618 1139 q 636 1123 630 1131 l 760 975 m 281 878 z "},"Ẃ":{"ha":1223,"x_min":157,"x_max":1284,"o":"m 863 15 q 855 6 860 9 q 842 0 850 2 q 825 -3 835 -2 q 804 -4 816 -4 q 782 -3 791 -4 q 766 0 772 -2 q 755 6 759 2 q 751 15 751 9 l 688 736 l 686 736 l 355 15 q 348 6 353 9 q 336 0 342 2 q 319 -3 330 -2 q 296 -4 309 -4 q 272 -3 282 -4 q 255 0 262 -2 q 244 6 248 2 q 240 15 241 9 l 158 850 q 157 866 157 860 q 161 876 157 873 q 173 881 165 880 q 197 882 182 882 q 218 881 208 882 q 234 877 229 880 q 240 868 239 873 q 243 855 242 863 l 309 94 l 309 94 l 666 864 q 671 872 668 869 q 680 878 674 876 q 694 881 685 880 q 719 882 703 882 q 737 881 730 882 q 748 878 744 880 q 753 872 752 876 q 755 864 755 869 l 823 94 l 824 94 l 1193 864 q 1198 872 1195 869 q 1207 878 1202 876 q 1222 881 1213 880 q 1244 882 1232 882 q 1267 880 1259 882 q 1280 876 1276 879 q 1284 866 1284 872 q 1278 850 1283 860 l 863 15 m 778 969 q 765 959 770 962 q 753 953 760 955 q 740 950 747 951 q 723 949 733 949 q 696 956 700 949 q 704 975 692 962 l 841 1123 q 854 1135 848 1131 q 869 1142 861 1139 q 886 1145 877 1144 q 907 1145 895 1145 q 931 1143 922 1145 q 943 1137 939 1141 q 945 1128 947 1133 q 939 1118 944 1123 l 778 969 m 452 878 z "},"Ŵ":{"ha":1223,"x_min":157,"x_max":1284,"o":"m 863 15 q 855 6 860 9 q 842 0 850 2 q 825 -3 835 -2 q 804 -4 816 -4 q 782 -3 791 -4 q 766 0 772 -2 q 755 6 759 2 q 751 15 751 9 l 688 736 l 686 736 l 355 15 q 348 6 353 9 q 336 0 342 2 q 319 -3 330 -2 q 296 -4 309 -4 q 272 -3 282 -4 q 255 0 262 -2 q 244 6 248 2 q 240 15 241 9 l 158 850 q 157 866 157 860 q 161 876 157 873 q 173 881 165 880 q 197 882 182 882 q 218 881 208 882 q 234 877 229 880 q 240 868 239 873 q 243 855 242 863 l 309 94 l 309 94 l 666 864 q 671 872 668 869 q 680 878 674 876 q 694 881 685 880 q 719 882 703 882 q 737 881 730 882 q 748 878 744 880 q 753 872 752 876 q 755 864 755 869 l 823 94 l 824 94 l 1193 864 q 1198 872 1195 869 q 1207 878 1202 876 q 1222 881 1213 880 q 1244 882 1232 882 q 1267 880 1259 882 q 1280 876 1276 879 q 1284 866 1284 872 q 1278 850 1283 860 l 863 15 m 945 972 q 948 962 949 966 q 944 955 948 958 q 933 951 940 952 q 916 949 926 949 q 892 950 901 949 q 878 953 883 951 q 870 957 873 954 q 865 962 867 959 l 774 1091 l 627 966 q 614 957 621 960 q 601 952 608 954 q 583 950 593 950 q 559 949 573 949 q 539 951 547 949 q 530 956 532 953 q 531 962 528 958 q 541 972 534 966 l 734 1131 q 744 1137 739 1135 q 754 1142 749 1140 q 766 1145 759 1144 q 782 1145 772 1145 q 799 1145 792 1145 q 810 1142 805 1144 q 818 1137 814 1140 q 825 1131 821 1135 l 945 972 m 300 878 z "},"Ẅ":{"ha":1223,"x_min":157,"x_max":1284,"o":"m 863 15 q 855 6 860 9 q 842 0 850 2 q 825 -3 835 -2 q 804 -4 816 -4 q 782 -3 791 -4 q 766 0 772 -2 q 755 6 759 2 q 751 15 751 9 l 688 736 l 686 736 l 355 15 q 348 6 353 9 q 336 0 342 2 q 319 -3 330 -2 q 296 -4 309 -4 q 272 -3 282 -4 q 255 0 262 -2 q 244 6 248 2 q 240 15 241 9 l 158 850 q 157 866 157 860 q 161 876 157 873 q 173 881 165 880 q 197 882 182 882 q 218 881 208 882 q 234 877 229 880 q 240 868 239 873 q 243 855 242 863 l 309 94 l 309 94 l 666 864 q 671 872 668 869 q 680 878 674 876 q 694 881 685 880 q 719 882 703 882 q 737 881 730 882 q 748 878 744 880 q 753 872 752 876 q 755 864 755 869 l 823 94 l 824 94 l 1193 864 q 1198 872 1195 869 q 1207 878 1202 876 q 1222 881 1213 880 q 1244 882 1232 882 q 1267 880 1259 882 q 1280 876 1276 879 q 1284 866 1284 872 q 1278 850 1283 860 l 863 15 m 942 1035 q 935 1009 939 1019 q 924 991 931 998 q 906 982 917 985 q 880 979 896 979 q 855 982 865 979 q 841 991 846 985 q 835 1009 836 998 q 836 1035 834 1019 q 842 1061 838 1050 q 853 1078 846 1072 q 870 1087 860 1084 q 897 1090 881 1090 q 922 1087 912 1090 q 936 1078 931 1084 q 943 1061 941 1072 q 942 1035 944 1050 m 670 1035 q 664 1009 668 1019 q 653 991 660 998 q 635 982 646 985 q 608 979 624 979 q 583 982 593 979 q 569 991 574 985 q 563 1009 564 998 q 565 1035 562 1019 q 571 1061 567 1050 q 581 1078 574 1072 q 599 1087 588 1084 q 625 1090 610 1090 q 650 1087 641 1090 q 665 1078 660 1084 q 671 1061 670 1072 q 670 1035 672 1050 m 319 878 z "},"X":{"ha":696,"x_min":-28,"x_max":759,"o":"m 420 446 l 600 28 q 603 12 604 18 q 598 2 603 6 q 584 -3 593 -1 q 558 -4 574 -4 q 534 -3 543 -4 q 520 0 526 -2 q 513 5 515 2 q 509 14 511 9 l 362 383 l 74 14 q 66 5 70 9 q 56 0 62 2 q 40 -3 50 -2 q 16 -4 31 -4 q -9 -3 1 -4 q -23 2 -19 -1 q -26 12 -28 6 q -18 28 -25 18 l 327 450 l 162 850 q 159 865 158 859 q 165 875 160 871 q 181 880 171 879 q 206 882 191 882 q 227 881 219 882 q 240 877 235 880 q 248 869 245 873 q 254 857 251 864 l 387 517 l 659 864 q 667 872 663 869 q 677 878 671 876 q 692 881 683 880 q 715 882 701 882 q 740 880 730 882 q 754 875 750 879 q 758 865 759 871 q 749 850 757 859 l 420 446 z "},"Y":{"ha":652,"x_min":136,"x_max":736,"o":"m 374 346 l 307 14 q 303 6 306 9 q 295 1 300 3 q 281 -3 290 -1 q 262 -4 273 -4 q 242 -3 250 -4 q 230 1 235 -1 q 224 6 226 3 q 224 14 223 9 l 290 346 l 139 850 q 136 866 136 860 q 139 876 136 872 q 152 880 143 879 q 176 882 160 882 q 197 881 189 882 q 211 877 205 880 q 219 869 216 873 q 224 857 222 864 l 300 600 q 325 513 314 555 q 345 427 335 471 l 346 427 q 401 512 374 470 q 459 599 429 555 l 640 860 q 648 870 644 866 q 659 877 652 874 q 674 881 665 880 q 698 882 684 882 q 723 879 715 882 q 734 873 732 877 q 734 863 736 869 q 726 850 731 857 l 374 346 z "},"Ỳ":{"ha":652,"x_min":7,"x_max":736,"o":"m 374 346 l 307 14 q 303 6 306 9 q 295 1 300 3 q 281 -3 290 -1 q 262 -4 273 -4 q 242 -3 250 -4 q 230 1 235 -1 q 224 6 226 3 q 224 14 223 9 l 290 346 l 139 850 q 136 866 136 860 q 139 876 136 872 q 152 880 143 879 q 176 882 160 882 q 197 881 189 882 q 211 877 205 880 q 219 869 216 873 q 224 857 222 864 l 300 600 q 325 513 314 555 q 345 427 335 471 l 346 427 q 401 512 374 470 q 459 599 429 555 l 640 860 q 648 870 644 866 q 659 877 652 874 q 674 881 665 880 q 698 882 684 882 q 723 879 715 882 q 734 873 732 877 q 734 863 736 869 q 726 850 731 857 l 374 346 m 486 975 q 493 964 492 968 q 492 956 495 959 q 483 951 490 953 q 465 949 476 949 q 448 950 455 949 q 436 953 441 951 q 425 959 430 955 q 412 969 419 962 l 264 1118 q 258 1128 258 1123 q 261 1137 257 1133 q 274 1143 265 1141 q 298 1145 283 1145 q 319 1145 310 1145 q 336 1142 328 1144 q 350 1135 344 1139 q 362 1123 356 1131 l 486 975 m 7 878 z "},"Ý":{"ha":652,"x_min":136,"x_max":736,"o":"m 374 346 l 307 14 q 303 6 306 9 q 295 1 300 3 q 281 -3 290 -1 q 262 -4 273 -4 q 242 -3 250 -4 q 230 1 235 -1 q 224 6 226 3 q 224 14 223 9 l 290 346 l 139 850 q 136 866 136 860 q 139 876 136 872 q 152 880 143 879 q 176 882 160 882 q 197 881 189 882 q 211 877 205 880 q 219 869 216 873 q 224 857 222 864 l 300 600 q 325 513 314 555 q 345 427 335 471 l 346 427 q 401 512 374 470 q 459 599 429 555 l 640 860 q 648 870 644 866 q 659 877 652 874 q 674 881 665 880 q 698 882 684 882 q 723 879 715 882 q 734 873 732 877 q 734 863 736 869 q 726 850 731 857 l 374 346 m 505 969 q 492 959 497 962 q 480 953 486 955 q 467 950 474 951 q 450 949 460 949 q 423 956 427 949 q 431 975 419 962 l 568 1123 q 581 1135 574 1131 q 596 1142 588 1139 q 613 1145 604 1144 q 634 1145 622 1145 q 657 1143 649 1145 q 670 1137 666 1141 q 672 1128 673 1133 q 665 1118 671 1123 l 505 969 m 179 878 z "},"Ŷ":{"ha":652,"x_min":8,"x_max":736,"o":"m 374 346 l 307 14 q 303 6 306 9 q 295 1 300 3 q 281 -3 290 -1 q 262 -4 273 -4 q 242 -3 250 -4 q 230 1 235 -1 q 224 6 226 3 q 224 14 223 9 l 290 346 l 139 850 q 136 866 136 860 q 139 876 136 872 q 152 880 143 879 q 176 882 160 882 q 197 881 189 882 q 211 877 205 880 q 219 869 216 873 q 224 857 222 864 l 300 600 q 325 513 314 555 q 345 427 335 471 l 346 427 q 401 512 374 470 q 459 599 429 555 l 640 860 q 648 870 644 866 q 659 877 652 874 q 674 881 665 880 q 698 882 684 882 q 723 879 715 882 q 734 873 732 877 q 734 863 736 869 q 726 850 731 857 l 374 346 m 653 972 q 656 962 656 966 q 652 955 656 958 q 641 951 648 952 q 624 949 634 949 q 600 950 608 949 q 586 953 591 951 q 578 957 581 954 q 572 962 575 959 l 482 1091 l 335 966 q 322 957 328 960 q 308 952 316 954 q 291 950 300 950 q 267 949 281 949 q 247 951 254 949 q 238 956 240 953 q 239 962 236 958 q 248 972 241 966 l 442 1131 q 452 1137 447 1135 q 461 1142 456 1140 q 473 1145 467 1144 q 490 1145 480 1145 q 506 1145 500 1145 q 517 1142 513 1144 q 526 1137 522 1140 q 532 1131 529 1135 l 653 972 m 8 878 z "},"Ÿ":{"ha":652,"x_min":30,"x_max":736,"o":"m 374 346 l 307 14 q 303 6 306 9 q 295 1 300 3 q 281 -3 290 -1 q 262 -4 273 -4 q 242 -3 250 -4 q 230 1 235 -1 q 224 6 226 3 q 224 14 223 9 l 290 346 l 139 850 q 136 866 136 860 q 139 876 136 872 q 152 880 143 879 q 176 882 160 882 q 197 881 189 882 q 211 877 205 880 q 219 869 216 873 q 224 857 222 864 l 300 600 q 325 513 314 555 q 345 427 335 471 l 346 427 q 401 512 374 470 q 459 599 429 555 l 640 860 q 648 870 644 866 q 659 877 652 874 q 674 881 665 880 q 698 882 684 882 q 723 879 715 882 q 734 873 732 877 q 734 863 736 869 q 726 850 731 857 l 374 346 m 652 1035 q 646 1009 650 1019 q 634 991 642 998 q 617 982 627 985 q 591 979 606 979 q 566 982 575 979 q 551 991 556 985 q 545 1009 546 998 q 547 1035 545 1019 q 552 1061 549 1050 q 563 1078 556 1072 q 581 1087 570 1084 q 607 1090 591 1090 q 632 1087 623 1090 q 647 1078 642 1084 q 653 1061 652 1072 q 652 1035 654 1050 m 380 1035 q 374 1009 378 1019 q 363 991 370 998 q 345 982 356 985 q 319 979 334 979 q 294 982 303 979 q 279 991 284 985 q 273 1009 274 998 q 275 1035 273 1019 q 281 1061 277 1050 q 292 1078 285 1072 q 309 1087 298 1084 q 336 1090 320 1090 q 361 1087 351 1090 q 375 1078 370 1084 q 381 1061 380 1072 q 380 1035 382 1050 m 30 878 z "},"Z":{"ha":644,"x_min":-15,"x_max":701,"o":"m 677 878 q 694 871 688 878 q 701 854 701 864 q 698 832 701 847 q 693 808 696 817 q 690 800 692 804 q 684 791 688 796 q 674 777 680 785 q 659 758 668 769 l 85 74 l 543 74 q 555 69 552 74 q 558 54 558 64 q 558 45 558 51 q 556 34 557 40 q 553 22 555 28 q 548 11 551 16 q 541 3 545 6 q 530 0 536 0 l 10 0 q -8 7 -2 0 q -15 25 -15 15 q -14 35 -15 28 q -12 47 -14 41 q -8 61 -10 54 q -5 72 -7 68 q -1 80 -3 75 q 5 90 1 84 q 15 102 9 95 q 29 119 21 110 l 602 804 l 170 804 q 155 825 155 804 q 155 833 155 828 q 157 845 156 839 q 161 857 159 850 q 166 867 163 863 q 174 874 170 871 q 185 878 179 878 l 677 878 z "},"Ź":{"ha":644,"x_min":-15,"x_max":701,"o":"m 677 878 q 694 871 688 878 q 701 854 701 864 q 698 832 701 847 q 693 808 696 817 q 690 800 692 804 q 684 791 688 796 q 674 777 680 785 q 659 758 668 769 l 85 74 l 543 74 q 555 69 552 74 q 558 54 558 64 q 558 45 558 51 q 556 34 557 40 q 553 22 555 28 q 548 11 551 16 q 541 3 545 6 q 530 0 536 0 l 10 0 q -8 7 -2 0 q -15 25 -15 15 q -14 35 -15 28 q -12 47 -14 41 q -8 61 -10 54 q -5 72 -7 68 q -1 80 -3 75 q 5 90 1 84 q 15 102 9 95 q 29 119 21 110 l 602 804 l 170 804 q 155 825 155 804 q 155 833 155 828 q 157 845 156 839 q 161 857 159 850 q 166 867 163 863 q 174 874 170 871 q 185 878 179 878 l 677 878 m 480 969 q 467 959 473 962 q 456 953 462 955 q 443 950 450 951 q 425 949 435 949 q 398 956 402 949 q 406 975 395 962 l 543 1123 q 557 1135 550 1131 q 571 1142 564 1139 q 588 1145 579 1144 q 610 1145 597 1145 q 633 1143 625 1145 q 645 1137 642 1141 q 648 1128 649 1133 q 641 1118 646 1123 l 480 969 m 155 878 z "},"Ž":{"ha":644,"x_min":-15,"x_max":701,"o":"m 677 878 q 694 871 688 878 q 701 854 701 864 q 698 832 701 847 q 693 808 696 817 q 690 800 692 804 q 684 791 688 796 q 674 777 680 785 q 659 758 668 769 l 85 74 l 543 74 q 555 69 552 74 q 558 54 558 64 q 558 45 558 51 q 556 34 557 40 q 553 22 555 28 q 548 11 551 16 q 541 3 545 6 q 530 0 536 0 l 10 0 q -8 7 -2 0 q -15 25 -15 15 q -14 35 -15 28 q -12 47 -14 41 q -8 61 -10 54 q -5 72 -7 68 q -1 80 -3 75 q 5 90 1 84 q 15 102 9 95 q 29 119 21 110 l 602 804 l 170 804 q 155 825 155 804 q 155 833 155 828 q 157 845 156 839 q 161 857 159 850 q 166 867 163 863 q 174 874 170 871 q 185 878 179 878 l 677 878 m 493 964 q 484 958 488 960 q 473 953 479 955 q 461 950 468 951 q 445 949 454 949 q 428 950 435 949 q 417 952 422 951 q 409 957 412 954 q 402 964 406 960 l 283 1123 q 279 1133 279 1128 q 282 1140 279 1137 q 293 1144 286 1143 q 311 1145 300 1145 q 335 1144 326 1145 q 349 1142 344 1143 q 356 1138 353 1141 q 361 1133 358 1135 l 452 1003 l 600 1129 q 612 1137 606 1134 q 626 1142 618 1141 q 644 1145 633 1144 q 667 1145 654 1145 q 687 1144 680 1145 q 696 1139 694 1142 q 696 1132 699 1137 q 688 1123 694 1128 l 493 964 m 15 878 z "},"Ż":{"ha":644,"x_min":-15,"x_max":701,"o":"m 677 878 q 694 871 688 878 q 701 854 701 864 q 698 832 701 847 q 693 808 696 817 q 690 800 692 804 q 684 791 688 796 q 674 777 680 785 q 659 758 668 769 l 85 74 l 543 74 q 555 69 552 74 q 558 54 558 64 q 558 45 558 51 q 556 34 557 40 q 553 22 555 28 q 548 11 551 16 q 541 3 545 6 q 530 0 536 0 l 10 0 q -8 7 -2 0 q -15 25 -15 15 q -14 35 -15 28 q -12 47 -14 41 q -8 61 -10 54 q -5 72 -7 68 q -1 80 -3 75 q 5 90 1 84 q 15 102 9 95 q 29 119 21 110 l 602 804 l 170 804 q 155 825 155 804 q 155 833 155 828 q 157 845 156 839 q 161 857 159 850 q 166 867 163 863 q 174 874 170 871 q 185 878 179 878 l 677 878 m 409 1035 q 416 1060 412 1049 q 429 1077 421 1070 q 448 1087 437 1084 q 473 1090 458 1090 q 497 1087 488 1090 q 511 1077 507 1084 q 516 1060 516 1070 q 514 1035 517 1049 q 506 1009 511 1020 q 494 992 501 999 q 475 982 486 985 q 450 979 465 979 q 426 982 435 979 q 412 992 417 985 q 407 1009 408 999 q 409 1035 406 1020 m 165 878 z "},"a":{"ha":704,"x_min":62,"x_max":653,"o":"m 530 14 q 519 0 528 4 q 489 -4 510 -4 q 472 -3 479 -4 q 462 0 466 -2 q 456 5 458 2 q 456 14 455 9 l 481 140 q 450 91 473 117 q 394 42 427 64 q 323 4 362 19 q 243 -12 283 -12 q 153 7 188 -12 q 97 57 117 26 q 69 126 77 88 q 62 203 62 165 q 68 286 62 239 q 91 383 75 333 q 131 481 106 433 q 191 567 155 529 q 274 629 227 606 q 381 652 321 652 q 487 628 444 652 q 564 561 530 603 l 578 627 q 590 641 581 637 q 620 645 600 645 q 637 644 630 645 q 647 641 644 643 q 652 635 651 638 q 652 627 653 631 l 530 14 m 543 479 q 466 557 507 531 q 374 583 425 583 q 300 564 333 583 q 242 513 267 545 q 199 441 217 481 q 170 360 181 401 q 153 278 158 318 q 147 208 147 238 q 151 155 147 182 q 167 107 155 129 q 200 72 179 85 q 255 58 221 58 q 337 80 296 58 q 414 141 378 102 q 477 236 450 181 q 518 356 505 290 l 543 479 z "},"à":{"ha":704,"x_min":62,"x_max":653,"o":"m 530 14 q 519 0 528 4 q 489 -4 510 -4 q 472 -3 479 -4 q 462 0 466 -2 q 456 5 458 2 q 456 14 455 9 l 481 140 q 450 91 473 117 q 394 42 427 64 q 323 4 362 19 q 243 -12 283 -12 q 153 7 188 -12 q 97 57 117 26 q 69 126 77 88 q 62 203 62 165 q 68 286 62 239 q 91 383 75 333 q 131 481 106 433 q 191 567 155 529 q 274 629 227 606 q 381 652 321 652 q 487 628 444 652 q 564 561 530 603 l 578 627 q 590 641 581 637 q 620 645 600 645 q 637 644 630 645 q 647 641 644 643 q 652 635 651 638 q 652 627 653 631 l 530 14 m 543 479 q 466 557 507 531 q 374 583 425 583 q 300 564 333 583 q 242 513 267 545 q 199 441 217 481 q 170 360 181 401 q 153 278 158 318 q 147 208 147 238 q 151 155 147 182 q 167 107 155 129 q 200 72 179 85 q 255 58 221 58 q 337 80 296 58 q 414 141 378 102 q 477 236 450 181 q 518 356 505 290 l 543 479 m 480 768 q 485 758 484 762 q 483 750 486 753 q 474 745 481 747 q 458 743 468 743 q 441 744 448 743 q 429 746 434 744 q 420 752 424 748 q 411 763 416 756 l 300 922 q 296 933 296 928 q 299 942 295 938 q 311 947 302 945 q 332 949 319 949 q 353 949 345 949 q 368 946 362 948 q 379 939 374 943 q 387 926 383 934 l 480 768 z "},"á":{"ha":704,"x_min":62,"x_max":653,"o":"m 530 14 q 519 0 528 4 q 489 -4 510 -4 q 472 -3 479 -4 q 462 0 466 -2 q 456 5 458 2 q 456 14 455 9 l 481 140 q 450 91 473 117 q 394 42 427 64 q 323 4 362 19 q 243 -12 283 -12 q 153 7 188 -12 q 97 57 117 26 q 69 126 77 88 q 62 203 62 165 q 68 286 62 239 q 91 383 75 333 q 131 481 106 433 q 191 567 155 529 q 274 629 227 606 q 381 652 321 652 q 487 628 444 652 q 564 561 530 603 l 578 627 q 590 641 581 637 q 620 645 600 645 q 637 644 630 645 q 647 641 644 643 q 652 635 651 638 q 652 627 653 631 l 530 14 m 543 479 q 466 557 507 531 q 374 583 425 583 q 300 564 333 583 q 242 513 267 545 q 199 441 217 481 q 170 360 181 401 q 153 278 158 318 q 147 208 147 238 q 151 155 147 182 q 167 107 155 129 q 200 72 179 85 q 255 58 221 58 q 337 80 296 58 q 414 141 378 102 q 477 236 450 181 q 518 356 505 290 l 543 479 m 459 763 q 451 752 455 756 q 443 747 448 749 q 431 744 437 745 q 414 743 424 743 q 397 745 404 743 q 389 750 391 747 q 388 758 387 753 q 393 768 389 762 l 498 926 q 508 938 503 933 q 519 945 513 943 q 535 948 526 947 q 557 949 544 949 q 578 947 570 949 q 588 942 585 945 q 590 933 591 938 q 585 922 589 928 l 459 763 z "},"â":{"ha":704,"x_min":62,"x_max":653,"o":"m 530 14 q 519 0 528 4 q 489 -4 510 -4 q 472 -3 479 -4 q 462 0 466 -2 q 456 5 458 2 q 456 14 455 9 l 481 140 q 450 91 473 117 q 394 42 427 64 q 323 4 362 19 q 243 -12 283 -12 q 153 7 188 -12 q 97 57 117 26 q 69 126 77 88 q 62 203 62 165 q 68 286 62 239 q 91 383 75 333 q 131 481 106 433 q 191 567 155 529 q 274 629 227 606 q 381 652 321 652 q 487 628 444 652 q 564 561 530 603 l 578 627 q 590 641 581 637 q 620 645 600 645 q 637 644 630 645 q 647 641 644 643 q 652 635 651 638 q 652 627 653 631 l 530 14 m 543 479 q 466 557 507 531 q 374 583 425 583 q 300 564 333 583 q 242 513 267 545 q 199 441 217 481 q 170 360 181 401 q 153 278 158 318 q 147 208 147 238 q 151 155 147 182 q 167 107 155 129 q 200 72 179 85 q 255 58 221 58 q 337 80 296 58 q 414 141 378 102 q 477 236 450 181 q 518 356 505 290 l 543 479 m 617 777 q 623 762 621 768 q 622 751 625 755 q 612 745 620 747 q 592 743 605 743 q 576 744 582 743 q 566 747 570 745 q 558 752 562 749 q 553 761 555 755 l 481 895 l 357 761 q 348 752 352 755 q 339 747 344 749 q 328 744 334 745 q 313 743 321 743 q 292 745 299 743 q 282 751 284 747 q 283 762 280 755 q 295 777 287 768 l 441 935 q 449 942 445 939 q 459 946 454 945 q 473 949 465 948 q 492 949 481 949 q 509 949 503 949 q 520 946 515 948 q 528 941 525 944 q 534 935 531 939 l 617 777 m 92 642 z "},"ã":{"ha":704,"x_min":62,"x_max":669,"o":"m 530 14 q 519 0 528 4 q 489 -4 510 -4 q 472 -3 479 -4 q 462 0 466 -2 q 456 5 458 2 q 456 14 455 9 l 481 140 q 450 91 473 117 q 394 42 427 64 q 323 4 362 19 q 243 -12 283 -12 q 153 7 188 -12 q 97 57 117 26 q 69 126 77 88 q 62 203 62 165 q 68 286 62 239 q 91 383 75 333 q 131 481 106 433 q 191 567 155 529 q 274 629 227 606 q 381 652 321 652 q 487 628 444 652 q 564 561 530 603 l 578 627 q 590 641 581 637 q 620 645 600 645 q 637 644 630 645 q 647 641 644 643 q 652 635 651 638 q 652 627 653 631 l 530 14 m 543 479 q 466 557 507 531 q 374 583 425 583 q 300 564 333 583 q 242 513 267 545 q 199 441 217 481 q 170 360 181 401 q 153 278 158 318 q 147 208 147 238 q 151 155 147 182 q 167 107 155 129 q 200 72 179 85 q 255 58 221 58 q 337 80 296 58 q 414 141 378 102 q 477 236 450 181 q 518 356 505 290 l 543 479 m 669 892 q 668 877 669 889 q 663 849 667 865 q 650 815 659 833 q 626 782 641 797 q 589 756 611 766 q 536 747 567 747 q 492 754 511 747 q 458 772 473 761 q 429 795 442 783 q 403 819 416 808 q 377 837 391 829 q 349 844 364 844 q 305 822 319 844 q 287 764 292 800 q 285 756 286 760 q 279 751 283 753 q 268 748 275 749 q 249 747 261 747 q 235 748 240 747 q 227 751 229 749 q 223 758 224 753 q 222 767 222 762 q 223 783 222 770 q 228 811 224 795 q 241 845 233 827 q 265 877 250 863 q 301 902 279 892 q 355 911 323 911 q 398 904 379 911 q 433 886 417 897 q 461 863 448 876 q 487 840 474 850 q 512 822 499 829 q 541 814 525 814 q 583 834 567 814 q 604 894 599 854 q 611 907 604 903 q 637 911 618 911 q 664 907 659 911 q 669 892 669 902 z "},"ä":{"ha":704,"x_min":62,"x_max":653,"o":"m 530 14 q 519 0 528 4 q 489 -4 510 -4 q 472 -3 479 -4 q 462 0 466 -2 q 456 5 458 2 q 456 14 455 9 l 481 140 q 450 91 473 117 q 394 42 427 64 q 323 4 362 19 q 243 -12 283 -12 q 153 7 188 -12 q 97 57 117 26 q 69 126 77 88 q 62 203 62 165 q 68 286 62 239 q 91 383 75 333 q 131 481 106 433 q 191 567 155 529 q 274 629 227 606 q 381 652 321 652 q 487 628 444 652 q 564 561 530 603 l 578 627 q 590 641 581 637 q 620 645 600 645 q 637 644 630 645 q 647 641 644 643 q 652 635 651 638 q 652 627 653 631 l 530 14 m 543 479 q 466 557 507 531 q 374 583 425 583 q 300 564 333 583 q 242 513 267 545 q 199 441 217 481 q 170 360 181 401 q 153 278 158 318 q 147 208 147 238 q 151 155 147 182 q 167 107 155 129 q 200 72 179 85 q 255 58 221 58 q 337 80 296 58 q 414 141 378 102 q 477 236 450 181 q 518 356 505 290 l 543 479 m 606 821 q 600 796 604 806 q 589 780 595 786 q 572 771 582 774 q 547 768 562 768 q 523 771 532 768 q 509 780 514 774 q 504 796 505 786 q 505 821 503 806 q 511 846 507 836 q 522 862 515 856 q 538 871 528 869 q 563 874 549 874 q 587 871 578 874 q 601 862 596 869 q 607 846 606 856 q 606 821 608 836 m 380 821 q 374 796 378 806 q 362 780 370 786 q 345 771 355 774 q 321 768 335 768 q 297 771 306 768 q 283 780 288 774 q 277 796 278 786 q 279 821 277 806 q 284 846 281 836 q 295 862 288 856 q 312 871 302 869 q 337 874 322 874 q 360 871 351 874 q 375 862 370 869 q 381 846 380 856 q 380 821 382 836 m 77 642 z "},"ā":{"ha":704,"x_min":62,"x_max":653,"o":"m 530 14 q 519 0 528 4 q 489 -4 510 -4 q 472 -3 479 -4 q 462 0 466 -2 q 456 5 458 2 q 456 14 455 9 l 481 140 q 450 91 473 117 q 394 42 427 64 q 323 4 362 19 q 243 -12 283 -12 q 153 7 188 -12 q 97 57 117 26 q 69 126 77 88 q 62 203 62 165 q 68 286 62 239 q 91 383 75 333 q 131 481 106 433 q 191 567 155 529 q 274 629 227 606 q 381 652 321 652 q 487 628 444 652 q 564 561 530 603 l 578 627 q 590 641 581 637 q 620 645 600 645 q 637 644 630 645 q 647 641 644 643 q 652 635 651 638 q 652 627 653 631 l 530 14 m 543 479 q 466 557 507 531 q 374 583 425 583 q 300 564 333 583 q 242 513 267 545 q 199 441 217 481 q 170 360 181 401 q 153 278 158 318 q 147 208 147 238 q 151 155 147 182 q 167 107 155 129 q 200 72 179 85 q 255 58 221 58 q 337 80 296 58 q 414 141 378 102 q 477 236 450 181 q 518 356 505 290 l 543 479 m 623 848 q 623 840 623 844 q 621 829 622 835 q 617 818 619 824 q 612 808 615 812 q 606 801 610 804 q 597 798 602 798 l 284 798 q 274 803 277 798 q 270 817 270 808 q 271 829 270 821 q 275 846 272 838 q 283 860 278 854 q 298 866 289 866 l 611 866 q 621 861 618 866 q 623 848 623 856 m 68 642 z "},"ă":{"ha":704,"x_min":62,"x_max":653,"o":"m 530 14 q 519 0 528 4 q 489 -4 510 -4 q 472 -3 479 -4 q 462 0 466 -2 q 456 5 458 2 q 456 14 455 9 l 481 140 q 450 91 473 117 q 394 42 427 64 q 323 4 362 19 q 243 -12 283 -12 q 153 7 188 -12 q 97 57 117 26 q 69 126 77 88 q 62 203 62 165 q 68 286 62 239 q 91 383 75 333 q 131 481 106 433 q 191 567 155 529 q 274 629 227 606 q 381 652 321 652 q 487 628 444 652 q 564 561 530 603 l 578 627 q 590 641 581 637 q 620 645 600 645 q 637 644 630 645 q 647 641 644 643 q 652 635 651 638 q 652 627 653 631 l 530 14 m 543 479 q 466 557 507 531 q 374 583 425 583 q 300 564 333 583 q 242 513 267 545 q 199 441 217 481 q 170 360 181 401 q 153 278 158 318 q 147 208 147 238 q 151 155 147 182 q 167 107 155 129 q 200 72 179 85 q 255 58 221 58 q 337 80 296 58 q 414 141 378 102 q 477 236 450 181 q 518 356 505 290 l 543 479 m 622 932 q 619 908 622 924 q 608 870 616 891 q 586 828 600 850 q 550 788 572 806 q 499 758 529 770 q 429 747 469 747 q 362 757 389 747 q 320 784 336 767 q 297 825 304 802 q 290 873 290 848 q 291 889 290 879 q 293 908 292 899 q 297 926 295 918 q 302 937 299 935 q 314 943 307 941 q 330 944 322 944 q 345 943 339 944 q 353 941 350 943 q 358 938 357 940 q 359 932 359 935 q 358 913 359 923 q 357 891 357 903 q 360 860 357 874 q 373 834 364 845 q 396 817 382 823 q 433 811 411 811 q 474 818 454 811 q 510 838 493 824 q 539 874 526 852 q 560 928 552 896 q 563 935 561 932 q 569 940 565 938 q 579 943 572 942 q 595 944 585 944 q 610 943 604 944 q 618 941 615 942 q 621 937 621 939 q 622 932 622 935 m 74 642 z "},"å":{"ha":704,"x_min":62,"x_max":653,"o":"m 530 14 q 519 0 528 4 q 489 -4 510 -4 q 472 -3 479 -4 q 462 0 466 -2 q 456 5 458 2 q 456 14 455 9 l 481 140 q 450 91 473 117 q 394 42 427 64 q 323 4 362 19 q 243 -12 283 -12 q 153 7 188 -12 q 97 57 117 26 q 69 126 77 88 q 62 203 62 165 q 68 286 62 239 q 91 383 75 333 q 131 481 106 433 q 191 567 155 529 q 274 629 227 606 q 381 652 321 652 q 487 628 444 652 q 564 561 530 603 l 578 627 q 590 641 581 637 q 620 645 600 645 q 637 644 630 645 q 647 641 644 643 q 652 635 651 638 q 652 627 653 631 l 530 14 m 543 479 q 466 557 507 531 q 374 583 425 583 q 300 564 333 583 q 242 513 267 545 q 199 441 217 481 q 170 360 181 401 q 153 278 158 318 q 147 208 147 238 q 151 155 147 182 q 167 107 155 129 q 200 72 179 85 q 255 58 221 58 q 337 80 296 58 q 414 141 378 102 q 477 236 450 181 q 518 356 505 290 l 543 479 m 566 861 q 555 807 566 831 q 527 766 545 783 q 485 740 509 749 q 431 730 460 730 q 381 739 401 730 q 348 762 361 747 q 330 794 335 776 q 324 832 324 812 q 334 887 324 863 q 362 928 345 911 q 405 954 380 945 q 458 963 430 963 q 509 954 488 963 q 542 931 529 945 q 560 899 555 917 q 566 861 566 880 m 508 855 q 505 877 508 866 q 496 897 503 888 q 478 910 490 905 q 451 916 467 916 q 400 895 418 916 q 382 839 382 873 q 385 817 382 827 q 394 797 387 806 q 411 784 400 789 q 439 779 422 779 q 490 799 472 779 q 508 855 508 820 m 118 642 z "},"ǻ":{"ha":704,"x_min":62,"x_max":653,"o":"m 530 14 q 519 0 528 4 q 489 -4 510 -4 q 472 -3 479 -4 q 462 0 466 -2 q 456 5 458 2 q 456 14 455 9 l 481 140 q 450 91 473 117 q 394 42 427 64 q 323 4 362 19 q 243 -12 283 -12 q 153 7 188 -12 q 97 57 117 26 q 69 126 77 88 q 62 203 62 165 q 68 286 62 239 q 91 383 75 333 q 131 481 106 433 q 191 567 155 529 q 274 629 227 606 q 381 652 321 652 q 487 628 444 652 q 564 561 530 603 l 578 627 q 590 641 581 637 q 620 645 600 645 q 637 644 630 645 q 647 641 644 643 q 652 635 651 638 q 652 627 653 631 l 530 14 m 543 479 q 466 557 507 531 q 374 583 425 583 q 300 564 333 583 q 242 513 267 545 q 199 441 217 481 q 170 360 181 401 q 153 278 158 318 q 147 208 147 238 q 151 155 147 182 q 167 107 155 129 q 200 72 179 85 q 255 58 221 58 q 337 80 296 58 q 414 141 378 102 q 477 236 450 181 q 518 356 505 290 l 543 479 m 519 975 q 507 965 512 969 q 495 959 501 961 q 482 955 489 956 q 465 954 475 954 q 448 956 454 954 q 440 961 441 958 q 440 969 438 964 q 449 979 443 974 l 549 1076 q 563 1087 556 1083 q 576 1095 569 1092 q 591 1098 583 1097 q 612 1099 600 1099 q 635 1097 627 1099 q 647 1091 644 1095 q 647 1083 650 1088 q 637 1072 644 1078 l 519 975 m 551 816 q 542 772 551 793 q 518 737 533 752 q 481 714 503 722 q 436 705 460 705 q 388 713 408 705 q 354 734 368 721 q 335 765 341 747 q 328 801 328 782 q 336 846 328 825 q 360 881 345 867 q 397 904 375 896 q 446 913 419 913 q 491 905 471 913 q 524 885 511 898 q 544 854 537 871 q 551 816 551 836 m 499 812 q 496 833 499 823 q 486 851 493 843 q 469 865 479 859 q 441 870 458 870 q 396 852 412 870 q 380 807 380 835 q 382 785 380 795 q 392 767 385 775 q 410 754 399 759 q 439 749 422 749 q 484 768 469 749 q 499 812 499 786 m 138 642 z "},"ą":{"ha":704,"x_min":62,"x_max":653,"o":"m 543 479 q 466 557 507 531 q 374 583 425 583 q 300 564 333 583 q 242 513 267 545 q 199 441 217 481 q 170 360 181 401 q 153 278 158 318 q 147 208 147 238 q 151 155 147 182 q 167 107 155 129 q 200 72 179 85 q 255 58 221 58 q 337 80 296 58 q 414 141 378 102 q 477 236 450 181 q 518 356 505 290 l 543 479 m 481 140 q 450 91 473 117 q 394 42 427 64 q 323 4 362 19 q 243 -12 283 -12 q 153 7 188 -12 q 97 57 117 26 q 69 126 77 88 q 62 203 62 165 q 68 286 62 239 q 91 383 75 333 q 131 481 106 433 q 191 567 155 529 q 274 629 227 606 q 381 652 321 652 q 487 628 444 652 q 564 561 530 603 l 578 627 q 590 641 581 637 q 620 645 600 645 q 637 644 630 645 q 647 641 644 643 q 652 635 651 638 q 652 627 653 631 l 530 14 q 519 -17 526 -6 q 498 -40 513 -28 l 452 -79 q 414 -118 425 -102 q 404 -152 404 -134 q 413 -173 404 -164 q 441 -181 422 -181 l 521 -181 q 531 -184 528 -181 q 533 -193 533 -187 q 532 -201 533 -196 q 530 -213 532 -207 q 527 -223 529 -218 q 523 -230 526 -228 q 510 -236 519 -233 q 488 -242 500 -239 q 461 -246 475 -245 q 433 -248 446 -248 q 349 -227 376 -248 q 321 -168 321 -206 q 324 -142 321 -155 q 336 -114 327 -130 q 360 -82 345 -99 q 400 -44 376 -64 l 454 0 l 481 140 z "},"æ":{"ha":1041,"x_min":39,"x_max":1000,"o":"m 804 652 q 896 638 859 652 q 956 603 933 625 q 989 556 979 582 q 1000 505 1000 530 q 979 425 1000 461 q 914 362 959 388 q 797 321 869 336 q 620 307 724 307 l 542 307 q 535 258 537 281 q 533 214 533 235 q 570 98 533 139 q 692 58 607 58 q 765 64 732 58 q 823 78 798 71 q 863 92 848 85 q 884 98 878 98 q 894 83 894 98 q 892 69 894 77 q 888 55 891 62 q 883 42 886 47 q 876 33 880 36 q 850 18 869 25 q 804 3 831 10 q 745 -7 777 -3 q 679 -12 712 -12 q 606 -4 640 -12 q 547 19 573 4 q 501 57 520 35 q 470 107 481 79 q 410 57 441 79 q 348 20 380 35 q 284 -3 317 5 q 218 -12 252 -12 q 131 2 165 -12 q 76 37 97 16 q 47 85 56 58 q 39 137 39 111 q 48 202 39 172 q 76 260 58 233 q 122 307 95 286 q 184 343 149 328 q 262 366 220 358 q 355 374 305 374 l 474 374 l 486 424 q 493 493 494 463 q 477 543 491 523 q 435 573 463 563 q 366 583 408 583 q 290 573 326 583 q 227 551 254 564 q 181 529 199 539 q 156 519 163 519 q 147 525 151 519 q 143 539 143 531 q 144 553 143 546 q 148 567 146 561 q 154 580 151 574 q 162 590 158 586 q 193 610 171 599 q 243 630 214 621 q 307 646 273 640 q 376 652 341 652 q 451 644 419 652 q 506 619 484 635 q 542 581 528 603 q 559 534 555 559 q 609 584 581 562 q 669 621 637 606 q 735 644 701 636 q 804 652 769 652 m 452 176 q 450 191 450 183 q 449 209 449 199 q 451 258 449 233 q 459 307 454 284 l 351 307 q 250 294 292 307 q 181 261 208 282 q 140 210 153 239 q 127 146 127 180 q 155 80 127 102 q 228 58 183 58 q 281 64 255 58 q 335 85 308 71 q 391 121 362 99 q 452 176 420 144 m 914 498 q 907 532 914 516 q 886 559 901 547 q 850 577 872 570 q 797 583 827 583 q 708 566 748 583 q 638 520 669 549 q 587 453 608 491 q 555 374 566 415 l 635 374 q 772 384 718 374 q 858 411 826 394 q 902 451 889 429 q 914 498 914 473 z "},"ǽ":{"ha":1041,"x_min":39,"x_max":1000,"o":"m 804 652 q 896 638 859 652 q 956 603 933 625 q 989 556 979 582 q 1000 505 1000 530 q 979 425 1000 461 q 914 362 959 388 q 797 321 869 336 q 620 307 724 307 l 542 307 q 535 258 537 281 q 533 214 533 235 q 570 98 533 139 q 692 58 607 58 q 765 64 732 58 q 823 78 798 71 q 863 92 848 85 q 884 98 878 98 q 894 83 894 98 q 892 69 894 77 q 888 55 891 62 q 883 42 886 47 q 876 33 880 36 q 850 18 869 25 q 804 3 831 10 q 745 -7 777 -3 q 679 -12 712 -12 q 606 -4 640 -12 q 547 19 573 4 q 501 57 520 35 q 470 107 481 79 q 410 57 441 79 q 348 20 380 35 q 284 -3 317 5 q 218 -12 252 -12 q 131 2 165 -12 q 76 37 97 16 q 47 85 56 58 q 39 137 39 111 q 48 202 39 172 q 76 260 58 233 q 122 307 95 286 q 184 343 149 328 q 262 366 220 358 q 355 374 305 374 l 474 374 l 486 424 q 493 493 494 463 q 477 543 491 523 q 435 573 463 563 q 366 583 408 583 q 290 573 326 583 q 227 551 254 564 q 181 529 199 539 q 156 519 163 519 q 147 525 151 519 q 143 539 143 531 q 144 553 143 546 q 148 567 146 561 q 154 580 151 574 q 162 590 158 586 q 193 610 171 599 q 243 630 214 621 q 307 646 273 640 q 376 652 341 652 q 451 644 419 652 q 506 619 484 635 q 542 581 528 603 q 559 534 555 559 q 609 584 581 562 q 669 621 637 606 q 735 644 701 636 q 804 652 769 652 m 452 176 q 450 191 450 183 q 449 209 449 199 q 451 258 449 233 q 459 307 454 284 l 351 307 q 250 294 292 307 q 181 261 208 282 q 140 210 153 239 q 127 146 127 180 q 155 80 127 102 q 228 58 183 58 q 281 64 255 58 q 335 85 308 71 q 391 121 362 99 q 452 176 420 144 m 914 498 q 907 532 914 516 q 886 559 901 547 q 850 577 872 570 q 797 583 827 583 q 708 566 748 583 q 638 520 669 549 q 587 453 608 491 q 555 374 566 415 l 635 374 q 772 384 718 374 q 858 411 826 394 q 902 451 889 429 q 914 498 914 473 m 663 763 q 655 752 659 756 q 646 747 651 749 q 634 744 641 745 q 617 743 627 743 q 601 745 607 743 q 592 750 595 747 q 591 758 590 753 q 596 768 592 762 l 701 926 q 711 938 706 933 q 723 945 716 943 q 738 948 729 947 q 761 949 747 949 q 781 947 774 949 q 792 942 789 945 q 794 933 795 938 q 788 922 793 928 l 663 763 z "},"b":{"ha":704,"x_min":51,"x_max":644,"o":"m 644 437 q 636 351 644 399 q 613 253 629 302 q 573 155 597 203 q 512 71 548 108 q 430 11 477 34 q 324 -12 383 -12 q 218 12 261 -12 q 140 78 174 36 l 127 14 q 115 0 125 4 q 85 -4 105 -4 q 58 1 64 -4 q 53 14 51 5 l 235 928 q 238 935 236 932 q 246 941 241 939 q 259 944 251 943 q 279 945 267 945 q 298 944 291 945 q 310 941 306 943 q 315 935 314 939 q 315 928 316 932 l 258 639 q 249 600 254 620 q 239 561 244 580 q 229 524 233 541 q 220 495 224 507 q 254 547 230 519 q 311 598 278 574 q 382 637 343 621 q 463 652 422 652 q 533 641 504 652 q 583 612 563 630 q 615 570 603 593 q 633 523 627 547 q 642 477 640 499 q 644 437 644 454 m 558 431 q 555 477 558 451 q 540 527 551 504 q 508 567 529 551 q 450 583 486 583 q 368 561 410 583 q 291 498 327 538 q 228 404 256 458 q 187 283 200 349 l 162 159 q 240 82 199 107 q 332 58 281 58 q 402 76 370 58 q 459 123 434 94 q 503 192 484 153 q 534 272 522 230 q 552 355 546 313 q 558 431 558 396 z "},"c":{"ha":581,"x_min":58,"x_max":577,"o":"m 577 566 q 575 547 577 556 q 570 529 574 537 q 562 517 567 522 q 549 512 556 512 q 530 523 541 512 q 502 547 519 534 q 456 571 484 560 q 385 582 428 582 q 300 563 337 582 q 237 512 264 543 q 192 442 210 481 q 163 362 174 403 q 148 284 153 322 q 143 219 143 247 q 177 100 143 140 q 277 60 211 60 q 357 72 323 60 q 415 99 391 84 q 453 125 438 113 q 478 137 468 137 q 486 133 483 137 q 489 119 489 128 q 488 105 489 113 q 485 89 487 97 q 479 73 483 80 q 468 57 476 65 q 439 36 460 49 q 391 13 418 23 q 332 -5 364 2 q 267 -12 300 -12 q 110 42 161 -12 q 58 203 58 96 q 65 294 58 245 q 88 393 72 343 q 130 490 104 443 q 193 573 156 536 q 280 631 231 609 q 393 652 330 652 q 445 648 420 652 q 492 636 470 644 q 533 616 514 628 q 562 594 551 604 q 575 579 572 585 q 577 566 577 573 z "},"ć":{"ha":581,"x_min":58,"x_max":577,"o":"m 577 566 q 575 547 577 556 q 570 529 574 537 q 562 517 567 522 q 549 512 556 512 q 530 523 541 512 q 502 547 519 534 q 456 571 484 560 q 385 582 428 582 q 300 563 337 582 q 237 512 264 543 q 192 442 210 481 q 163 362 174 403 q 148 284 153 322 q 143 219 143 247 q 177 100 143 140 q 277 60 211 60 q 357 72 323 60 q 415 99 391 84 q 453 125 438 113 q 478 137 468 137 q 486 133 483 137 q 489 119 489 128 q 488 105 489 113 q 485 89 487 97 q 479 73 483 80 q 468 57 476 65 q 439 36 460 49 q 391 13 418 23 q 332 -5 364 2 q 267 -12 300 -12 q 110 42 161 -12 q 58 203 58 96 q 65 294 58 245 q 88 393 72 343 q 130 490 104 443 q 193 573 156 536 q 280 631 231 609 q 393 652 330 652 q 445 648 420 652 q 492 636 470 644 q 533 616 514 628 q 562 594 551 604 q 575 579 572 585 q 577 566 577 573 m 436 763 q 428 752 432 756 q 419 747 425 749 q 408 744 414 745 q 391 743 401 743 q 374 745 380 743 q 366 750 368 747 q 365 758 363 753 q 370 768 366 762 l 475 926 q 485 938 479 933 q 496 945 490 943 q 512 948 503 947 q 534 949 521 949 q 555 947 547 949 q 565 942 562 945 q 567 933 568 938 q 562 922 566 928 l 436 763 z "},"ĉ":{"ha":581,"x_min":47,"x_max":580,"o":"m 577 566 q 575 547 577 556 q 570 529 574 537 q 562 517 567 522 q 549 512 556 512 q 530 523 541 512 q 502 547 519 534 q 456 571 484 560 q 385 582 428 582 q 300 563 337 582 q 237 512 264 543 q 192 442 210 481 q 163 362 174 403 q 148 284 153 322 q 143 219 143 247 q 177 100 143 140 q 277 60 211 60 q 357 72 323 60 q 415 99 391 84 q 453 125 438 113 q 478 137 468 137 q 486 133 483 137 q 489 119 489 128 q 488 105 489 113 q 485 89 487 97 q 479 73 483 80 q 468 57 476 65 q 439 36 460 49 q 391 13 418 23 q 332 -5 364 2 q 267 -12 300 -12 q 110 42 161 -12 q 58 203 58 96 q 65 294 58 245 q 88 393 72 343 q 130 490 104 443 q 193 573 156 536 q 280 631 231 609 q 393 652 330 652 q 445 648 420 652 q 492 636 470 644 q 533 616 514 628 q 562 594 551 604 q 575 579 572 585 q 577 566 577 573 m 572 777 q 578 762 576 768 q 577 751 580 755 q 568 745 575 747 q 547 743 560 743 q 531 744 537 743 q 521 747 525 745 q 514 752 517 749 q 508 761 511 755 l 437 895 l 312 761 q 303 752 307 755 q 294 747 299 749 q 283 744 290 745 q 268 743 277 743 q 247 745 254 743 q 237 751 239 747 q 239 762 235 755 q 250 777 242 768 l 396 935 q 405 942 400 939 q 414 946 409 945 q 428 949 420 948 q 448 949 436 949 q 464 949 458 949 q 475 946 471 948 q 483 941 480 944 q 490 935 486 939 l 572 777 m 47 642 z "},"č":{"ha":581,"x_min":58,"x_max":611,"o":"m 577 566 q 575 547 577 556 q 570 529 574 537 q 562 517 567 522 q 549 512 556 512 q 530 523 541 512 q 502 547 519 534 q 456 571 484 560 q 385 582 428 582 q 300 563 337 582 q 237 512 264 543 q 192 442 210 481 q 163 362 174 403 q 148 284 153 322 q 143 219 143 247 q 177 100 143 140 q 277 60 211 60 q 357 72 323 60 q 415 99 391 84 q 453 125 438 113 q 478 137 468 137 q 486 133 483 137 q 489 119 489 128 q 488 105 489 113 q 485 89 487 97 q 479 73 483 80 q 468 57 476 65 q 439 36 460 49 q 391 13 418 23 q 332 -5 364 2 q 267 -12 300 -12 q 110 42 161 -12 q 58 203 58 96 q 65 294 58 245 q 88 393 72 343 q 130 490 104 443 q 193 573 156 536 q 280 631 231 609 q 393 652 330 652 q 445 648 420 652 q 492 636 470 644 q 533 616 514 628 q 562 594 551 604 q 575 579 572 585 q 577 566 577 573 m 452 758 q 443 750 448 753 q 433 746 439 747 q 418 744 427 745 q 399 743 410 743 q 382 744 389 743 q 371 746 376 745 q 363 751 366 748 q 358 758 361 754 l 275 916 q 269 930 271 924 q 270 941 267 937 q 279 947 272 945 q 299 949 286 949 q 315 948 309 949 q 325 945 321 947 q 332 940 329 943 q 337 932 334 937 l 409 797 l 533 932 q 542 940 538 937 q 552 945 547 943 q 563 948 557 947 q 578 949 570 949 q 599 947 591 949 q 609 941 607 945 q 608 931 611 937 q 597 916 606 924 l 452 758 z "},"ċ":{"ha":581,"x_min":58,"x_max":577,"o":"m 577 566 q 575 547 577 556 q 570 529 574 537 q 562 517 567 522 q 549 512 556 512 q 530 523 541 512 q 502 547 519 534 q 456 571 484 560 q 385 582 428 582 q 300 563 337 582 q 237 512 264 543 q 192 442 210 481 q 163 362 174 403 q 148 284 153 322 q 143 219 143 247 q 177 100 143 140 q 277 60 211 60 q 357 72 323 60 q 415 99 391 84 q 453 125 438 113 q 478 137 468 137 q 486 133 483 137 q 489 119 489 128 q 488 105 489 113 q 485 89 487 97 q 479 73 483 80 q 468 57 476 65 q 439 36 460 49 q 391 13 418 23 q 332 -5 364 2 q 267 -12 300 -12 q 110 42 161 -12 q 58 203 58 96 q 65 294 58 245 q 88 393 72 343 q 130 490 104 443 q 193 573 156 536 q 280 631 231 609 q 393 652 330 652 q 445 648 420 652 q 492 636 470 644 q 533 616 514 628 q 562 594 551 604 q 575 579 572 585 q 577 566 577 573 m 473 833 q 466 809 471 819 q 454 791 461 798 q 435 782 446 785 q 410 779 425 779 q 386 782 395 779 q 371 791 376 785 q 366 809 366 798 q 367 833 365 819 q 373 859 369 848 q 385 876 378 869 q 404 886 393 883 q 429 889 414 889 q 453 886 444 889 q 467 876 462 883 q 473 859 472 869 q 473 833 475 848 z "},"ç":{"ha":581,"x_min":58,"x_max":577,"o":"m 212 -7 q 100 54 142 3 q 58 203 58 105 q 65 294 58 245 q 88 393 72 343 q 130 490 104 443 q 193 573 156 536 q 280 631 231 609 q 393 652 330 652 q 445 648 420 652 q 492 636 470 644 q 533 616 514 628 q 562 594 551 604 q 575 579 572 585 q 577 566 577 573 q 575 547 577 556 q 570 529 574 537 q 562 517 567 522 q 549 512 556 512 q 530 523 541 512 q 502 547 519 534 q 456 571 484 560 q 385 582 428 582 q 300 563 337 582 q 237 512 264 543 q 192 442 210 481 q 163 362 174 403 q 148 284 153 322 q 143 219 143 247 q 177 100 143 140 q 277 60 211 60 q 357 72 323 60 q 415 99 391 84 q 453 125 438 113 q 478 137 468 137 q 486 133 483 137 q 489 119 489 128 q 488 105 489 113 q 485 89 487 97 q 479 73 483 80 q 468 57 476 65 q 436 34 460 49 q 371 5 413 19 q 286 -11 328 -9 l 297 -53 q 307 -95 304 -79 q 311 -125 311 -112 q 301 -180 311 -157 q 273 -218 291 -203 q 229 -240 255 -233 q 170 -248 203 -248 q 137 -246 154 -248 q 106 -242 120 -245 q 83 -237 92 -240 q 71 -233 73 -235 q 68 -228 69 -231 q 67 -221 67 -225 q 68 -207 67 -214 q 73 -194 70 -200 q 80 -185 75 -189 q 91 -181 84 -181 l 178 -181 q 200 -178 189 -181 q 219 -170 211 -176 q 233 -153 228 -163 q 238 -128 238 -143 q 236 -110 238 -121 q 232 -85 235 -98 l 212 -7 z "},"d":{"ha":704,"x_min":62,"x_max":713,"o":"m 530 14 q 520 0 529 4 q 490 -4 511 -4 q 474 -3 480 -4 q 463 0 467 -2 q 458 5 459 2 q 458 14 456 9 l 481 137 q 450 89 473 115 q 394 40 427 62 q 323 3 362 18 q 243 -12 283 -12 q 172 0 201 -12 q 122 29 142 11 q 91 70 102 47 q 72 118 79 94 q 64 166 66 142 q 62 208 62 189 q 69 292 62 245 q 92 389 76 340 q 133 486 108 438 q 193 570 157 533 q 275 630 229 607 q 381 652 322 652 q 439 646 412 652 q 487 627 465 639 q 527 599 509 615 q 561 564 545 583 l 633 924 q 636 932 633 928 q 643 937 638 935 q 655 941 648 939 q 675 942 663 942 q 695 941 687 942 q 707 937 703 939 q 712 932 711 935 q 713 924 713 928 l 530 14 m 543 477 q 466 556 507 529 q 374 583 425 583 q 302 565 334 583 q 244 515 270 546 q 201 446 219 485 q 171 365 182 406 q 153 283 159 323 q 147 210 147 243 q 173 97 147 137 q 255 58 198 58 q 337 79 296 58 q 414 140 378 101 q 477 233 450 179 q 518 353 505 288 l 543 477 z "},"ď":{"ha":745,"x_min":62,"x_max":904,"o":"m 530 14 q 520 0 529 4 q 490 -4 511 -4 q 474 -3 480 -4 q 463 0 467 -2 q 458 5 459 2 q 458 14 456 9 l 481 137 q 450 89 473 115 q 394 40 427 62 q 323 3 362 18 q 243 -12 283 -12 q 172 0 201 -12 q 122 29 142 11 q 91 70 102 47 q 72 118 79 94 q 64 166 66 142 q 62 208 62 189 q 69 292 62 245 q 92 389 76 340 q 133 486 108 438 q 193 570 157 533 q 275 630 229 607 q 381 652 322 652 q 439 646 412 652 q 487 627 465 639 q 527 599 509 615 q 561 564 545 583 l 633 924 q 636 932 633 928 q 643 937 638 935 q 655 941 648 939 q 675 942 663 942 q 695 941 687 942 q 707 937 703 939 q 712 932 711 935 q 713 924 713 928 l 530 14 m 543 477 q 466 556 507 529 q 374 583 425 583 q 302 565 334 583 q 244 515 270 546 q 201 446 219 485 q 171 365 182 406 q 153 283 159 323 q 147 210 147 243 q 173 97 147 137 q 255 58 198 58 q 337 79 296 58 q 414 140 378 101 q 477 233 450 179 q 518 353 505 288 l 543 477 m 793 676 q 789 671 791 673 q 781 668 786 669 q 769 666 777 667 q 751 665 762 665 q 741 666 745 665 q 734 669 736 667 q 732 674 732 671 q 733 680 732 677 l 825 888 q 831 898 827 894 q 841 904 835 902 q 856 907 847 906 q 876 908 864 908 q 892 907 886 908 q 901 904 899 906 q 903 897 904 901 q 900 888 903 893 l 793 676 m 549 642 z "},"đ":{"ha":753,"x_min":62,"x_max":812,"o":"m 797 827 q 808 823 804 827 q 812 807 812 819 q 812 799 812 804 q 810 789 811 794 q 806 778 808 783 q 801 769 804 773 q 793 762 798 765 q 783 760 789 760 l 680 760 l 530 14 q 520 0 529 4 q 490 -4 511 -4 q 474 -3 480 -4 q 463 0 467 -2 q 458 5 459 2 q 458 14 456 9 l 481 137 q 450 89 473 115 q 394 40 427 62 q 323 3 362 18 q 243 -12 283 -12 q 172 0 201 -12 q 122 29 142 11 q 91 70 102 47 q 72 118 79 94 q 64 166 66 142 q 62 208 62 189 q 69 292 62 245 q 92 389 76 340 q 133 486 108 438 q 193 570 157 533 q 275 630 229 607 q 381 652 322 652 q 439 646 412 652 q 487 627 465 639 q 527 599 509 615 q 561 564 545 583 l 600 760 l 421 760 q 411 764 414 760 q 408 779 408 769 q 408 787 408 782 q 410 798 408 792 q 413 808 411 803 q 418 818 415 813 q 425 825 420 822 q 435 827 429 827 l 614 827 l 633 924 q 636 932 633 928 q 643 937 638 935 q 655 941 648 939 q 675 942 663 942 q 695 941 687 942 q 707 937 703 939 q 712 932 711 935 q 713 924 713 928 l 694 827 l 797 827 m 543 477 q 466 556 507 529 q 374 583 425 583 q 302 565 334 583 q 244 515 270 546 q 201 446 219 485 q 171 365 182 406 q 153 283 159 323 q 147 210 147 243 q 173 97 147 137 q 255 58 198 58 q 337 79 296 58 q 414 140 378 101 q 477 233 450 179 q 518 353 505 288 l 543 477 z "},"ð":{"ha":722,"x_min":62,"x_max":745,"o":"m 288 732 q 273 734 277 728 q 269 749 269 739 q 271 768 269 760 q 277 784 273 777 q 286 795 281 791 q 299 802 292 800 l 452 840 l 401 917 q 396 928 397 923 q 398 936 395 932 q 410 940 401 939 q 434 942 418 942 q 462 941 451 942 q 480 937 473 939 q 492 931 488 935 q 499 923 496 928 l 537 861 l 726 908 q 741 906 736 911 q 745 892 745 902 q 744 877 745 886 q 739 861 743 869 q 730 846 736 852 q 714 838 724 840 l 573 802 q 603 738 589 770 q 625 669 616 705 q 639 595 634 633 q 644 515 644 557 q 638 415 644 465 q 622 318 633 365 q 593 229 610 271 q 553 150 576 186 q 500 83 530 113 q 436 33 471 54 q 358 0 400 12 q 268 -12 317 -12 q 172 5 212 -12 q 109 51 133 21 q 73 121 84 80 q 62 211 62 161 q 70 302 62 253 q 94 400 77 351 q 137 494 111 449 q 200 575 163 540 q 286 631 237 610 q 396 652 334 652 q 446 646 420 652 q 496 626 472 640 q 541 588 520 612 q 576 530 562 565 q 562 581 568 553 q 547 641 556 609 q 524 707 538 672 q 486 781 509 743 l 288 732 m 539 385 q 529 465 539 429 q 498 528 518 502 q 450 569 478 554 q 385 583 421 583 q 308 566 342 583 q 248 518 274 548 q 202 451 221 489 q 171 372 183 413 q 153 291 159 332 q 147 218 147 251 q 179 99 147 140 q 278 58 212 58 q 365 74 326 58 q 432 118 403 91 q 481 180 460 145 q 514 251 501 215 q 533 322 528 288 q 539 385 539 357 z "},"e":{"ha":652,"x_min":59,"x_max":611,"o":"m 611 507 q 590 425 611 461 q 522 363 568 389 q 404 323 476 337 q 231 309 332 309 l 153 309 q 146 259 149 283 q 144 214 144 235 q 181 98 144 139 q 299 58 217 58 q 376 64 342 58 q 434 78 410 71 q 474 92 459 85 q 495 98 490 98 q 503 94 500 98 q 505 83 505 90 q 504 72 505 79 q 501 59 503 66 q 496 44 499 52 q 488 33 492 37 q 459 17 479 24 q 412 3 439 9 q 353 -7 385 -3 q 290 -12 321 -12 q 189 2 232 -12 q 116 44 145 16 q 73 114 87 72 q 59 211 59 155 q 67 304 59 254 q 94 403 76 354 q 140 497 112 452 q 208 577 169 543 q 299 632 248 611 q 415 652 351 652 q 506 638 469 652 q 567 603 543 625 q 601 556 590 582 q 611 507 611 530 m 526 498 q 495 560 526 536 q 409 583 465 583 q 322 566 360 583 q 254 521 283 549 q 204 455 225 492 q 171 376 184 417 l 246 376 q 381 386 328 376 q 467 412 435 395 q 512 451 499 429 q 526 498 526 473 z "},"è":{"ha":652,"x_min":59,"x_max":611,"o":"m 611 507 q 590 425 611 461 q 522 363 568 389 q 404 323 476 337 q 231 309 332 309 l 153 309 q 146 259 149 283 q 144 214 144 235 q 181 98 144 139 q 299 58 217 58 q 376 64 342 58 q 434 78 410 71 q 474 92 459 85 q 495 98 490 98 q 503 94 500 98 q 505 83 505 90 q 504 72 505 79 q 501 59 503 66 q 496 44 499 52 q 488 33 492 37 q 459 17 479 24 q 412 3 439 9 q 353 -7 385 -3 q 290 -12 321 -12 q 189 2 232 -12 q 116 44 145 16 q 73 114 87 72 q 59 211 59 155 q 67 304 59 254 q 94 403 76 354 q 140 497 112 452 q 208 577 169 543 q 299 632 248 611 q 415 652 351 652 q 506 638 469 652 q 567 603 543 625 q 601 556 590 582 q 611 507 611 530 m 526 498 q 495 560 526 536 q 409 583 465 583 q 322 566 360 583 q 254 521 283 549 q 204 455 225 492 q 171 376 184 417 l 246 376 q 381 386 328 376 q 467 412 435 395 q 512 451 499 429 q 526 498 526 473 m 477 768 q 482 758 481 762 q 480 750 483 753 q 472 745 478 747 q 455 743 465 743 q 438 744 445 743 q 426 746 431 744 q 417 752 421 748 q 408 763 413 756 l 298 922 q 293 933 294 928 q 296 942 292 938 q 308 947 300 945 q 329 949 316 949 q 351 949 342 949 q 366 946 359 948 q 376 939 372 943 q 385 926 380 934 l 477 768 z "},"é":{"ha":652,"x_min":59,"x_max":611,"o":"m 611 507 q 590 425 611 461 q 522 363 568 389 q 404 323 476 337 q 231 309 332 309 l 153 309 q 146 259 149 283 q 144 214 144 235 q 181 98 144 139 q 299 58 217 58 q 376 64 342 58 q 434 78 410 71 q 474 92 459 85 q 495 98 490 98 q 503 94 500 98 q 505 83 505 90 q 504 72 505 79 q 501 59 503 66 q 496 44 499 52 q 488 33 492 37 q 459 17 479 24 q 412 3 439 9 q 353 -7 385 -3 q 290 -12 321 -12 q 189 2 232 -12 q 116 44 145 16 q 73 114 87 72 q 59 211 59 155 q 67 304 59 254 q 94 403 76 354 q 140 497 112 452 q 208 577 169 543 q 299 632 248 611 q 415 652 351 652 q 506 638 469 652 q 567 603 543 625 q 601 556 590 582 q 611 507 611 530 m 526 498 q 495 560 526 536 q 409 583 465 583 q 322 566 360 583 q 254 521 283 549 q 204 455 225 492 q 171 376 184 417 l 246 376 q 381 386 328 376 q 467 412 435 395 q 512 451 499 429 q 526 498 526 473 m 456 763 q 449 752 452 756 q 440 747 445 749 q 428 744 435 745 q 411 743 421 743 q 395 745 401 743 q 386 750 389 747 q 385 758 384 753 q 390 768 386 762 l 495 926 q 505 938 500 933 q 516 945 510 943 q 532 948 523 947 q 555 949 541 949 q 575 947 568 949 q 586 942 583 945 q 588 933 589 938 q 582 922 587 928 l 456 763 z "},"ê":{"ha":652,"x_min":59,"x_max":611,"o":"m 611 507 q 590 425 611 461 q 522 363 568 389 q 404 323 476 337 q 231 309 332 309 l 153 309 q 146 259 149 283 q 144 214 144 235 q 181 98 144 139 q 299 58 217 58 q 376 64 342 58 q 434 78 410 71 q 474 92 459 85 q 495 98 490 98 q 503 94 500 98 q 505 83 505 90 q 504 72 505 79 q 501 59 503 66 q 496 44 499 52 q 488 33 492 37 q 459 17 479 24 q 412 3 439 9 q 353 -7 385 -3 q 290 -12 321 -12 q 189 2 232 -12 q 116 44 145 16 q 73 114 87 72 q 59 211 59 155 q 67 304 59 254 q 94 403 76 354 q 140 497 112 452 q 208 577 169 543 q 299 632 248 611 q 415 652 351 652 q 506 638 469 652 q 567 603 543 625 q 601 556 590 582 q 611 507 611 530 m 526 498 q 495 560 526 536 q 409 583 465 583 q 322 566 360 583 q 254 521 283 549 q 204 455 225 492 q 171 376 184 417 l 246 376 q 381 386 328 376 q 467 412 435 395 q 512 451 499 429 q 526 498 526 473 m 592 777 q 598 762 596 768 q 597 751 600 755 q 587 745 595 747 q 567 743 580 743 q 551 744 557 743 q 541 747 545 745 q 533 752 536 749 q 528 761 530 755 l 456 895 l 332 761 q 323 752 327 755 q 314 747 319 749 q 303 744 309 745 q 288 743 296 743 q 267 745 274 743 q 257 751 259 747 q 258 762 255 755 q 270 777 262 768 l 416 935 q 424 942 420 939 q 434 946 429 945 q 448 949 439 948 q 467 949 456 949 q 484 949 477 949 q 495 946 490 948 q 503 941 500 944 q 509 935 506 939 l 592 777 m 66 642 z "},"ě":{"ha":652,"x_min":59,"x_max":633,"o":"m 611 507 q 590 425 611 461 q 522 363 568 389 q 404 323 476 337 q 231 309 332 309 l 153 309 q 146 259 149 283 q 144 214 144 235 q 181 98 144 139 q 299 58 217 58 q 376 64 342 58 q 434 78 410 71 q 474 92 459 85 q 495 98 490 98 q 503 94 500 98 q 505 83 505 90 q 504 72 505 79 q 501 59 503 66 q 496 44 499 52 q 488 33 492 37 q 459 17 479 24 q 412 3 439 9 q 353 -7 385 -3 q 290 -12 321 -12 q 189 2 232 -12 q 116 44 145 16 q 73 114 87 72 q 59 211 59 155 q 67 304 59 254 q 94 403 76 354 q 140 497 112 452 q 208 577 169 543 q 299 632 248 611 q 415 652 351 652 q 506 638 469 652 q 567 603 543 625 q 601 556 590 582 q 611 507 611 530 m 526 498 q 495 560 526 536 q 409 583 465 583 q 322 566 360 583 q 254 521 283 549 q 204 455 225 492 q 171 376 184 417 l 246 376 q 381 386 328 376 q 467 412 435 395 q 512 451 499 429 q 526 498 526 473 m 474 758 q 466 750 470 753 q 455 746 461 747 q 441 744 449 745 q 421 743 433 743 q 405 744 411 743 q 393 746 398 745 q 386 751 389 748 q 380 758 383 754 l 298 916 q 291 930 293 924 q 292 941 290 937 q 301 947 294 945 q 321 949 308 949 q 338 948 332 949 q 348 945 344 947 q 354 940 351 943 q 359 932 357 937 l 431 797 l 555 932 q 565 940 560 937 q 574 945 569 943 q 586 948 579 947 q 601 949 592 949 q 622 947 614 949 q 631 941 629 945 q 631 931 633 937 q 620 916 628 924 l 474 758 z "},"ë":{"ha":652,"x_min":59,"x_max":611,"o":"m 611 507 q 590 425 611 461 q 522 363 568 389 q 404 323 476 337 q 231 309 332 309 l 153 309 q 146 259 149 283 q 144 214 144 235 q 181 98 144 139 q 299 58 217 58 q 376 64 342 58 q 434 78 410 71 q 474 92 459 85 q 495 98 490 98 q 503 94 500 98 q 505 83 505 90 q 504 72 505 79 q 501 59 503 66 q 496 44 499 52 q 488 33 492 37 q 459 17 479 24 q 412 3 439 9 q 353 -7 385 -3 q 290 -12 321 -12 q 189 2 232 -12 q 116 44 145 16 q 73 114 87 72 q 59 211 59 155 q 67 304 59 254 q 94 403 76 354 q 140 497 112 452 q 208 577 169 543 q 299 632 248 611 q 415 652 351 652 q 506 638 469 652 q 567 603 543 625 q 601 556 590 582 q 611 507 611 530 m 526 498 q 495 560 526 536 q 409 583 465 583 q 322 566 360 583 q 254 521 283 549 q 204 455 225 492 q 171 376 184 417 l 246 376 q 381 386 328 376 q 467 412 435 395 q 512 451 499 429 q 526 498 526 473 m 596 821 q 589 796 593 806 q 578 780 585 786 q 562 771 572 774 q 536 768 551 768 q 513 771 522 768 q 499 780 504 774 q 494 796 494 786 q 495 821 493 806 q 501 846 497 836 q 511 862 505 856 q 528 871 518 869 q 553 874 538 874 q 577 871 568 874 q 591 862 586 869 q 597 846 596 856 q 596 821 598 836 m 370 821 q 363 796 368 806 q 352 780 359 786 q 335 771 345 774 q 311 768 325 768 q 287 771 296 768 q 273 780 277 774 q 267 796 268 786 q 269 821 267 806 q 274 846 271 836 q 285 862 278 856 q 302 871 292 869 q 327 874 312 874 q 350 871 341 874 q 365 862 359 869 q 371 846 370 856 q 370 821 372 836 m 66 642 z "},"ē":{"ha":652,"x_min":59,"x_max":621,"o":"m 611 507 q 590 425 611 461 q 522 363 568 389 q 404 323 476 337 q 231 309 332 309 l 153 309 q 146 259 149 283 q 144 214 144 235 q 181 98 144 139 q 299 58 217 58 q 376 64 342 58 q 434 78 410 71 q 474 92 459 85 q 495 98 490 98 q 503 94 500 98 q 505 83 505 90 q 504 72 505 79 q 501 59 503 66 q 496 44 499 52 q 488 33 492 37 q 459 17 479 24 q 412 3 439 9 q 353 -7 385 -3 q 290 -12 321 -12 q 189 2 232 -12 q 116 44 145 16 q 73 114 87 72 q 59 211 59 155 q 67 304 59 254 q 94 403 76 354 q 140 497 112 452 q 208 577 169 543 q 299 632 248 611 q 415 652 351 652 q 506 638 469 652 q 567 603 543 625 q 601 556 590 582 q 611 507 611 530 m 526 498 q 495 560 526 536 q 409 583 465 583 q 322 566 360 583 q 254 521 283 549 q 204 455 225 492 q 171 376 184 417 l 246 376 q 381 386 328 376 q 467 412 435 395 q 512 451 499 429 q 526 498 526 473 m 621 848 q 620 840 621 844 q 618 829 619 835 q 614 818 616 824 q 610 808 612 812 q 603 801 607 804 q 595 798 600 798 l 281 798 q 271 803 275 798 q 267 817 267 808 q 268 829 267 821 q 272 846 269 838 q 281 860 275 854 q 295 866 286 866 l 608 866 q 618 861 615 866 q 621 848 621 856 m 65 642 z "},"ĕ":{"ha":652,"x_min":59,"x_max":615,"o":"m 611 507 q 590 425 611 461 q 522 363 568 389 q 404 323 476 337 q 231 309 332 309 l 153 309 q 146 259 149 283 q 144 214 144 235 q 181 98 144 139 q 299 58 217 58 q 376 64 342 58 q 434 78 410 71 q 474 92 459 85 q 495 98 490 98 q 503 94 500 98 q 505 83 505 90 q 504 72 505 79 q 501 59 503 66 q 496 44 499 52 q 488 33 492 37 q 459 17 479 24 q 412 3 439 9 q 353 -7 385 -3 q 290 -12 321 -12 q 189 2 232 -12 q 116 44 145 16 q 73 114 87 72 q 59 211 59 155 q 67 304 59 254 q 94 403 76 354 q 140 497 112 452 q 208 577 169 543 q 299 632 248 611 q 415 652 351 652 q 506 638 469 652 q 567 603 543 625 q 601 556 590 582 q 611 507 611 530 m 526 498 q 495 560 526 536 q 409 583 465 583 q 322 566 360 583 q 254 521 283 549 q 204 455 225 492 q 171 376 184 417 l 246 376 q 381 386 328 376 q 467 412 435 395 q 512 451 499 429 q 526 498 526 473 m 615 932 q 612 908 615 924 q 601 870 609 891 q 579 828 593 850 q 544 788 565 806 q 492 758 522 770 q 422 747 462 747 q 355 757 382 747 q 313 784 329 767 q 290 825 297 802 q 283 873 283 848 q 284 889 283 879 q 287 908 285 899 q 290 926 288 918 q 295 937 292 935 q 308 943 300 941 q 323 944 315 944 q 338 943 332 944 q 347 941 343 943 q 351 938 350 940 q 353 932 353 935 q 351 913 353 923 q 350 891 350 903 q 354 860 350 874 q 366 834 357 845 q 390 817 375 823 q 427 811 404 811 q 467 818 448 811 q 503 838 486 824 q 532 874 519 852 q 553 928 545 896 q 556 935 554 932 q 562 940 558 938 q 572 943 566 942 q 588 944 578 944 q 603 943 597 944 q 611 941 608 942 q 614 937 614 939 q 615 932 615 935 m 67 642 z "},"ė":{"ha":652,"x_min":59,"x_max":611,"o":"m 611 507 q 590 425 611 461 q 522 363 568 389 q 404 323 476 337 q 231 309 332 309 l 153 309 q 146 259 149 283 q 144 214 144 235 q 181 98 144 139 q 299 58 217 58 q 376 64 342 58 q 434 78 410 71 q 474 92 459 85 q 495 98 490 98 q 503 94 500 98 q 505 83 505 90 q 504 72 505 79 q 501 59 503 66 q 496 44 499 52 q 488 33 492 37 q 459 17 479 24 q 412 3 439 9 q 353 -7 385 -3 q 290 -12 321 -12 q 189 2 232 -12 q 116 44 145 16 q 73 114 87 72 q 59 211 59 155 q 67 304 59 254 q 94 403 76 354 q 140 497 112 452 q 208 577 169 543 q 299 632 248 611 q 415 652 351 652 q 506 638 469 652 q 567 603 543 625 q 601 556 590 582 q 611 507 611 530 m 526 498 q 495 560 526 536 q 409 583 465 583 q 322 566 360 583 q 254 521 283 549 q 204 455 225 492 q 171 376 184 417 l 246 376 q 381 386 328 376 q 467 412 435 395 q 512 451 499 429 q 526 498 526 473 m 497 833 q 490 809 495 819 q 478 791 486 798 q 460 782 471 785 q 434 779 449 779 q 410 782 420 779 q 396 791 401 785 q 390 809 391 798 q 391 833 389 819 q 398 859 393 848 q 410 876 402 869 q 428 886 417 883 q 453 889 439 889 q 477 886 468 889 q 491 876 486 883 q 498 859 496 869 q 497 833 499 848 z "},"ę":{"ha":652,"x_min":59,"x_max":611,"o":"m 526 498 q 495 560 526 536 q 409 583 465 583 q 322 566 360 583 q 254 521 283 549 q 204 455 225 492 q 171 376 184 417 l 246 376 q 386 387 332 376 q 471 415 440 397 q 514 454 503 432 q 526 498 526 475 m 356 -6 q 327 -10 342 -8 q 290 -12 311 -12 q 189 2 232 -12 q 116 44 145 16 q 73 114 87 72 q 59 211 59 155 q 67 304 59 254 q 94 403 76 354 q 140 497 112 452 q 208 577 169 543 q 299 632 248 611 q 415 652 351 652 q 506 638 469 652 q 567 603 543 625 q 601 556 590 582 q 611 507 611 530 q 592 429 611 465 q 528 367 572 393 q 410 325 483 340 q 231 309 338 309 l 153 309 q 146 259 149 283 q 144 214 144 235 q 181 98 144 139 q 299 58 217 58 q 376 64 342 58 q 434 78 410 71 q 474 92 459 85 q 495 98 490 98 q 503 93 501 98 q 505 83 505 88 q 504 66 505 75 q 497 47 503 58 q 481 23 492 36 q 452 -5 471 10 l 366 -78 q 326 -117 338 -100 q 313 -153 313 -134 q 323 -173 313 -165 q 356 -181 332 -181 l 443 -181 q 453 -184 450 -181 q 455 -193 455 -187 q 454 -201 455 -196 q 452 -213 454 -207 q 449 -223 451 -218 q 445 -230 448 -228 q 431 -236 441 -233 q 407 -242 420 -239 q 378 -246 393 -245 q 349 -248 363 -248 q 261 -227 290 -248 q 233 -168 233 -206 q 235 -142 233 -155 q 247 -114 238 -130 q 270 -82 255 -99 q 309 -44 285 -64 l 356 -6 z "},"f":{"ha":415,"x_min":-137,"x_max":548,"o":"m 548 907 q 548 901 548 905 q 547 892 547 897 q 545 882 546 887 q 541 872 543 876 q 536 864 539 867 q 530 861 533 861 q 517 864 525 861 q 499 871 510 867 q 475 877 489 874 q 444 880 461 880 q 387 870 410 880 q 347 839 363 860 q 319 785 330 817 q 299 708 308 752 l 287 642 l 437 642 q 448 637 444 642 q 452 623 452 633 q 451 609 452 615 q 448 597 450 602 q 444 587 446 591 q 438 579 441 583 q 431 575 435 576 q 424 573 427 573 l 273 573 l 152 -29 q 121 -128 140 -87 q 74 -196 102 -170 q 12 -235 47 -222 q -66 -248 -24 -248 q -112 -243 -95 -248 q -132 -235 -128 -239 q -136 -228 -135 -232 q -137 -219 -137 -224 q -136 -213 -137 -217 q -135 -203 -136 -208 q -132 -193 -134 -198 q -128 -182 -130 -187 q -123 -175 -125 -178 q -116 -172 -120 -172 q -107 -173 -111 -172 q -97 -175 -102 -174 q -84 -177 -92 -176 q -65 -178 -77 -178 q -10 -168 -33 -178 q 29 -137 13 -158 q 57 -83 45 -116 q 77 -6 68 -51 l 193 573 l 100 573 q 90 577 94 573 q 87 591 87 581 q 87 602 87 596 q 90 613 88 608 q 93 624 91 619 q 98 633 95 629 q 105 639 102 637 q 115 642 109 642 l 206 642 l 225 736 q 256 832 236 791 q 303 898 275 872 q 366 937 331 924 q 444 949 401 949 q 472 948 456 949 q 501 943 488 946 q 526 936 515 940 q 541 928 536 932 q 546 918 545 924 q 548 907 548 912 z "},"ﬀ":{"ha":797,"x_min":-162,"x_max":930,"o":"m 930 907 q 930 901 930 905 q 929 892 930 897 q 926 882 928 887 q 923 872 925 876 q 918 864 921 867 q 911 861 915 861 q 900 864 907 861 q 882 871 892 867 q 858 877 871 874 q 826 880 844 880 q 769 870 792 880 q 729 839 745 860 q 702 785 713 817 q 682 708 690 752 l 669 642 l 820 642 q 831 637 827 642 q 835 623 835 633 q 834 609 835 615 q 831 597 833 602 q 826 587 829 591 q 820 579 823 583 q 813 575 817 576 q 806 573 810 573 l 655 573 l 539 -3 q 507 -112 526 -67 q 459 -186 487 -157 q 395 -227 431 -214 q 314 -240 359 -240 q 259 -235 283 -240 q 228 -221 236 -230 q 221 -203 221 -216 q 222 -197 221 -201 q 223 -188 222 -193 q 226 -177 224 -182 q 230 -167 228 -172 q 236 -160 233 -163 q 243 -157 239 -157 q 254 -159 248 -157 q 271 -164 261 -161 q 292 -169 280 -167 q 318 -171 304 -171 q 373 -161 350 -171 q 412 -131 395 -151 q 439 -79 428 -111 q 459 -5 450 -47 l 574 573 l 273 573 l 156 -10 q 123 -120 143 -75 q 75 -193 103 -165 q 12 -235 47 -222 q -69 -248 -24 -248 q -124 -242 -100 -248 q -156 -229 -147 -237 q -160 -221 -159 -226 q -162 -211 -162 -217 q -161 -204 -162 -209 q -160 -195 -161 -200 q -157 -184 -159 -190 q -153 -175 -155 -179 q -148 -168 -151 -170 q -141 -165 -145 -165 q -113 -172 -132 -165 q -65 -178 -94 -178 q -11 -169 -33 -178 q 28 -138 12 -159 q 56 -87 45 -118 q 75 -13 67 -56 l 193 573 l 100 573 q 90 577 94 573 q 87 591 87 581 q 87 602 87 596 q 90 613 88 608 q 93 624 91 619 q 98 633 95 629 q 105 639 102 637 q 115 642 109 642 l 206 642 l 224 727 q 255 823 235 783 q 302 890 275 863 q 365 929 330 916 q 443 942 400 942 q 471 940 456 942 q 500 936 486 939 q 525 928 514 932 q 539 920 535 924 q 545 911 543 917 q 547 899 547 905 q 546 893 547 897 q 545 885 546 890 q 543 874 545 880 q 540 864 542 869 q 535 857 538 860 q 528 854 532 854 q 516 857 524 854 q 498 863 509 860 q 474 870 488 867 q 443 873 460 873 q 386 863 409 873 q 346 831 362 852 q 318 777 330 810 q 298 701 307 745 l 287 642 l 589 642 l 607 734 q 638 831 618 790 q 685 898 658 871 q 748 937 713 924 q 826 949 783 949 q 854 948 839 949 q 883 943 869 946 q 908 936 897 940 q 923 928 919 932 q 928 918 926 924 q 930 907 930 912 z "},"ﬁ":{"ha":717,"x_min":-137,"x_max":722,"o":"m 644 642 q 661 633 658 642 q 663 614 665 625 l 543 14 q 539 6 542 9 q 532 1 537 3 q 519 -3 527 -1 q 499 -4 511 -4 q 480 -3 488 -4 q 469 1 473 -1 q 463 6 465 3 q 463 14 462 9 l 574 573 l 273 573 l 152 -29 q 121 -128 140 -87 q 74 -196 102 -170 q 12 -235 47 -222 q -66 -248 -24 -248 q -112 -243 -95 -248 q -132 -235 -128 -239 q -136 -228 -135 -232 q -137 -219 -137 -224 q -136 -213 -137 -217 q -135 -203 -136 -208 q -132 -193 -134 -198 q -128 -182 -130 -187 q -123 -175 -125 -178 q -116 -172 -120 -172 q -107 -173 -111 -172 q -97 -175 -102 -174 q -84 -177 -92 -176 q -65 -178 -77 -178 q -10 -168 -33 -178 q 29 -137 13 -158 q 57 -83 45 -116 q 77 -6 68 -51 l 193 573 l 100 573 q 90 577 94 573 q 87 591 87 581 q 87 602 87 596 q 90 613 88 608 q 93 624 91 619 q 98 633 95 629 q 105 639 102 637 q 115 642 109 642 l 206 642 l 225 734 q 256 831 236 790 q 303 898 276 871 q 366 937 331 924 q 444 949 401 949 q 472 948 458 949 q 497 943 486 946 q 518 937 509 940 q 530 929 527 933 q 535 921 534 926 q 536 910 536 916 q 535 905 536 909 q 534 896 535 901 q 532 886 533 891 q 528 876 530 880 q 523 868 526 871 q 517 865 520 865 q 505 868 511 865 q 489 873 498 870 q 468 878 480 876 q 439 880 455 880 q 385 870 407 880 q 346 839 362 860 q 319 785 330 817 q 299 708 308 752 l 287 642 l 644 642 m 719 833 q 712 807 716 818 q 700 790 707 797 q 682 781 692 784 q 655 779 671 779 q 630 781 640 779 q 616 790 621 784 q 611 807 612 797 q 614 833 611 818 q 622 860 617 849 q 633 877 626 870 q 651 886 641 884 q 677 889 662 889 q 703 886 693 889 q 717 877 712 884 q 722 860 722 870 q 719 833 722 849 z "},"ﬃ":{"ha":1099,"x_min":-137,"x_max":1105,"o":"m 273 573 l 152 -29 q 121 -128 140 -87 q 74 -196 102 -170 q 12 -235 47 -222 q -66 -248 -24 -248 q -112 -243 -95 -248 q -132 -235 -128 -239 q -136 -228 -135 -232 q -137 -219 -137 -224 q -136 -213 -137 -217 q -135 -203 -136 -208 q -132 -193 -134 -198 q -128 -182 -130 -187 q -123 -175 -125 -178 q -116 -172 -120 -172 q -107 -173 -111 -172 q -97 -175 -102 -174 q -84 -177 -92 -176 q -65 -178 -77 -178 q -10 -168 -33 -178 q 29 -137 13 -158 q 57 -83 45 -116 q 77 -6 68 -51 l 193 573 l 100 573 q 90 577 94 573 q 87 591 87 581 q 87 602 87 596 q 90 613 88 608 q 93 624 91 619 q 98 633 95 629 q 105 639 102 637 q 115 642 109 642 l 206 642 l 224 727 q 255 823 235 783 q 302 890 275 863 q 365 929 330 916 q 443 942 400 942 q 471 940 456 942 q 500 936 486 939 q 525 928 514 932 q 539 920 535 924 q 545 911 543 917 q 547 899 547 905 q 546 893 547 897 q 545 885 546 890 q 543 874 545 880 q 540 864 542 869 q 535 857 538 860 q 528 854 532 854 q 516 857 524 854 q 498 863 509 860 q 474 870 488 867 q 443 873 460 873 q 386 863 409 873 q 346 831 362 852 q 318 777 330 810 q 298 701 307 745 l 287 642 l 589 642 l 607 734 q 638 831 618 790 q 685 898 658 871 q 748 937 713 924 q 826 949 783 949 q 854 948 840 949 q 880 943 868 946 q 900 937 892 940 q 913 929 909 933 q 917 921 916 926 q 918 910 918 916 q 917 905 918 909 q 916 896 917 901 q 914 886 916 891 q 911 876 913 880 q 906 868 909 871 q 899 865 903 865 q 887 868 894 865 q 871 873 880 870 q 850 878 862 876 q 821 880 838 880 q 767 870 789 880 q 729 839 745 860 q 702 785 713 817 q 682 708 690 752 l 669 642 l 1026 642 q 1043 633 1040 642 q 1045 614 1046 625 l 926 14 q 922 6 924 9 q 915 1 920 3 q 901 -3 909 -1 q 882 -4 893 -4 q 862 -3 869 -4 q 850 1 854 -1 q 845 6 846 3 q 845 14 844 9 l 957 573 l 655 573 l 539 -3 q 507 -112 526 -67 q 459 -186 487 -157 q 395 -227 431 -214 q 314 -240 359 -240 q 259 -235 283 -240 q 228 -221 236 -230 q 221 -203 221 -216 q 222 -197 221 -201 q 223 -188 222 -193 q 226 -177 224 -182 q 230 -167 228 -172 q 236 -160 233 -163 q 243 -157 239 -157 q 254 -159 248 -157 q 271 -164 261 -161 q 292 -169 280 -167 q 318 -171 304 -171 q 373 -161 350 -171 q 412 -131 395 -151 q 439 -79 428 -111 q 459 -5 450 -47 l 574 573 l 273 573 m 1101 833 q 1094 807 1099 818 q 1082 790 1090 797 q 1064 781 1075 784 q 1038 779 1053 779 q 1012 781 1022 779 q 998 790 1002 784 q 993 807 994 797 q 996 833 993 818 q 1004 860 999 849 q 1016 877 1008 870 q 1034 886 1023 884 q 1060 889 1044 889 q 1085 886 1076 889 q 1099 877 1095 884 q 1104 860 1104 870 q 1101 833 1105 849 z "},"ﬂ":{"ha":717,"x_min":-137,"x_max":726,"o":"m 543 14 q 531 0 541 4 q 499 -4 520 -4 q 480 -3 488 -4 q 469 1 473 -1 q 463 6 465 3 q 463 14 462 9 l 633 865 q 629 863 631 864 q 624 863 627 863 q 609 865 619 863 q 583 871 599 868 q 545 878 567 875 q 493 880 522 880 q 409 870 442 880 q 354 839 376 860 q 320 785 333 817 q 299 708 308 752 l 287 642 l 425 642 q 436 637 432 642 q 440 623 440 633 q 439 609 440 615 q 436 597 438 602 q 431 587 434 591 q 426 579 429 583 q 419 575 422 576 q 411 573 415 573 l 273 573 l 152 -29 q 121 -128 140 -87 q 74 -196 102 -170 q 12 -235 47 -222 q -66 -248 -24 -248 q -112 -243 -95 -248 q -132 -235 -128 -239 q -136 -228 -135 -232 q -137 -219 -137 -224 q -136 -213 -137 -217 q -135 -203 -136 -208 q -132 -193 -134 -198 q -128 -182 -130 -187 q -123 -175 -125 -178 q -116 -172 -120 -172 q -107 -173 -111 -172 q -97 -175 -102 -174 q -84 -177 -92 -176 q -65 -178 -77 -178 q -10 -168 -33 -178 q 29 -137 13 -158 q 57 -83 45 -116 q 77 -6 68 -51 l 193 573 l 100 573 q 90 577 94 573 q 87 591 87 581 q 87 602 87 596 q 90 613 88 608 q 93 624 91 619 q 98 633 95 629 q 105 639 102 637 q 115 642 109 642 l 206 642 l 225 736 q 257 832 236 791 q 312 898 278 872 q 393 937 345 924 q 508 949 441 949 q 542 948 521 949 q 582 943 562 946 q 618 937 602 941 q 639 929 635 933 q 642 926 641 927 q 644 923 642 925 q 647 932 644 928 q 654 939 649 937 q 667 944 659 942 q 689 945 675 945 q 708 944 701 945 q 720 941 715 943 q 725 935 724 939 q 726 928 726 932 l 543 14 z "},"ﬄ":{"ha":1099,"x_min":-137,"x_max":1108,"o":"m 926 14 q 913 0 924 4 q 882 -4 902 -4 q 862 -3 869 -4 q 850 1 854 -1 q 845 6 846 3 q 845 14 844 9 l 1015 865 q 1011 863 1013 864 q 1006 863 1009 863 q 991 865 1001 863 q 965 871 981 868 q 926 878 949 875 q 875 880 904 880 q 791 870 824 880 q 736 839 758 860 q 703 785 715 817 q 682 708 690 752 l 669 642 l 807 642 q 818 637 814 642 q 823 623 823 633 q 822 609 823 615 q 819 597 821 602 q 814 587 817 591 q 808 579 811 583 q 801 575 804 576 q 793 573 797 573 l 655 573 l 539 -3 q 507 -112 526 -67 q 459 -186 487 -157 q 395 -227 431 -214 q 314 -240 359 -240 q 259 -235 283 -240 q 228 -221 236 -230 q 221 -203 221 -216 q 222 -197 221 -201 q 223 -188 222 -193 q 226 -177 224 -182 q 230 -167 228 -172 q 236 -160 233 -163 q 243 -157 239 -157 q 254 -159 248 -157 q 271 -164 261 -161 q 292 -169 280 -167 q 318 -171 304 -171 q 373 -161 350 -171 q 412 -131 395 -151 q 439 -79 428 -111 q 459 -5 450 -47 l 574 573 l 273 573 l 152 -29 q 121 -128 140 -87 q 74 -196 102 -170 q 12 -235 47 -222 q -66 -248 -24 -248 q -112 -243 -95 -248 q -132 -235 -128 -239 q -136 -228 -135 -232 q -137 -219 -137 -224 q -136 -213 -137 -217 q -135 -203 -136 -208 q -132 -193 -134 -198 q -128 -182 -130 -187 q -123 -175 -125 -178 q -116 -172 -120 -172 q -107 -173 -111 -172 q -97 -175 -102 -174 q -84 -177 -92 -176 q -65 -178 -77 -178 q -10 -169 -33 -178 q 29 -138 13 -159 q 57 -84 45 -117 q 77 -6 68 -52 l 193 573 l 100 573 q 90 577 94 573 q 87 591 87 581 q 87 602 87 596 q 90 613 88 608 q 93 624 91 619 q 98 633 95 629 q 105 639 102 637 q 115 642 109 642 l 206 642 l 224 727 q 255 823 235 783 q 302 890 275 863 q 365 929 330 916 q 443 942 400 942 q 471 940 456 942 q 500 936 486 939 q 525 928 514 932 q 539 920 535 924 q 545 911 543 917 q 547 899 547 905 q 546 893 547 897 q 545 885 546 890 q 543 874 545 880 q 540 864 542 869 q 535 857 538 860 q 528 854 532 854 q 516 857 524 854 q 498 863 509 860 q 474 870 488 867 q 443 873 460 873 q 386 863 409 873 q 346 831 362 852 q 318 777 330 810 q 298 701 307 745 l 287 642 l 589 642 l 607 736 q 639 832 618 791 q 693 898 660 872 q 775 937 727 924 q 890 949 824 949 q 924 948 903 949 q 965 943 945 946 q 1001 937 985 941 q 1021 929 1017 933 q 1024 926 1023 927 q 1026 923 1025 925 q 1029 932 1027 928 q 1037 939 1031 937 q 1050 944 1042 942 q 1072 945 1058 945 q 1090 944 1083 945 q 1102 941 1098 943 q 1107 935 1106 939 q 1107 928 1108 932 l 926 14 z "},"g":{"ha":704,"x_min":49,"x_max":653,"o":"m 517 -47 q 484 -135 507 -98 q 426 -198 461 -173 q 345 -235 391 -222 q 241 -248 298 -248 q 140 -235 186 -248 q 66 -206 93 -223 q 53 -193 56 -199 q 49 -177 49 -186 q 49 -167 49 -173 q 51 -156 50 -161 q 54 -144 52 -150 q 59 -135 56 -139 q 67 -127 62 -130 q 77 -125 71 -125 q 97 -133 85 -125 q 131 -151 110 -141 q 182 -169 151 -161 q 258 -177 213 -177 q 326 -169 296 -177 q 380 -144 357 -161 q 417 -102 403 -127 q 439 -43 432 -77 q 465 75 452 28 q 486 146 478 121 q 451 93 475 120 q 395 42 427 65 q 323 3 362 18 q 243 -12 283 -12 q 157 5 192 -12 q 101 51 123 22 q 71 119 80 79 q 62 203 62 158 q 69 289 62 241 q 92 386 76 336 q 133 484 108 436 q 193 569 157 532 q 275 630 229 607 q 381 652 322 652 q 487 628 444 652 q 564 561 530 603 l 578 627 q 590 641 581 637 q 620 645 600 645 q 637 644 630 645 q 647 641 644 643 q 652 635 651 638 q 652 627 653 631 l 517 -47 m 543 479 q 466 557 507 531 q 374 583 425 583 q 300 564 333 583 q 243 514 268 545 q 199 443 218 483 q 170 361 181 403 q 153 279 158 319 q 147 208 147 239 q 153 148 147 176 q 172 101 159 121 q 205 69 184 81 q 255 58 225 58 q 337 80 296 58 q 414 141 378 102 q 477 236 450 181 q 518 356 505 290 l 543 479 z "}}}
